{
.appVersion = "1359";
copyright = "Copyright 2020-2022 Google LLC. All Rights Reserved.";
customParameters = (
{
name = glyphOrder;
value = (
"qaHigh-lue",
"qaLow-lue",
"kaHigh-lue",
"xaHigh-lue",
"ngaHigh-lue",
"kaLow-lue",
"xaLow-lue",
"ngaLow-lue",
"tsaHigh-lue",
"saHigh-lue",
"yaHigh-lue",
"tsaLow-lue",
"saLow-lue",
"yaLow-lue",
"taHigh-lue",
"thaHigh-lue",
"naHigh-lue",
"taLow-lue",
"thaLow-lue",
"naLow-lue",
"paHigh-lue",
"phaHigh-lue",
"maHigh-lue",
"paLow-lue",
"phaLow-lue",
"maLow-lue",
"faHigh-lue",
"vaHigh-lue",
"laHigh-lue",
"faLow-lue",
"vaLow-lue",
"laLow-lue",
"haHigh-lue",
"daHigh-lue",
"baHigh-lue",
"haLow-lue",
"daLow-lue",
"baLow-lue",
"kvaHigh-lue",
"xvaHigh-lue",
"kvaLow-lue",
"xvaLow-lue",
"suaHigh-lue",
"suaLow-lue",
"tvaHigh-lue",
"tvaLow-lue",
"lvaLow-lue",
"shortVowel-lue",
"lae-lue",
"laev-lue",
"aaSign-lue",
"iiSign-lue",
"uSign-lue",
"uuSign-lue",
"eSign-lue",
"aeSign-lue",
"oSign-lue",
"oaSign-lue",
"ueSign-lue",
"aySign-lue",
"aaySign-lue",
"uySign-lue",
"oySign-lue",
"oaySign-lue",
"ueySign-lue",
"iySign-lue",
"tone1-lue",
"tone2-lue",
"vFinal-lue",
"ngFinal-lue",
"nFinal-lue",
"mFinal-lue",
"kFinal-lue",
"dFinal-lue",
"bFinal-lue",
"finalcons-mark",
belowmk1,
belowmk2,
abovemk1,
"zero-lue",
"one-lue",
"two-lue",
"three-lue",
"four-lue",
"five-lue",
"six-lue",
"seven-lue",
"eight-lue",
"nine-lue",
"oneDigit-lue"
);
},
{
name = description;
value = "Designed by Monotype design team.";
},
{
name = license;
value = "This Font Software is licensed under the SIL Open Font License, Version 1.1. This Font Software is distributed on an \"AS IS\" BASIS, WITHOUT WARRANTIES OR CONDITIONS OF ANY KIND, either express or implied. See the SIL Open Font License for the specific language, permissions and limitations governing your use of this Font Software.";
},
{
name = licenseURL;
value = "http://scripts.sil.org/OFL";
},
{
name = versionString;
value = "Version 2.002";
},
{
name = codePageRanges;
value = (
1252
);
},
{
name = openTypeOS2Panose;

glyphs = (
{
color = 0;
glyphname = "qaHigh-lue";
lastChange = "2022-03-28 20:06:45 +0000";
layers = (
{
anchors = (
{
name = top;
position = "{501, 510}";
}
);
background = {
components = (
{
name = "daHigh-lue";
transform = "{1, 0, 0, 1, 448, 0}";
}
);
};
layerId = UUID0;
paths = (
{
closed = 1;
nodes = (
"838 -446 OFFCURVE",
"967 -365 OFFCURVE",
"967 -190 CURVE SMOOTH",
"967 -82 OFFCURVE",
"912 -1 OFFCURVE",
"791 50 CURVE",
"786 15 LINE",
"886 59 OFFCURVE",
"947 151 OFFCURVE",
"947 268 CURVE SMOOTH",
"947 424 OFFCURVE",
"846 525 OFFCURVE",
"694 525 CURVE SMOOTH",
"596 525 OFFCURVE",
"513 478 OFFCURVE",
"473 401 CURVE",
"509 282 LINE",
"521 386 OFFCURVE",
"601 457 OFFCURVE",
"700 457 CURVE SMOOTH",
"800 457 OFFCURVE",
"859 383 OFFCURVE",
"859 272 CURVE SMOOTH",
"859 172 OFFCURVE",
"818 92 OFFCURVE",
"720 64 CURVE",
"743 -3 LINE",
"837 -31 OFFCURVE",
"879 -89 OFFCURVE",
"879 -184 CURVE SMOOTH",
"879 -315 OFFCURVE",
"801 -378 OFFCURVE",
"702 -378 CURVE SMOOTH",
"608 -378 OFFCURVE",
"552 -330 OFFCURVE",
"520 -270 CURVE",
"454 -312 LINE",
"517 -413 OFFCURVE",
"610 -446 OFFCURVE",
"707 -446 CURVE SMOOTH"
);
},
{
closed = 1;
nodes = (
"400 -15 OFFCURVE",
"526 66 OFFCURVE",
"526 256 CURVE SMOOTH",
"526 437 OFFCURVE",
"402 525 OFFCURVE",
"269 525 CURVE SMOOTH",
"186 525 OFFCURVE",
"110 491 OFFCURVE",
"59 419 CURVE",
"123 375 LINE",
"155 424 OFFCURVE",
"210 458 OFFCURVE",
"275 458 CURVE SMOOTH",
"367 458 OFFCURVE",
"436 383 OFFCURVE",
"436 259 CURVE SMOOTH",
"436 138 OFFCURVE",
"374 53 OFFCURVE",
"266 53 CURVE SMOOTH",
"185 53 OFFCURVE",
"133 99 OFFCURVE",
"105 155 CURVE",
"40 117 LINE",
"99 19 OFFCURVE",
"184 -15 OFFCURVE",
"267 -15 CURVE SMOOTH"
);
}
);
userData = {
com.schriftgestaltung.Glyphs.category = Letter;
com.schriftgestaltung.Glyphs.lastChange = "2020/09/03 22:42:33";
com.schriftgestaltung.Glyphs.subCategory = Other;
};
width = 997;
},
{
anchors = (
{
name = top;
position = "{521, 525}";
}
);
background = {
components = (
{
name = "daHigh-lue";
transform = "{1, 0, 0, 1, 409, 0}";
}
);
};
layerId = "1FCF787B-CF33-4B83-BE16-73AC6600FEB7";
paths = (
{
closed = 1;
nodes = (
"887 -460 OFFCURVE",
"997 -359 OFFCURVE",
"997 -195 CURVE SMOOTH",
"997 -67 OFFCURVE",
"928 22 OFFCURVE",
"809 68 CURVE",
"822 16 LINE",
"923 71 OFFCURVE",
"977 144 OFFCURVE",
"977 269 CURVE SMOOTH",
"977 420 OFFCURVE",
"874 540 OFFCURVE",
"694 540 CURVE SMOOTH",
"583 540 OFFCURVE",
"513 491 OFFCURVE",
"462 430 CURVE",
"537 284 LINE",
"561 369 OFFCURVE",
"621 424 OFFCURVE",
"701 424 CURVE SMOOTH",
"777 424 OFFCURVE",
"827 364 OFFCURVE",
"827 263 CURVE SMOOTH",
"827 160 OFFCURVE",
"781 113 OFFCURVE",
"680 84 CURVE",
"716 -26 LINE",
"819 -44 OFFCURVE",
"853 -103 OFFCURVE",
"853 -184 CURVE SMOOTH",
"853 -279 OFFCURVE",
"794 -341 OFFCURVE",
"701 -341 CURVE SMOOTH",
"622 -341 OFFCURVE",
"573 -302 OFFCURVE",
"537 -235 CURVE",
"414 -307 LINE",
"476 -416 OFFCURVE",
"579 -460 OFFCURVE",
"704 -460 CURVE SMOOTH"
);
},
{
closed = 1;
nodes = (
"458 -15 OFFCURVE",
"565 91 OFFCURVE",
"565 265 CURVE SMOOTH",
"565 428 OFFCURVE",
"445 540 OFFCURVE",
"285 540 CURVE SMOOTH",
"180 540 OFFCURVE",
"100 505 OFFCURVE",
"43 422 CURVE",
"162 349 LINE",
"192 397 OFFCURVE",
"236 424 OFFCURVE",
"285 424 CURVE SMOOTH",
"362 424 OFFCURVE",
"415 362 OFFCURVE",
"415 267 CURVE SMOOTH",
"415 161 OFFCURVE",
"363 101 OFFCURVE",
"279 101 CURVE SMOOTH",
"221 101 OFFCURVE",
"177 130 OFFCURVE",
"149 187 CURVE",
"30 119 LINE",
"83 27 OFFCURVE",
"172 -15 OFFCURVE",
"286 -15 CURVE SMOOTH"
);
}
);
width = 1017;
},
{
anchors = (
{
name = top;
position = "{465, 510}";
}
);
associatedMasterId = UUID0;
layerId = "2E3C9F75-56BF-429A-8B28-CA035E7514C5";
name = "Jan 26 22, 10:53";
paths = (
{
closed = 1;
nodes = (
"811 -278 OFFCURVE",
"871 -167 OFFCURVE",
"871 -85 CURVE SMOOTH",
"871 -29 OFFCURVE",
"838 19 OFFCURVE",
"781 46 CURVE",
"841 91 OFFCURVE",
"880 171 OFFCURVE",
"880 270 CURVE SMOOTH",
"880 468 OFFCURVE",
"764 546 OFFCURVE",
"645 546 CURVE SMOOTH",
"585 546 OFFCURVE",
"510 526 OFFCURVE",
"448 452 CURVE",
"404 518 OFFCURVE",
"333 546 OFFCURVE",
"253 546 CURVE SMOOTH",
"184 546 OFFCURVE",
"108 516 OFFCURVE",
"58 447 CURVE",
"122 410 LINE",
"155 460 OFFCURVE",
"208 479 OFFCURVE",
"249 479 CURVE SMOOTH",
"346 479 OFFCURVE",
"404 405 OFFCURVE",
"404 271 CURVE SMOOTH",
"404 142 OFFCURVE",
"345 58 OFFCURVE",
"254 58 CURVE SMOOTH",
"186 58 OFFCURVE",
"125 106 OFFCURVE",
"104 153 CURVE",
"39 116 LINE",
"98 19 OFFCURVE",
"183 -10 OFFCURVE",
"254 -10 CURVE SMOOTH",
"387 -10 OFFCURVE",
"494 80 OFFCURVE",
"494 270 CURVE SMOOTH",
"494 300 OFFCURVE",
"492 328 OFFCURVE",
"487 353 CURVE",
"509 427 OFFCURVE",
"558 479 OFFCURVE",
"634 479 CURVE SMOOTH",
"727 479 OFFCURVE",
"790 407 OFFCURVE",
"790 273 CURVE SMOOTH",
"790 139 OFFCURVE",
"731 67 OFFCURVE",
"653 67 CURVE SMOOTH",
"646 67 OFFCURVE",
"640 67 OFFCURVE",
"634 67 CURVE",
"634 0 LINE",
"639 0 OFFCURVE",
"644 0 OFFCURVE",
"649 0 CURVE SMOOTH",
"757 0 OFFCURVE",
"782 -48 OFFCURVE",
"782 -86 CURVE SMOOTH",
"782 -148 OFFCURVE",
"750 -211 OFFCURVE",
"623 -211 CURVE SMOOTH",
"547 -211 OFFCURVE",
"477 -168 OFFCURVE",
"439 -122 CURVE",
"380 -166 LINE",
"444 -246 OFFCURVE",
"553 -278 OFFCURVE",
"623 -278 CURVE SMOOTH"
);
}
);
userData = {
com.schriftgestaltung.Glyphs.category = Letter;
com.schriftgestaltung.Glyphs.lastChange = "2020/09/03 22:42:33";
com.schriftgestaltung.Glyphs.subCategory = Other;
};
width = 929;
},
{
anchors = (
{
name = top;
position = "{505, 510}";
}
);
associatedMasterId = UUID0;
background = {
components = (
{
name = "phaLow-lue";
},
{
name = "daHigh-lue";
transform = "{1, 0, 0, 1, 433, 0}";
}
);
};
layerId = "6778FD1C-5805-4EDD-97B8-6403DEA8145A";
name = "Feb 2 22, 13:26";
paths = (
{
closed = 1;
nodes = (
"844 -446 OFFCURVE",
"962 -365 OFFCURVE",
"962 -190 CURVE SMOOTH",
"962 -57 OFFCURVE",
"875 28 OFFCURVE",
"759 60 CURVE",
"772 30 LINE",
"863 61 OFFCURVE",
"941 143 OFFCURVE",
"941 274 CURVE SMOOTH",
"941 441 OFFCURVE",
"829 525 OFFCURVE",
"691 525 CURVE SMOOTH",
"597 525 OFFCURVE",
"513 478 OFFCURVE",
"473 401 CURVE",
"509 281 LINE",
"521 385 OFFCURVE",
"601 457 OFFCURVE",
"696 457 CURVE SMOOTH",
"788 457 OFFCURVE",
"851 389 OFFCURVE",
"851 277 CURVE SMOOTH",
"851 159 OFFCURVE",
"790 81 OFFCURVE",
"632 64 CURVE",
"645 4 LINE",
"803 5 OFFCURVE",
"873 -64 OFFCURVE",
"873 -186 CURVE SMOOTH",
"873 -314 OFFCURVE",
"793 -376 OFFCURVE",
"690 -376 CURVE SMOOTH",
"601 -376 OFFCURVE",
"540 -328 OFFCURVE",
"509 -270 CURVE",
"443 -312 LINE",
"506 -413 OFFCURVE",
"600 -446 OFFCURVE",
"697 -446 CURVE SMOOTH"
);
},
{
closed = 1;
nodes = (
"399 -10 OFFCURVE",
"526 75 OFFCURVE",
"526 259 CURVE SMOOTH",
"526 439 OFFCURVE",
"402 525 OFFCURVE",
"269 525 CURVE SMOOTH",
"186 525 OFFCURVE",
"110 491 OFFCURVE",
"59 419 CURVE",
"123 375 LINE",
"155 424 OFFCURVE",
"210 458 OFFCURVE",
"275 458 CURVE SMOOTH",
"367 458 OFFCURVE",
"436 385 OFFCURVE",
"436 264 CURVE SMOOTH",
"436 148 OFFCURVE",
"369 58 OFFCURVE",
"261 58 CURVE SMOOTH",
"184 58 OFFCURVE",
"133 104 OFFCURVE",
"105 160 CURVE",
"40 122 LINE",
"99 24 OFFCURVE",
"184 -10 OFFCURVE",
"266 -10 CURVE SMOOTH"
);
}
);
userData = {
com.schriftgestaltung.Glyphs.category = Letter;
com.schriftgestaltung.Glyphs.lastChange = "2020/09/03 22:42:33";
com.schriftgestaltung.Glyphs.subCategory = Other;
};
width = 982;
},
{
anchors = (
{
name = top;
position = "{501, 510}";
}
);
associatedMasterId = UUID0;
background = {
components = (
{
name = "daHigh-lue";
transform = "{1, 0, 0, 1, 448, 0}";
}
);
};
layerId = "406F23F0-4713-4A11-BC8F-4589BE742E02";
name = "Feb 28 22, 18:35";
paths = (
{
closed = 1;
nodes = (
"854 -446 OFFCURVE",
"967 -365 OFFCURVE",
"967 -190 CURVE SMOOTH",
"967 -57 OFFCURVE",
"890 26 OFFCURVE",
"765 61 CURVE",
"778 31 LINE",
"869 62 OFFCURVE",
"947 143 OFFCURVE",
"947 274 CURVE SMOOTH",
"947 421 OFFCURVE",
"849 525 OFFCURVE",
"694 525 CURVE SMOOTH",
"596 525 OFFCURVE",
"513 478 OFFCURVE",
"473 401 CURVE",
"509 282 LINE",
"521 386 OFFCURVE",
"601 458 OFFCURVE",
"696 458 CURVE SMOOTH",
"799 458 OFFCURVE",
"857 390 OFFCURVE",
"857 277 CURVE SMOOTH",
"857 159 OFFCURVE",
"798 80 OFFCURVE",
"640 73 CURVE",
"640 6 LINE",
"808 1 OFFCURVE",
"878 -64 OFFCURVE",
"878 -186 CURVE SMOOTH",
"878 -314 OFFCURVE",
"799 -376 OFFCURVE",
"701 -376 CURVE SMOOTH",
"616 -376 OFFCURVE",
"559 -328 OFFCURVE",
"529 -269 CURVE",
"463 -312 LINE",
"525 -413 OFFCURVE",
"616 -446 OFFCURVE",
"710 -446 CURVE SMOOTH"
);
},
{
closed = 1;
nodes = (
"400 -15 OFFCURVE",
"526 66 OFFCURVE",
"526 256 CURVE SMOOTH",
"526 437 OFFCURVE",
"402 525 OFFCURVE",
"269 525 CURVE SMOOTH",
"186 525 OFFCURVE",
"110 491 OFFCURVE",
"59 419 CURVE",
"123 375 LINE",
"155 424 OFFCURVE",
"210 458 OFFCURVE",
"275 458 CURVE SMOOTH",
"367 458 OFFCURVE",
"436 383 OFFCURVE",
"436 259 CURVE SMOOTH",
"436 138 OFFCURVE",
"374 53 OFFCURVE",
"266 53 CURVE SMOOTH",
"185 53 OFFCURVE",
"133 99 OFFCURVE",
"105 155 CURVE",
"40 117 LINE",
"99 19 OFFCURVE",
"184 -15 OFFCURVE",
"267 -15 CURVE SMOOTH"
);
}
);
userData = {
com.schriftgestaltung.Glyphs.category = Letter;
com.schriftgestaltung.Glyphs.lastChange = "2020/09/03 22:42:33";
com.schriftgestaltung.Glyphs.subCategory = Other;
};
width = 997;
},
{
anchors = (
{
name = top;
position = "{521, 525}";
}
);
associatedMasterId = "1FCF787B-CF33-4B83-BE16-73AC6600FEB7";
background = {
components = (
{
name = "daHigh-lue";
transform = "{1, 0, 0, 1, 409, 0}";
}
);
};
layerId = "F177A4A3-E762-43BB-BBAB-3FA8EC6FAF13";
name = "Feb 28 22, 18:38";
paths = (
{
closed = 1;
nodes = (
"897 -460 OFFCURVE",
"997 -349 OFFCURVE",
"997 -196 CURVE SMOOTH",
"997 -73 OFFCURVE",
"928 30 OFFCURVE",
"804 69 CURVE",
"814 32 LINE",
"917 73 OFFCURVE",
"976 161 OFFCURVE",
"976 274 CURVE SMOOTH",
"976 426 OFFCURVE",
"870 540 OFFCURVE",
"697 540 CURVE SMOOTH",
"583 540 OFFCURVE",
"513 491 OFFCURVE",
"462 430 CURVE",
"537 284 LINE",
"561 369 OFFCURVE",
"620 424 OFFCURVE",
"700 424 CURVE SMOOTH",
"781 424 OFFCURVE",
"826 367 OFFCURVE",
"826 276 CURVE SMOOTH",
"826 162 OFFCURVE",
"768 102 OFFCURVE",
"618 100 CURVE",
"618 -12 LINE",
"784 -13 OFFCURVE",
"853 -72 OFFCURVE",
"853 -182 CURVE SMOOTH",
"853 -283 OFFCURVE",
"797 -341 OFFCURVE",
"698 -341 CURVE SMOOTH",
"622 -341 OFFCURVE",
"573 -302 OFFCURVE",
"537 -235 CURVE",
"414 -307 LINE",
"476 -416 OFFCURVE",
"579 -460 OFFCURVE",
"702 -460 CURVE SMOOTH"
);
},
{
closed = 1;
nodes = (
"458 -15 OFFCURVE",
"565 91 OFFCURVE",
"565 265 CURVE SMOOTH",
"565 428 OFFCURVE",
"445 540 OFFCURVE",
"285 540 CURVE SMOOTH",
"180 540 OFFCURVE",
"100 505 OFFCURVE",
"43 422 CURVE",
"162 349 LINE",
"192 397 OFFCURVE",
"236 424 OFFCURVE",
"285 424 CURVE SMOOTH",
"362 424 OFFCURVE",
"415 362 OFFCURVE",
"415 267 CURVE SMOOTH",
"415 161 OFFCURVE",
"363 101 OFFCURVE",
"279 101 CURVE SMOOTH",
"221 101 OFFCURVE",
"177 130 OFFCURVE",
"149 187 CURVE",
"30 119 LINE",
"83 27 OFFCURVE",
"172 -15 OFFCURVE",
"286 -15 CURVE SMOOTH"
);
}
);
width = 1016;
}
);
leftKerningGroup = aa;
leftMetricsKey = "aaSign-lue";
rightKerningGroup = "3";
rightMetricsKey = "daHigh-lue";
unicode = 1980;
},
{
color = 0;
glyphname = "kaHigh-lue";
lastChange = "2022-03-28 20:02:04 +0000";
layers = (
{
anchors = (
{
name = bottom;
position = "{499, 0}";
}
);
layerId = UUID0;
paths = (
{
closed = 1;
nodes = (
"342 -15 OFFCURVE",
"391 -5 OFFCURVE",
"428 22 CURVE",
"388 79 LINE",
"365 60 OFFCURVE",
"331 53 OFFCURVE",
"303 53 CURVE SMOOTH",
"215 53 OFFCURVE",
"138 120 OFFCURVE",
"138 254 CURVE SMOOTH",
"138 385 OFFCURVE",
"208 458 OFFCURVE",
"303 458 CURVE SMOOTH",
"389 458 OFFCURVE",
"446 395 OFFCURVE",
"458 283 CURVE",
"541 283 LINE",
"552 395 OFFCURVE",
"614 458 OFFCURVE",
"700 458 CURVE SMOOTH",
"792 458 OFFCURVE",
"861 385 OFFCURVE",
"861 254 CURVE SMOOTH",
"861 120 OFFCURVE",
"784 53 OFFCURVE",
"696 53 CURVE SMOOTH",
"668 53 OFFCURVE",
"634 60 OFFCURVE",
"611 79 CURVE",
"571 22 LINE",
"608 -5 OFFCURVE",
"657 -15 OFFCURVE",
"701 -15 CURVE SMOOTH",
"845 -15 OFFCURVE",
"949 93 OFFCURVE",
"949 253 CURVE SMOOTH",
"949 430 OFFCURVE",
"829 525 OFFCURVE",
"700 525 CURVE SMOOTH",
"604 525 OFFCURVE",
"519 471 OFFCURVE",
"492 373 CURVE",
"506 373 LINE",
"480 469 OFFCURVE",
"400 525 OFFCURVE",
"292 525 CURVE SMOOTH",
"162 525 OFFCURVE",
"50 431 OFFCURVE",
"50 253 CURVE SMOOTH",
"50 93 OFFCURVE",
"154 -15 OFFCURVE",
"298 -15 CURVE SMOOTH"
);
}
);
userData = {
com.schriftgestaltung.Glyphs.category = Letter;
com.schriftgestaltung.Glyphs.lastChange = "2020/09/03 22:42:33";
com.schriftgestaltung.Glyphs.subCategory = Other;
};
width = 999;
},
{
anchors = (
{
name = bottom;
position = "{512, 0}";
}
);
layerId = "1FCF787B-CF33-4B83-BE16-73AC6600FEB7";
paths = (
{
closed = 1;
nodes = (
"380 -15 OFFCURVE",
"431 -4 OFFCURVE",
"467 18 CURVE",
"407 131 LINE",
"387 118 OFFCURVE",
"362 111 OFFCURVE",
"328 111 CURVE SMOOTH",
"247 111 OFFCURVE",
"190 168 OFFCURVE",
"190 265 CURVE SMOOTH",
"190 365 OFFCURVE",
"241 418 OFFCURVE",
"317 418 CURVE SMOOTH",
"392 418 OFFCURVE",
"440 355 OFFCURVE",
"445 264 CURVE",
"583 264 LINE",
"588 355 OFFCURVE",
"636 418 OFFCURVE",
"712 418 CURVE SMOOTH",
"787 418 OFFCURVE",
"834 365 OFFCURVE",
"834 265 CURVE SMOOTH",
"834 168 OFFCURVE",
"781 111 OFFCURVE",
"700 111 CURVE SMOOTH",
"666 111 OFFCURVE",
"641 118 OFFCURVE",
"621 131 CURVE",
"557 18 LINE",
"593 -4 OFFCURVE",
"644 -15 OFFCURVE",
"703 -15 CURVE SMOOTH",
"871 -15 OFFCURVE",
"984 98 OFFCURVE",
"984 265 CURVE SMOOTH",
"984 426 OFFCURVE",
"874 540 OFFCURVE",
"714 540 CURVE SMOOTH",
"598 540 OFFCURVE",
"519 486 OFFCURVE",
"482 382 CURVE",
"546 382 LINE",
"509 486 OFFCURVE",
"426 540 OFFCURVE",
"310 540 CURVE SMOOTH",
"150 540 OFFCURVE",
"40 426 OFFCURVE",
"40 265 CURVE SMOOTH",
"40 98 OFFCURVE",
"153 -15 OFFCURVE",
"321 -15 CURVE SMOOTH"
);
}
);
width = 1024;
},
{
associatedMasterId = UUID0;
layerId = "848CDAAB-0A33-4F56-A799-C9C68FA20365";
name = "Jan 21 22, 18:34";
paths = (
{
closed = 1;
nodes = (
"322 -10 OFFCURVE",
"360 -2 OFFCURVE",
"398 20 CURVE",
"358 77 LINE",
"334 63 OFFCURVE",
"308 58 OFFCURVE",
"285 58 CURVE SMOOTH",
"197 58 OFFCURVE",
"140 126 OFFCURVE",
"140 275 CURVE SMOOTH",
"140 404 OFFCURVE",
"193 479 OFFCURVE",
"284 479 CURVE SMOOTH",
"362 479 OFFCURVE",
"407 416 OFFCURVE",
"414 324 CURVE",
"497 324 LINE",
"503 416 OFFCURVE",
"548 479 OFFCURVE",
"626 479 CURVE SMOOTH",
"717 479 OFFCURVE",
"771 404 OFFCURVE",
"771 275 CURVE SMOOTH",
"771 126 OFFCURVE",
"713 58 OFFCURVE",
"625 58 CURVE SMOOTH",
"603 58 OFFCURVE",
"577 63 OFFCURVE",
"552 77 CURVE",
"512 20 LINE",
"550 -2 OFFCURVE",
"588 -10 OFFCURVE",
"629 -10 CURVE SMOOTH",
"744 -10 OFFCURVE",
"860 78 OFFCURVE",
"860 276 CURVE SMOOTH",
"860 451 OFFCURVE",
"756 546 OFFCURVE",
"629 546 CURVE SMOOTH",
"560 546 OFFCURVE",
"474 507 OFFCURVE",
"443 404 CURVE",
"467 404 LINE",
"436 507 OFFCURVE",
"348 546 OFFCURVE",
"281 546 CURVE SMOOTH",
"154 546 OFFCURVE",
"50 451 OFFCURVE",
"50 276 CURVE SMOOTH",
"50 78 OFFCURVE",
"166 -10 OFFCURVE",
"281 -10 CURVE SMOOTH"
);
}
);
userData = {
com.schriftgestaltung.Glyphs.category = Letter;
com.schriftgestaltung.Glyphs.lastChange = "2020/09/03 22:42:33";
com.schriftgestaltung.Glyphs.subCategory = Other;
};
width = 910;
},
{
associatedMasterId = "1FCF787B-CF33-4B83-BE16-73AC6600FEB7";
layerId = "83519EC3-B4EC-49F6-ACB5-F3C6FBC075BB";
name = "Jan 21 22, 18:52";
paths = (
{
closed = 1;
nodes = (
"347 -15 OFFCURVE",
"395 -3 OFFCURVE",
"431 20 CURVE",
"366 125 LINE",
"346 113 OFFCURVE",
"324 106 OFFCURVE",
"302 106 CURVE SMOOTH",
"229 106 OFFCURVE",
"197 161 OFFCURVE",
"197 274 CURVE SMOOTH",
"197 382 OFFCURVE",
"237 442 OFFCURVE",
"312 442 CURVE SMOOTH",
"378 442 OFFCURVE",
"414 389 OFFCURVE",
"417 291 CURVE",
"558 291 LINE",
"561 388 OFFCURVE",
"597 442 OFFCURVE",
"664 442 CURVE SMOOTH",
"737 442 OFFCURVE",
"776 383 OFFCURVE",
"776 277 CURVE SMOOTH",
"776 166 OFFCURVE",
"738 106 OFFCURVE",
"666 106 CURVE SMOOTH",
"643 106 OFFCURVE",
"623 113 OFFCURVE",
"604 126 CURVE",
"538 18 LINE",
"573 -4 OFFCURVE",
"616 -15 OFFCURVE",
"664 -15 CURVE SMOOTH",
"824 -15 OFFCURVE",
"926 99 OFFCURVE",
"926 277 CURVE SMOOTH",
"926 445 OFFCURVE",
"820 560 OFFCURVE",
"668 560 CURVE SMOOTH",
"561 560 OFFCURVE",
"491 507 OFFCURVE",
"453 408 CURVE",
"508 408 LINE",
"471 507 OFFCURVE",
"403 560 OFFCURVE",
"293 560 CURVE SMOOTH",
"143 560 OFFCURVE",
"40 447 OFFCURVE",
"40 281 CURVE SMOOTH",
"40 115 OFFCURVE",
"131 -15 OFFCURVE",
"293 -15 CURVE SMOOTH"
);
}
);
width = 966;
},
{
anchors = (
{
name = bottom;
position = "{492, 0}";
}
);
associatedMasterId = UUID0;
layerId = "043D1EEA-2BCE-41D3-B8EF-80651F6C5E1A";
name = "Feb 2 22, 14:57";
paths = (
{
closed = 1;
nodes = (
"345 -15 OFFCURVE",
"386 -7 OFFCURVE",
"421 15 CURVE",
"383 73 LINE",
"357 58 OFFCURVE",
"329 53 OFFCURVE",
"304 53 CURVE SMOOTH",
"214 53 OFFCURVE",
"140 114 OFFCURVE",
"140 251 CURVE SMOOTH",
"140 382 OFFCURVE",
"206 458 OFFCURVE",
"301 458 CURVE SMOOTH",
"387 458 OFFCURVE",
"444 395 OFFCURVE",
"451 293 CURVE",
"534 293 LINE",
"540 395 OFFCURVE",
"602 458 OFFCURVE",
"688 458 CURVE SMOOTH",
"780 458 OFFCURVE",
"845 382 OFFCURVE",
"845 251 CURVE SMOOTH",
"845 114 OFFCURVE",
"770 53 OFFCURVE",
"680 53 CURVE SMOOTH",
"655 53 OFFCURVE",
"628 58 OFFCURVE",
"603 73 CURVE",
"563 15 LINE",
"598 -7 OFFCURVE",
"641 -15 OFFCURVE",
"681 -15 CURVE SMOOTH",
"827 -15 OFFCURVE",
"934 93 OFFCURVE",
"934 255 CURVE SMOOTH",
"934 427 OFFCURVE",
"817 525 OFFCURVE",
"688 525 CURVE SMOOTH",
"592 525 OFFCURVE",
"507 471 OFFCURVE",
"480 373 CURVE",
"504 373 LINE",
"478 469 OFFCURVE",
"398 525 OFFCURVE",
"290 525 CURVE SMOOTH",
"160 525 OFFCURVE",
"50 428 OFFCURVE",
"50 256 CURVE SMOOTH",
"50 89 OFFCURVE",
"161 -15 OFFCURVE",
"305 -15 CURVE SMOOTH"
);
}
);
userData = {
com.schriftgestaltung.Glyphs.category = Letter;
com.schriftgestaltung.Glyphs.lastChange = "2020/09/03 22:42:33";
com.schriftgestaltung.Glyphs.subCategory = Other;
};
width = 984;
}
);
leftKerningGroup = va;
rightKerningGroup = va;
unicode = 1982;
},
{
color = 0;
glyphname = "xaHigh-lue";
lastChange = "2022-03-28 18:54:37 +0000";
layers = (
{
layerId = "1FCF787B-CF33-4B83-BE16-73AC6600FEB7";
paths = (
{
closed = 1;
nodes = (
"510 -460 OFFCURVE",
"607 -353 OFFCURVE",
"607 -171 CURVE SMOOTH",
"607 -66 LINE SMOOTH",
"607 39 OFFCURVE",
"590 105 OFFCURVE",
"548 166 CURVE",
"452 72 LINE",
"470 41 OFFCURVE",
"473 4 OFFCURVE",
"473 -44 CURVE SMOOTH",
"473 -165 LINE SMOOTH",
"473 -273 OFFCURVE",
"417 -331 OFFCURVE",
"326 -331 CURVE SMOOTH",
"253 -331 OFFCURVE",
"198 -300 OFFCURVE",
"173 -219 CURVE",
"40 -266 LINE",
"82 -401 OFFCURVE",
"190 -460 OFFCURVE",
"328 -460 CURVE SMOOTH"
);
},
{
closed = 1;
nodes = (
"501 -15 OFFCURVE",
"599 108 OFFCURVE",
"599 265 CURVE SMOOTH",
"599 428 OFFCURVE",
"485 540 OFFCURVE",
"306 540 CURVE SMOOTH",
"206 540 OFFCURVE",
"123 505 OFFCURVE",
"66 422 CURVE",
"185 349 LINE",
"215 394 OFFCURVE",
"263 424 OFFCURVE",
"324 424 CURVE SMOOTH",
"406 424 OFFCURVE",
"458 365 OFFCURVE",
"458 259 CURVE SMOOTH",
"458 137 OFFCURVE",
"388 95 OFFCURVE",
"291 95 CURVE SMOOTH",
"241 95 OFFCURVE",
"204 108 OFFCURVE",
"204 141 CURVE SMOOTH",
"204 174 OFFCURVE",
"239 194 OFFCURVE",
"295 194 CURVE SMOOTH",
"356 194 OFFCURVE",
"403 173 OFFCURVE",
"437 124 CURVE",
"500 208 LINE",
"454 273 OFFCURVE",
"375 302 OFFCURVE",
"289 302 CURVE SMOOTH",
"166 302 OFFCURVE",
"70 252 OFFCURVE",
"70 143 CURVE SMOOTH",
"70 38 OFFCURVE",
"165 -15 OFFCURVE",
"300 -15 CURVE SMOOTH"
);
}
);
width = 647;
},
{
associatedMasterId = UUID0;
layerId = "350990F7-AEA2-4A75-B5C8-85517E10A984";
name = "Jan 25 22, 16:10";
paths = (
{
closed = 1;
nodes = (
"400 -278 OFFCURVE",
"481 -154 OFFCURVE",
"481 2 CURVE SMOOTH",
"481 57 OFFCURVE",
"465 105 OFFCURVE",
"439 146 CURVE",
"466 193 OFFCURVE",
"479 248 OFFCURVE",
"479 297 CURVE SMOOTH",
"479 450 OFFCURVE",
"386 546 OFFCURVE",
"248 546 CURVE SMOOTH",
"170 546 OFFCURVE",
"95 522 OFFCURVE",
"43 447 CURVE",
"104 411 LINE",
"138 461 OFFCURVE",
"189 479 OFFCURVE",
"239 479 CURVE SMOOTH",
"307 479 OFFCURVE",
"390 442 OFFCURVE",
"390 304 CURVE SMOOTH",
"390 269 OFFCURVE",
"386 237 OFFCURVE",
"379 209 CURVE",
"337 241 OFFCURVE",
"285 258 OFFCURVE",
"229 258 CURVE SMOOTH",
"140 258 OFFCURVE",
"67 208 OFFCURVE",
"67 140 CURVE SMOOTH",
"67 82 OFFCURVE",
"112 24 OFFCURVE",
"230 24 CURVE SMOOTH",
"292 24 OFFCURVE",
"342 44 OFFCURVE",
"380 75 CURVE",
"388 49 OFFCURVE",
"391 21 OFFCURVE",
"391 -7 CURVE SMOOTH",
"391 -117 OFFCURVE",
"348 -211 OFFCURVE",
"232 -211 CURVE SMOOTH",
"162 -211 OFFCURVE",
"106 -174 OFFCURVE",
"77 -142 CURVE",
"20 -188 LINE",
"55 -230 OFFCURVE",
"126 -278 OFFCURVE",
"232 -278 CURVE SMOOTH"
);
},
{
closed = 1;
nodes = (
"186 92 OFFCURVE",
"149 111 OFFCURVE",
"149 146 CURVE SMOOTH",
"149 177 OFFCURVE",
"189 192 OFFCURVE",
"228 192 CURVE SMOOTH",
"282 192 OFFCURVE",
"321 171 OFFCURVE",
"347 140 CURVE",
"322 109 OFFCURVE",
"285 92 OFFCURVE",
"233 92 CURVE SMOOTH"
);
}
);
userData = {
com.schriftgestaltung.Glyphs.category = Letter;
com.schriftgestaltung.Glyphs.lastChange = "2020/09/03 22:42:33";
com.schriftgestaltung.Glyphs.subCategory = Other;
};
width = 530;
},
{
associatedMasterId = UUID0;
background = {
components = (
{
name = "maLow-lue";
transform = "{1, 0, 0, 1, -48, 0}";
}
);
};
layerId = "2326A361-B462-4049-B9F1-69C28280D526";
name = "Feb 1 22, 13:22";
paths = (
{
closed = 1;
nodes = (
"461 -446 OFFCURVE",
"548 -314 OFFCURVE",
"548 -122 CURVE SMOOTH",
"548 -23 OFFCURVE",
"523 80 OFFCURVE",
"477 139 CURVE",
"424 68 LINE",
"449 38 OFFCURVE",
"466 -33 OFFCURVE",
"466 -114 CURVE SMOOTH",
"466 -258 OFFCURVE",
"413 -376 OFFCURVE",
"281 -376 CURVE SMOOTH",
"194 -376 OFFCURVE",
"137 -328 OFFCURVE",
"106 -270 CURVE",
"40 -312 LINE",
"103 -413 OFFCURVE",
"193 -446 OFFCURVE",
"286 -446 CURVE SMOOTH"
);
},
{
closed = 1;
nodes = (
"399 -15 OFFCURVE",
"528 66 OFFCURVE",
"528 260 CURVE SMOOTH",
"528 440 OFFCURVE",
"404 525 OFFCURVE",
"271 525 CURVE SMOOTH",
"188 525 OFFCURVE",
"112 491 OFFCURVE",
"61 419 CURVE",
"125 375 LINE",
"157 424 OFFCURVE",
"212 458 OFFCURVE",
"277 458 CURVE SMOOTH",
"369 458 OFFCURVE",
"438 385 OFFCURVE",
"438 264 CURVE SMOOTH",
"438 128 OFFCURVE",
"377 51 OFFCURVE",
"257 51 CURVE SMOOTH",
"195 51 OFFCURVE",
"161 74 OFFCURVE",
"161 111 CURVE SMOOTH",
"161 154 OFFCURVE",
"205 179 OFFCURVE",
"268 179 CURVE SMOOTH",
"347 179 OFFCURVE",
"386 145 OFFCURVE",
"409 103 CURVE",
"443 173 LINE",
"400 218 OFFCURVE",
"342 245 OFFCURVE",
"263 245 CURVE SMOOTH",
"156 245 OFFCURVE",
"81 188 OFFCURVE",
"81 112 CURVE SMOOTH",
"81 47 OFFCURVE",
"136 -15 OFFCURVE",
"266 -15 CURVE SMOOTH"
);
}
);
userData = {
com.schriftgestaltung.Glyphs.category = Letter;
com.schriftgestaltung.Glyphs.lastChange = "2020/09/03 22:42:33";
com.schriftgestaltung.Glyphs.subCategory = Other;
};
width = 598;
},
{
associatedMasterId = UUID0;
layerId = "1541A4F2-4BD9-4DA8-B4DA-C4A04A94F870";
name = "Feb 1 22, 15:24";
paths = (
{
closed = 1;
nodes = (
"94 -370 LINE",
"140 -421 OFFCURVE",
"211 -446 OFFCURVE",
"299 -446 CURVE SMOOTH",
"432 -446 OFFCURVE",
"536 -368 OFFCURVE",
"536 -199 CURVE SMOOTH",
"536 -97 LINE SMOOTH",
"536 12 OFFCURVE",
"516 80 OFFCURVE",
"473 139 CURVE",
"416 78 LINE",
"445 43 OFFCURVE",
"456 0 OFFCURVE",
"456 -81 CURVE SMOOTH",
"456 -190 LINE SMOOTH",
"456 -314 OFFCURVE",
"390 -374 OFFCURVE",
"291 -374 CURVE SMOOTH",
"226 -374 OFFCURVE",
"179 -355 OFFCURVE",
"149 -316 CURVE"
);
},
{
closed = 1;
nodes = (
"397 -15 OFFCURVE",
"526 66 OFFCURVE",
"526 260 CURVE SMOOTH",
"526 440 OFFCURVE",
"409 525 OFFCURVE",
"276 525 CURVE SMOOTH",
"188 525 OFFCURVE",
"110 491 OFFCURVE",
"59 419 CURVE",
"123 375 LINE",
"155 424 OFFCURVE",
"212 458 OFFCURVE",
"279 458 CURVE SMOOTH",
"371 458 OFFCURVE",
"436 385 OFFCURVE",
"436 264 CURVE SMOOTH",
"436 128 OFFCURVE",
"375 51 OFFCURVE",
"255 51 CURVE SMOOTH",
"193 51 OFFCURVE",
"159 74 OFFCURVE",
"159 111 CURVE SMOOTH",
"159 151 OFFCURVE",
"203 174 OFFCURVE",
"266 174 CURVE SMOOTH",
"343 174 OFFCURVE",
"389 140 OFFCURVE",
"414 98 CURVE",
"442 170 LINE",
"398 213 OFFCURVE",
"340 240 OFFCURVE",
"261 240 CURVE SMOOTH",
"154 240 OFFCURVE",
"79 185 OFFCURVE",
"79 112 CURVE SMOOTH",
"79 47 OFFCURVE",
"134 -15 OFFCURVE",
"264 -15 CURVE SMOOTH"
);
}
);
userData = {
com.schriftgestaltung.Glyphs.category = Letter;
com.schriftgestaltung.Glyphs.lastChange = "2020/09/03 22:42:33";
com.schriftgestaltung.Glyphs.subCategory = Other;
};
width = 586;
},
{
associatedMasterId = UUID0;
background = {
components = (
{
name = "maLow-lue";
transform = "{1, 0, 0, 1, -46, 0}";
}
);
};
layerId = "8FF26D45-9BE6-4E86-8357-055201740402";
name = "Feb 1 22, 21:42";
paths = (
{
closed = 1;
nodes = (
"431 -446 OFFCURVE",
"536 -368 OFFCURVE",
"536 -189 CURVE SMOOTH",
"536 -70 LINE SMOOTH",
"536 39 OFFCURVE",
"516 100 OFFCURVE",
"473 159 CURVE",
"416 98 LINE",
"445 63 OFFCURVE",
"456 27 OFFCURVE",
"456 -54 CURVE SMOOTH",
"456 -180 LINE SMOOTH",
"456 -314 OFFCURVE",
"389 -374 OFFCURVE",
"283 -374 CURVE SMOOTH",
"196 -374 OFFCURVE",
"139 -330 OFFCURVE",
"112 -241 CURVE",
"40 -267 LINE",
"73 -387 OFFCURVE",
"167 -446 OFFCURVE",
"291 -446 CURVE SMOOTH"
);
},
{
closed = 1;
nodes = (
"399 -15 OFFCURVE",
"528 66 OFFCURVE",
"528 260 CURVE SMOOTH",
"528 440 OFFCURVE",
"404 525 OFFCURVE",
"271 525 CURVE SMOOTH",
"188 525 OFFCURVE",
"112 491 OFFCURVE",
"61 419 CURVE",
"125 375 LINE",
"157 424 OFFCURVE",
"212 458 OFFCURVE",
"277 458 CURVE SMOOTH",
"369 458 OFFCURVE",
"438 385 OFFCURVE",
"438 264 CURVE SMOOTH",
"438 128 OFFCURVE",
"377 51 OFFCURVE",
"257 51 CURVE SMOOTH",
"195 51 OFFCURVE",
"161 74 OFFCURVE",
"161 111 CURVE SMOOTH",
"161 154 OFFCURVE",
"205 179 OFFCURVE",
"268 179 CURVE SMOOTH",
"347 179 OFFCURVE",
"386 145 OFFCURVE",
"409 103 CURVE",
"443 173 LINE",
"400 218 OFFCURVE",
"342 245 OFFCURVE",
"263 245 CURVE SMOOTH",
"156 245 OFFCURVE",
"81 188 OFFCURVE",
"81 112 CURVE SMOOTH",
"81 47 OFFCURVE",
"136 -15 OFFCURVE",
"266 -15 CURVE SMOOTH"
);
}
);
userData = {
com.schriftgestaltung.Glyphs.category = Letter;
com.schriftgestaltung.Glyphs.lastChange = "2020/09/03 22:42:33";
com.schriftgestaltung.Glyphs.subCategory = Other;
};
width = 586;
},
{
associatedMasterId = UUID0;
background = {
components = (
{
name = "maLow-lue";
transform = "{1, 0, 0, 1, -46, 0}";
}
);
};
layerId = "5195E0DA-4E95-4C97-AA65-7FDE88734407";
name = "Feb 2 22, 14:00";
paths = (
{
closed = 1;
nodes = (
"431 -446 OFFCURVE",
"536 -368 OFFCURVE",
"536 -189 CURVE SMOOTH",
"536 -70 LINE SMOOTH",
"536 39 OFFCURVE",
"520 100 OFFCURVE",
"477 159 CURVE",
"420 98 LINE",
"449 63 OFFCURVE",
"456 27 OFFCURVE",
"456 -54 CURVE SMOOTH",
"456 -180 LINE SMOOTH",
"456 -314 OFFCURVE",
"389 -374 OFFCURVE",
"283 -374 CURVE SMOOTH",
"196 -374 OFFCURVE",
"139 -330 OFFCURVE",
"112 -241 CURVE",
"40 -267 LINE",
"73 -387 OFFCURVE",
"167 -446 OFFCURVE",
"291 -446 CURVE SMOOTH"
);
},
{
closed = 1;
nodes = (
"406 -15 OFFCURVE",
"528 66 OFFCURVE",
"528 260 CURVE SMOOTH",
"528 440 OFFCURVE",
"404 525 OFFCURVE",
"271 525 CURVE SMOOTH",
"188 525 OFFCURVE",
"112 491 OFFCURVE",
"61 419 CURVE",
"125 375 LINE",
"157 424 OFFCURVE",
"212 458 OFFCURVE",
"277 458 CURVE SMOOTH",
"369 458 OFFCURVE",
"438 385 OFFCURVE",
"438 264 CURVE SMOOTH",
"438 128 OFFCURVE",
"384 51 OFFCURVE",
"252 51 CURVE SMOOTH",
"184 51 OFFCURVE",
"143 77 OFFCURVE",
"143 122 CURVE SMOOTH",
"143 169 OFFCURVE",
"190 200 OFFCURVE",
"263 200 CURVE SMOOTH",
"343 200 OFFCURVE",
"392 162 OFFCURVE",
"416 120 CURVE",
"450 190 LINE",
"406 235 OFFCURVE",
"338 266 OFFCURVE",
"258 266 CURVE SMOOTH",
"136 266 OFFCURVE",
"58 206 OFFCURVE",
"58 124 CURVE SMOOTH",
"58 51 OFFCURVE",
"123 -15 OFFCURVE",
"261 -15 CURVE SMOOTH"
);
}
);
userData = {
com.schriftgestaltung.Glyphs.category = Letter;
com.schriftgestaltung.Glyphs.lastChange = "2020/09/03 22:42:33";
com.schriftgestaltung.Glyphs.subCategory = Other;
};
width = 586;
},
{
associatedMasterId = UUID0;
background = {
components = (
{
name = "maLow-lue";
transform = "{1, 0, 0, 1, -25, 0}";
}
);
};
layerId = "DB4CAD60-0175-48FE-82A2-4181BDC10724";
name = "Feb 4 22, 16:39";
paths = (
{
closed = 1;
nodes = (
"441 -446 OFFCURVE",
"546 -368 OFFCURVE",
"546 -189 CURVE SMOOTH",
"546 -70 LINE SMOOTH",
"546 39 OFFCURVE",
"530 100 OFFCURVE",
"487 159 CURVE",
"430 98 LINE",
"459 63 OFFCURVE",
"466 27 OFFCURVE",
"466 -54 CURVE SMOOTH",
"466 -180 LINE SMOOTH",
"466 -314 OFFCURVE",
"399 -374 OFFCURVE",
"293 -374 CURVE SMOOTH",
"206 -374 OFFCURVE",
"149 -330 OFFCURVE",
"122 -241 CURVE",
"50 -267 LINE",
"83 -387 OFFCURVE",
"177 -446 OFFCURVE",
"301 -446 CURVE SMOOTH"
);
},
{
closed = 1;
nodes = (
"538 438 OFFCURVE",
"422 525 OFFCURVE",
"283 525 CURVE SMOOTH",
"199 525 OFFCURVE",
"122 491 OFFCURVE",
"71 419 CURVE",
"135 375 LINE",
"167 423 OFFCURVE",
"220 458 OFFCURVE",
"287 458 CURVE SMOOTH",
"385 458 OFFCURVE",
"448 384 OFFCURVE",
"448 260 CURVE SMOOTH",
"448 128 OFFCURVE",
"394 51 OFFCURVE",
"262 51 CURVE SMOOTH",
"194 51 OFFCURVE",
"153 77 OFFCURVE",
"153 122 CURVE SMOOTH",
"153 169 OFFCURVE",
"200 200 OFFCURVE",
"273 200 CURVE SMOOTH",
"353 200 OFFCURVE",
"402 162 OFFCURVE",
"426 120 CURVE",
"460 190 LINE",
"416 235 OFFCURVE",
"348 266 OFFCURVE",
"268 266 CURVE SMOOTH",
"146 266 OFFCURVE",
"68 206 OFFCURVE",
"68 124 CURVE SMOOTH",
"68 51 OFFCURVE",
"133 -15 OFFCURVE",
"271 -15 CURVE SMOOTH",
"416 -15 OFFCURVE",
"538 66 OFFCURVE",
"538 256 CURVE SMOOTH"
);
}
);
userData = {
com.schriftgestaltung.Glyphs.category = Letter;
com.schriftgestaltung.Glyphs.lastChange = "2020/09/03 22:42:33";
com.schriftgestaltung.Glyphs.subCategory = Other;
};
width = 596;
},
{
layerId = UUID0;
paths = (
{
closed = 1;
nodes = (
"441 -446 OFFCURVE",
"546 -368 OFFCURVE",
"546 -189 CURVE SMOOTH",
"546 -70 LINE SMOOTH",
"546 39 OFFCURVE",
"530 102 OFFCURVE",
"487 161 CURVE",
"434 100 LINE",
"463 65 OFFCURVE",
"466 27 OFFCURVE",
"466 -54 CURVE SMOOTH",
"466 -180 LINE SMOOTH",
"466 -314 OFFCURVE",
"399 -374 OFFCURVE",
"293 -374 CURVE SMOOTH",
"206 -374 OFFCURVE",
"149 -330 OFFCURVE",
"122 -241 CURVE",
"50 -267 LINE",
"83 -387 OFFCURVE",
"177 -446 OFFCURVE",
"301 -446 CURVE SMOOTH"
);
},
{
closed = 1;
nodes = (
"417 -15 OFFCURVE",
"538 66 OFFCURVE",
"538 256 CURVE SMOOTH",
"538 438 OFFCURVE",
"422 525 OFFCURVE",
"283 525 CURVE SMOOTH",
"199 525 OFFCURVE",
"122 491 OFFCURVE",
"71 419 CURVE",
"135 375 LINE",
"167 423 OFFCURVE",
"220 458 OFFCURVE",
"288 458 CURVE SMOOTH",
"386 458 OFFCURVE",
"448 388 OFFCURVE",
"448 260 CURVE SMOOTH",
"448 122 OFFCURVE",
"394 51 OFFCURVE",
"262 51 CURVE SMOOTH",
"195 51 OFFCURVE",
"153 77 OFFCURVE",
"153 124 CURVE SMOOTH",
"153 176 OFFCURVE",
"200 205 OFFCURVE",
"273 205 CURVE SMOOTH",
"353 205 OFFCURVE",
"402 167 OFFCURVE",
"426 125 CURVE",
"460 195 LINE",
"416 240 OFFCURVE",
"348 271 OFFCURVE",
"268 271 CURVE SMOOTH",
"146 271 OFFCURVE",
"68 212 OFFCURVE",
"68 126 CURVE SMOOTH",
"68 51 OFFCURVE",
"132 -15 OFFCURVE",
"269 -15 CURVE SMOOTH"
);
}
);
userData = {
com.schriftgestaltung.Glyphs.category = Letter;
com.schriftgestaltung.Glyphs.lastChange = "2020/09/03 22:42:33";
com.schriftgestaltung.Glyphs.subCategory = Other;
};
width = 596;
}
);
leftKerningGroup = "3";
leftMetricsKey = "kaHigh-lue";
rightKerningGroup = "3";
rightMetricsKey = "kaHigh-lue";
unicode = 1983;
},
{
color = 0;
glyphname = "ngaHigh-lue";
lastChange = "2022-02-23 14:39:32 +0000";
layers = (
{
background = {
components = (
{
name = "haHigh-lue";
}
);
};
layerId = "1FCF787B-CF33-4B83-BE16-73AC6600FEB7";
paths = (
{
closed = 1;
nodes = (
"480 -15 OFFCURVE",
"538 92 OFFCURVE",
"602 239 CURVE SMOOTH",
"644 337 OFFCURVE",
"672 420 OFFCURVE",
"758 420 CURVE SMOOTH",
"831 420 OFFCURVE",
"882 367 OFFCURVE",
"882 265 CURVE SMOOTH",
"882 168 OFFCURVE",
"826 111 OFFCURVE",
"741 111 CURVE SMOOTH",
"711 111 OFFCURVE",
"685 118 OFFCURVE",
"665 131 CURVE",
"605 18 LINE",
"641 -4 OFFCURVE",
"693 -15 OFFCURVE",
"747 -15 CURVE SMOOTH",
"920 -15 OFFCURVE",
"1032 98 OFFCURVE",
"1032 266 CURVE SMOOTH",
"1032 427 OFFCURVE",
"928 540 OFFCURVE",
"755 540 CURVE SMOOTH",
"594 540 OFFCURVE",
"526 442 OFFCURVE",
"461 287 CURVE SMOOTH",
"415 177 OFFCURVE",
"388 105 OFFCURVE",
"309 105 CURVE SMOOTH",
"241 105 OFFCURVE",
"190 151 OFFCURVE",
"190 260 CURVE SMOOTH",
"190 360 OFFCURVE",
"242 414 OFFCURVE",
"327 414 CURVE SMOOTH",
"357 414 OFFCURVE",
"383 407 OFFCURVE",
"403 394 CURVE",
"467 507 LINE",
"431 529 OFFCURVE",
"379 540 OFFCURVE",
"325 540 CURVE SMOOTH",
"153 540 OFFCURVE",
"40 430 OFFCURVE",
"40 257 CURVE SMOOTH",
"40 89 OFFCURVE",
"146 -15 OFFCURVE",
"312 -15 CURVE SMOOTH"
);
},
{
closed = 1;
nodes = (
"918 -419 OFFCURVE",
"933 -357 OFFCURVE",
"933 -303 CURVE SMOOTH",
"933 -142 OFFCURVE",
"804 -58 OFFCURVE",
"531 -58 CURVE SMOOTH",
"257 -58 OFFCURVE",
"147 -142 OFFCURVE",
"147 -283 CURVE SMOOTH",
"147 -397 OFFCURVE",
"223 -460 OFFCURVE",
"326 -460 CURVE SMOOTH",
"418 -460 OFFCURVE",
"449 -410 OFFCURVE",
"476 -369 CURVE SMOOTH",
"494 -341 OFFCURVE",
"510 -320 OFFCURVE",
"533 -320 CURVE SMOOTH",
"552 -320 OFFCURVE",
"562 -332 OFFCURVE",
"562 -355 CURVE SMOOTH",
"562 -388 OFFCURVE",
"549 -423 OFFCURVE",
"535 -443 CURVE",
"661 -460 LINE",
"673 -437 OFFCURVE",
"683 -391 OFFCURVE",
"683 -357 CURVE SMOOTH",
"683 -270 OFFCURVE",
"619 -216 OFFCURVE",
"529 -216 CURVE SMOOTH",
"454 -216 OFFCURVE",
"415 -254 OFFCURVE",
"386 -295 CURVE SMOOTH",
"363 -328 OFFCURVE",
"352 -351 OFFCURVE",
"327 -351 CURVE SMOOTH",
"302 -351 OFFCURVE",
"285 -328 OFFCURVE",
"285 -293 CURVE SMOOTH",
"285 -215 OFFCURVE",
"358 -171 OFFCURVE",
"536 -171 CURVE SMOOTH",
"721 -171 OFFCURVE",
"792 -219 OFFCURVE",
"792 -304 CURVE SMOOTH",
"792 -343 OFFCURVE",
"776 -392 OFFCURVE",
"750 -433 CURVE",
"891 -473 LINE"
);
}
);
width = 1072;
},
{
associatedMasterId = UUID0;
layerId = "F77615E8-D796-4861-A262-4653B40FB773";
name = "Jan 26 22, 12:27";
paths = (
{
closed = 1;
nodes = (
"349 -10 OFFCURVE",
"409 95 OFFCURVE",
"455 180 CURVE SMOOTH",
"552 361 LINE SMOOTH",
"590 431 OFFCURVE",
"620 479 OFFCURVE",
"665 479 CURVE SMOOTH",
"722 479 OFFCURVE",
"775 421 OFFCURVE",
"775 278 CURVE SMOOTH",
"775 144 OFFCURVE",
"731 58 OFFCURVE",
"653 58 CURVE SMOOTH",
"616 58 OFFCURVE",
"584 70 OFFCURVE",
"560 105 CURVE",
"510 61 LINE",
"542 19 OFFCURVE",
"591 -10 OFFCURVE",
"654 -10 CURVE SMOOTH",
"764 -10 OFFCURVE",
"865 111 OFFCURVE",
"865 279 CURVE SMOOTH",
"865 444 OFFCURVE",
"777 546 OFFCURVE",
"666 546 CURVE SMOOTH",
"565 546 OFFCURVE",
"505 441 OFFCURVE",
"459 356 CURVE SMOOTH",
"361 175 LINE SMOOTH",
"323 105 OFFCURVE",
"293 58 OFFCURVE",
"249 58 CURVE SMOOTH",
"192 58 OFFCURVE",
"139 115 OFFCURVE",
"139 258 CURVE SMOOTH",
"139 392 OFFCURVE",
"183 479 OFFCURVE",
"261 479 CURVE SMOOTH",
"297 479 OFFCURVE",
"329 466 OFFCURVE",
"354 431 CURVE",
"403 476 LINE",
"372 518 OFFCURVE",
"323 546 OFFCURVE",
"259 546 CURVE SMOOTH",
"150 546 OFFCURVE",
"49 425 OFFCURVE",
"49 257 CURVE SMOOTH",
"49 92 OFFCURVE",
"137 -10 OFFCURVE",
"248 -10 CURVE SMOOTH"
);
},
{
closed = 1;
nodes = (
"667 -293 OFFCURVE",
"744 -223 OFFCURVE",
"744 -161 CURVE SMOOTH",
"744 -92 OFFCURVE",
"677 -39 OFFCURVE",
"503 -39 CURVE SMOOTH",
"388 -39 OFFCURVE",
"310 -76 OFFCURVE",
"310 -123 CURVE SMOOTH",
"310 -162 OFFCURVE",
"360 -188 OFFCURVE",
"436 -188 CURVE SMOOTH",
"459 -188 OFFCURVE",
"485 -185 OFFCURVE",
"504 -180 CURVE",
"485 -131 LINE",
"470 -133 OFFCURVE",
"450 -134 OFFCURVE",
"439 -134 CURVE SMOOTH",
"412 -134 OFFCURVE",
"383 -129 OFFCURVE",
"383 -118 CURVE SMOOTH",
"383 -108 OFFCURVE",
"417 -98 OFFCURVE",
"505 -98 CURVE SMOOTH",
"615 -98 OFFCURVE",
"671 -114 OFFCURVE",
"671 -159 CURVE SMOOTH",
"671 -193 OFFCURVE",
"618 -234 OFFCURVE",
"462 -234 CURVE SMOOTH",
"356 -234 OFFCURVE",
"237 -205 OFFCURVE",
"150 -144 CURVE",
"116 -192 LINE",
"164 -232 OFFCURVE",
"284 -293 OFFCURVE",
"461 -293 CURVE SMOOTH"
);
}
);
userData = {
com.schriftgestaltung.Glyphs.category = Letter;
com.schriftgestaltung.Glyphs.lastChange = "2020/09/03 22:42:33";
com.schriftgestaltung.Glyphs.subCategory = Other;
};
width = 914;
},
{
associatedMasterId = UUID0;
layerId = "50E3FCD5-B1BE-4E7B-868A-4436C6B835B2";
name = "Jan 26 22, 18:07";
paths = (
{
closed = 1;
nodes = (
"887 -10 OFFCURVE",
"984 102 OFFCURVE",
"984 259 CURVE SMOOTH",
"984 419 OFFCURVE",
"885 525 OFFCURVE",
"740 525 CURVE SMOOTH",
"585 525 OFFCURVE",
"520 426 OFFCURVE",
"475 271 CURVE SMOOTH",
"439 148 OFFCURVE",
"409 65 OFFCURVE",
"300 65 CURVE SMOOTH",
"210 65 OFFCURVE",
"142 136 OFFCURVE",
"142 264 CURVE SMOOTH",
"142 389 OFFCURVE",
"219 457 OFFCURVE",
"309 457 CURVE SMOOTH",
"334 457 OFFCURVE",
"360 452 OFFCURVE",
"382 437 CURVE",
"422 495 LINE",
"387 517 OFFCURVE",
"344 525 OFFCURVE",
"305 525 CURVE SMOOTH",
"159 525 OFFCURVE",
"50 420 OFFCURVE",
"50 261 CURVE SMOOTH",
"50 91 OFFCURVE",
"168 -5 OFFCURVE",
"299 -5 CURVE SMOOTH",
"453 -5 OFFCURVE",
"505 82 OFFCURVE",
"555 241 CURVE SMOOTH",
"591 362 OFFCURVE",
"629 455 OFFCURVE",
"743 455 CURVE SMOOTH",
"837 455 OFFCURVE",
"895 387 OFFCURVE",
"895 267 CURVE SMOOTH",
"895 129 OFFCURVE",
"823 58 OFFCURVE",
"740 58 CURVE SMOOTH",
"714 58 OFFCURVE",
"684 65 OFFCURVE",
"661 84 CURVE",
"621 27 LINE",
"658 0 OFFCURVE",
"703 -10 OFFCURVE",
"745 -10 CURVE SMOOTH"
);
},
{
closed = 1;
nodes = (
"767 -452 OFFCURVE",
"903 -398 OFFCURVE",
"903 -243 CURVE SMOOTH",
"903 -116 OFFCURVE",
"814 -33 OFFCURVE",
"586 -33 CURVE SMOOTH",
"401 -33 OFFCURVE",
"315 -99 OFFCURVE",
"315 -199 CURVE SMOOTH",
"315 -272 OFFCURVE",
"369 -323 OFFCURVE",
"448 -323 CURVE SMOOTH",
"571 -323 OFFCURVE",
"566 -207 OFFCURVE",
"636 -207 CURVE SMOOTH",
"658 -207 OFFCURVE",
"668 -220 OFFCURVE",
"668 -238 CURVE SMOOTH",
"668 -258 OFFCURVE",
"655 -285 OFFCURVE",
"633 -308 CURVE",
"702 -320 LINE",
"723 -293 OFFCURVE",
"734 -263 OFFCURVE",
"734 -235 CURVE SMOOTH",
"734 -186 OFFCURVE",
"700 -146 OFFCURVE",
"632 -146 CURVE SMOOTH",
"524 -146 OFFCURVE",
"521 -261 OFFCURVE",
"445 -261 CURVE SMOOTH",
"419 -261 OFFCURVE",
"392 -246 OFFCURVE",
"392 -203 CURVE SMOOTH",
"392 -127 OFFCURVE",
"469 -97 OFFCURVE",
"605 -97 CURVE SMOOTH",
"778 -97 OFFCURVE",
"828 -158 OFFCURVE",
"828 -241 CURVE SMOOTH",
"828 -347 OFFCURVE",
"718 -384 OFFCURVE",
"573 -384 CURVE SMOOTH",
"472 -384 OFFCURVE",
"384 -366 OFFCURVE",
"326 -332 CURVE",
"290 -395 LINE",
"360 -432 OFFCURVE",
"457 -452 OFFCURVE",
"569 -452 CURVE SMOOTH"
);
}
);
userData = {
com.schriftgestaltung.Glyphs.category = Letter;
com.schriftgestaltung.Glyphs.lastChange = "2020/09/03 22:42:33";
com.schriftgestaltung.Glyphs.subCategory = Other;
};
width = 1034;
},
{
associatedMasterId = UUID0;
layerId = "379A0DF4-06E1-49E9-8F03-DA9F3D1E46D4";
name = "Jan 26 22, 18:16";
paths = (
{
closed = 1;
nodes = (
"887 -10 OFFCURVE",
"984 102 OFFCURVE",
"984 259 CURVE SMOOTH",
"984 419 OFFCURVE",
"885 525 OFFCURVE",
"740 525 CURVE SMOOTH",
"585 525 OFFCURVE",
"520 426 OFFCURVE",
"475 271 CURVE SMOOTH",
"439 148 OFFCURVE",
"409 65 OFFCURVE",
"300 65 CURVE SMOOTH",
"210 65 OFFCURVE",
"142 136 OFFCURVE",
"142 264 CURVE SMOOTH",
"142 389 OFFCURVE",
"219 457 OFFCURVE",
"309 457 CURVE SMOOTH",
"334 457 OFFCURVE",
"360 452 OFFCURVE",
"382 437 CURVE",
"422 495 LINE",
"387 517 OFFCURVE",
"344 525 OFFCURVE",
"305 525 CURVE SMOOTH",
"159 525 OFFCURVE",
"50 420 OFFCURVE",
"50 261 CURVE SMOOTH",
"50 91 OFFCURVE",
"168 -5 OFFCURVE",
"299 -5 CURVE SMOOTH",
"453 -5 OFFCURVE",
"505 82 OFFCURVE",
"555 241 CURVE SMOOTH",
"591 362 OFFCURVE",
"629 455 OFFCURVE",
"743 455 CURVE SMOOTH",
"837 455 OFFCURVE",
"895 387 OFFCURVE",
"895 267 CURVE SMOOTH",
"895 129 OFFCURVE",
"823 58 OFFCURVE",
"740 58 CURVE SMOOTH",
"714 58 OFFCURVE",
"684 65 OFFCURVE",
"661 84 CURVE",
"621 27 LINE",
"658 0 OFFCURVE",
"703 -10 OFFCURVE",
"745 -10 CURVE SMOOTH"
);
},
{
closed = 1;
nodes = (
"848 -456 LINE",
"879 -403 OFFCURVE",
"895 -345 OFFCURVE",
"895 -292 CURVE SMOOTH",
"895 -130 OFFCURVE",
"763 -53 OFFCURVE",
"565 -53 CURVE SMOOTH",
"371 -53 OFFCURVE",
"262 -120 OFFCURVE",
"262 -243 CURVE SMOOTH",
"262 -336 OFFCURVE",
"332 -393 OFFCURVE",
"401 -393 CURVE SMOOTH",
"494 -393 OFFCURVE",
"501 -255 OFFCURVE",
"570 -255 CURVE SMOOTH",
"595 -255 OFFCURVE",
"607 -270 OFFCURVE",
"607 -296 CURVE SMOOTH",
"607 -319 OFFCURVE",
"594 -349 OFFCURVE",
"572 -372 CURVE",
"643 -384 LINE",
"663 -357 OFFCURVE",
"675 -326 OFFCURVE",
"675 -294 CURVE SMOOTH",
"675 -236 OFFCURVE",
"639 -191 OFFCURVE",
"566 -191 CURVE SMOOTH",
"448 -191 OFFCURVE",
"443 -328 OFFCURVE",
"391 -328 CURVE SMOOTH",
"366 -328 OFFCURVE",
"338 -302 OFFCURVE",
"338 -249 CURVE SMOOTH",
"338 -146 OFFCURVE",
"449 -117 OFFCURVE",
"579 -117 CURVE SMOOTH",
"719 -117 OFFCURVE",
"821 -170 OFFCURVE",
"821 -283 CURVE SMOOTH",
"821 -331 OFFCURVE",
"807 -384 OFFCURVE",
"777 -429 CURVE"
);
}
);
userData = {
com.schriftgestaltung.Glyphs.category = Letter;
com.schriftgestaltung.Glyphs.lastChange = "2020/09/03 22:42:33";
com.schriftgestaltung.Glyphs.subCategory = Other;
};
width = 1034;
},
{
associatedMasterId = UUID0;
layerId = "71E52A82-8EB6-4ED6-9227-28CBB6043DE9";
name = "Jan 27 22, 16:30";
paths = (
{
closed = 1;
nodes = (
"887 -10 OFFCURVE",
"984 102 OFFCURVE",
"984 259 CURVE SMOOTH",
"984 419 OFFCURVE",
"885 525 OFFCURVE",
"740 525 CURVE SMOOTH",
"585 525 OFFCURVE",
"520 426 OFFCURVE",
"475 271 CURVE SMOOTH",
"439 148 OFFCURVE",
"409 65 OFFCURVE",
"300 65 CURVE SMOOTH",
"210 65 OFFCURVE",
"142 136 OFFCURVE",
"142 264 CURVE SMOOTH",
"142 389 OFFCURVE",
"219 457 OFFCURVE",
"309 457 CURVE SMOOTH",
"334 457 OFFCURVE",
"360 452 OFFCURVE",
"382 437 CURVE",
"422 495 LINE",
"387 517 OFFCURVE",
"344 525 OFFCURVE",
"305 525 CURVE SMOOTH",
"159 525 OFFCURVE",
"50 420 OFFCURVE",
"50 261 CURVE SMOOTH",
"50 91 OFFCURVE",
"168 -5 OFFCURVE",
"299 -5 CURVE SMOOTH",
"453 -5 OFFCURVE",
"505 82 OFFCURVE",
"555 241 CURVE SMOOTH",
"591 362 OFFCURVE",
"629 455 OFFCURVE",
"743 455 CURVE SMOOTH",
"837 455 OFFCURVE",
"895 387 OFFCURVE",
"895 267 CURVE SMOOTH",
"895 129 OFFCURVE",
"823 58 OFFCURVE",
"740 58 CURVE SMOOTH",
"714 58 OFFCURVE",
"684 65 OFFCURVE",
"661 84 CURVE",
"621 27 LINE",
"658 0 OFFCURVE",
"703 -10 OFFCURVE",
"745 -10 CURVE SMOOTH"
);
},
{
closed = 1;
nodes = (
"756 -452 LINE",
"847 -422 OFFCURVE",
"890 -354 OFFCURVE",
"890 -282 CURVE SMOOTH",
"890 -116 OFFCURVE",
"710 -46 OFFCURVE",
"510 -46 CURVE SMOOTH",
"256 -46 OFFCURVE",
"150 -132 OFFCURVE",
"150 -256 CURVE SMOOTH",
"150 -356 OFFCURVE",
"216 -410 OFFCURVE",
"291 -410 CURVE SMOOTH",
"407 -410 OFFCURVE",
"404 -246 OFFCURVE",
"497 -246 CURVE SMOOTH",
"531 -246 OFFCURVE",
"547 -268 OFFCURVE",
"547 -303 CURVE SMOOTH",
"547 -329 OFFCURVE",
"534 -371 OFFCURVE",
"517 -398 CURVE",
"595 -411 LINE",
"609 -381 OFFCURVE",
"621 -343 OFFCURVE",
"621 -305 CURVE SMOOTH",
"621 -233 OFFCURVE",
"580 -176 OFFCURVE",
"492 -176 CURVE SMOOTH",
"355 -176 OFFCURVE",
"344 -341 OFFCURVE",
"279 -341 CURVE SMOOTH",
"251 -341 OFFCURVE",
"230 -316 OFFCURVE",
"230 -262 CURVE SMOOTH",
"230 -158 OFFCURVE",
"338 -112 OFFCURVE",
"528 -112 CURVE SMOOTH",
"673 -112 OFFCURVE",
"808 -156 OFFCURVE",
"808 -275 CURVE SMOOTH",
"808 -325 OFFCURVE",
"780 -366 OFFCURVE",
"718 -388 CURVE"
);
}
);
userData = {
com.schriftgestaltung.Glyphs.category = Letter;
com.schriftgestaltung.Glyphs.lastChange = "2020/09/03 22:42:33";
com.schriftgestaltung.Glyphs.subCategory = Other;
};
width = 1034;
},
{
background = {
components = (
{
name = "haHigh-lue";
}
);
};
layerId = UUID0;
paths = (
{
closed = 1;
nodes = (
"452 -15 OFFCURVE",
"513 85 OFFCURVE",
"563 239 CURVE SMOOTH",
"603 362 OFFCURVE",
"640 455 OFFCURVE",
"752 455 CURVE SMOOTH",
"841 455 OFFCURVE",
"910 384 OFFCURVE",
"910 254 CURVE SMOOTH",
"910 117 OFFCURVE",
"833 53 OFFCURVE",
"735 53 CURVE SMOOTH",
"707 53 OFFCURVE",
"673 60 OFFCURVE",
"650 79 CURVE",
"610 22 LINE",
"647 -5 OFFCURVE",
"696 -15 OFFCURVE",
"740 -15 CURVE SMOOTH",
"894 -15 OFFCURVE",
"998 93 OFFCURVE",
"998 253 CURVE SMOOTH",
"998 429 OFFCURVE",
"883 525 OFFCURVE",
"753 525 CURVE SMOOTH",
"596 525 OFFCURVE",
"538 428 OFFCURVE",
"483 269 CURVE SMOOTH",
"442 149 OFFCURVE",
"410 56 OFFCURVE",
"296 56 CURVE SMOOTH",
"204 56 OFFCURVE",
"138 127 OFFCURVE",
"138 256 CURVE SMOOTH",
"138 390 OFFCURVE",
"215 457 OFFCURVE",
"303 457 CURVE SMOOTH",
"331 457 OFFCURVE",
"365 450 OFFCURVE",
"388 431 CURVE",
"428 488 LINE",
"391 515 OFFCURVE",
"342 525 OFFCURVE",
"298 525 CURVE SMOOTH",
"154 525 OFFCURVE",
"50 417 OFFCURVE",
"50 257 CURVE SMOOTH",
"50 93 OFFCURVE",
"150 -15 OFFCURVE",
"295 -15 CURVE SMOOTH"
);
},
{
closed = 1;
nodes = (
"868 -404 OFFCURVE",
"884 -346 OFFCURVE",
"884 -293 CURVE SMOOTH",
"884 -143 OFFCURVE",
"773 -58 OFFCURVE",
"510 -58 CURVE SMOOTH",
"282 -58 OFFCURVE",
"169 -138 OFFCURVE",
"169 -281 CURVE SMOOTH",
"169 -384 OFFCURVE",
"236 -446 OFFCURVE",
"314 -446 CURVE SMOOTH",
"386 -446 OFFCURVE",
"413 -394 OFFCURVE",
"438 -348 CURVE SMOOTH",
"458 -311 OFFCURVE",
"474 -278 OFFCURVE",
"511 -278 CURVE SMOOTH",
"544 -278 OFFCURVE",
"558 -304 OFFCURVE",
"558 -338 CURVE SMOOTH",
"558 -365 OFFCURVE",
"543 -407 OFFCURVE",
"518 -434 CURVE",
"596 -447 LINE",
"618 -417 OFFCURVE",
"632 -379 OFFCURVE",
"632 -341 CURVE SMOOTH",
"632 -272 OFFCURVE",
"590 -211 OFFCURVE",
"506 -211 CURVE SMOOTH",
"429 -211 OFFCURVE",
"399 -266 OFFCURVE",
"374 -314 CURVE SMOOTH",
"356 -349 OFFCURVE",
"338 -380 OFFCURVE",
"306 -380 CURVE SMOOTH",
"274 -380 OFFCURVE",
"248 -349 OFFCURVE",
"248 -287 CURVE SMOOTH",
"248 -167 OFFCURVE",
"364 -128 OFFCURVE",
"524 -128 CURVE SMOOTH",
"704 -128 OFFCURVE",
"807 -181 OFFCURVE",
"807 -284 CURVE SMOOTH",
"807 -332 OFFCURVE",
"793 -385 OFFCURVE",
"764 -430 CURVE",
"837 -457 LINE"
);
}
);
userData = {
com.schriftgestaltung.Glyphs.category = Letter;
com.schriftgestaltung.Glyphs.lastChange = "2020/09/03 22:42:33";
com.schriftgestaltung.Glyphs.subCategory = Other;
};
width = 1048;
},
{
associatedMasterId = UUID0;
background = {
components = (
{
name = "haHigh-lue";
}
);
};
layerId = "A9A7A209-044B-4B1F-BB6C-3646392C8EB5";
name = "Jan 28 22, 14:56";
paths = (
{
closed = 1;
nodes = (
"887 -10 OFFCURVE",
"984 102 OFFCURVE",
"984 259 CURVE SMOOTH",
"984 419 OFFCURVE",
"885 525 OFFCURVE",
"740 525 CURVE SMOOTH",
"585 525 OFFCURVE",
"520 426 OFFCURVE",
"475 271 CURVE SMOOTH",
"439 148 OFFCURVE",
"409 65 OFFCURVE",
"300 65 CURVE SMOOTH",
"210 65 OFFCURVE",
"142 136 OFFCURVE",
"142 264 CURVE SMOOTH",
"142 389 OFFCURVE",
"219 457 OFFCURVE",
"309 457 CURVE SMOOTH",
"334 457 OFFCURVE",
"360 452 OFFCURVE",
"382 437 CURVE",
"422 495 LINE",
"387 517 OFFCURVE",
"344 525 OFFCURVE",
"305 525 CURVE SMOOTH",
"159 525 OFFCURVE",
"50 420 OFFCURVE",
"50 261 CURVE SMOOTH",
"50 91 OFFCURVE",
"168 -5 OFFCURVE",
"299 -5 CURVE SMOOTH",
"453 -5 OFFCURVE",
"505 82 OFFCURVE",
"555 241 CURVE SMOOTH",
"591 362 OFFCURVE",
"629 455 OFFCURVE",
"743 455 CURVE SMOOTH",
"837 455 OFFCURVE",
"895 387 OFFCURVE",
"895 267 CURVE SMOOTH",
"895 129 OFFCURVE",
"823 58 OFFCURVE",
"740 58 CURVE SMOOTH",
"714 58 OFFCURVE",
"684 65 OFFCURVE",
"661 84 CURVE",
"621 27 LINE",
"658 0 OFFCURVE",
"703 -10 OFFCURVE",
"745 -10 CURVE SMOOTH"
);
},
{
closed = 1;
nodes = (
"837 -457 LINE",
"868 -404 OFFCURVE",
"884 -346 OFFCURVE",
"884 -293 CURVE SMOOTH",
"884 -143 OFFCURVE",
"743 -62 OFFCURVE",
"505 -62 CURVE SMOOTH",
"261 -62 OFFCURVE",
"139 -150 OFFCURVE",
"139 -282 CURVE SMOOTH",
"139 -383 OFFCURVE",
"211 -446 OFFCURVE",
"286 -446 CURVE SMOOTH",
"412 -446 OFFCURVE",
"401 -278 OFFCURVE",
"499 -278 CURVE SMOOTH",
"533 -278 OFFCURVE",
"548 -304 OFFCURVE",
"548 -338 CURVE SMOOTH",
"548 -365 OFFCURVE",
"533 -407 OFFCURVE",
"508 -434 CURVE",
"586 -447 LINE",
"608 -417 OFFCURVE",
"622 -379 OFFCURVE",
"622 -341 CURVE SMOOTH",
"622 -272 OFFCURVE",
"578 -213 OFFCURVE",
"493 -213 CURVE SMOOTH",
"352 -213 OFFCURVE",
"351 -381 OFFCURVE",
"276 -381 CURVE SMOOTH",
"244 -381 OFFCURVE",
"218 -349 OFFCURVE",
"218 -288 CURVE SMOOTH",
"218 -176 OFFCURVE",
"339 -128 OFFCURVE",
"519 -128 CURVE SMOOTH",
"699 -128 OFFCURVE",
"808 -183 OFFCURVE",
"808 -284 CURVE SMOOTH",
"808 -332 OFFCURVE",
"794 -385 OFFCURVE",
"764 -430 CURVE"
);
}
);
userData = {
com.schriftgestaltung.Glyphs.category = Letter;
com.schriftgestaltung.Glyphs.lastChange = "2020/09/03 22:42:33";
com.schriftgestaltung.Glyphs.subCategory = Other;
};
width = 1034;
}
);
leftKerningGroup = va;
leftMetricsKey = "haHigh-lue";
rightKerningGroup = va;
rightMetricsKey = "haHigh-lue";
unicode = 1984;
},
{
color = 0;
glyphname = "kaLow-lue";
lastChange = "2022-02-15 20:19:53 +0000";
layers = (
{
anchors = (
{
name = bottom;
position = "{313, 0}";
}
);
layerId = UUID0;
paths = (
{
closed = 1;
nodes = (
"249 60 LINE",
"188 80 OFFCURVE",
"138 139 OFFCURVE",
"138 253 CURVE SMOOTH",
"138 378 OFFCURVE",
"202 459 OFFCURVE",
"312 459 CURVE SMOOTH",
"422 459 OFFCURVE",
"488 378 OFFCURVE",
"488 253 CURVE SMOOTH",
"488 139 OFFCURVE",
"434 79 OFFCURVE",
"373 60 CURVE",
"404 -10 LINE",
"506 37 OFFCURVE",
"576 126 OFFCURVE",
"576 252 CURVE SMOOTH",
"576 403 OFFCURVE",
"467 526 OFFCURVE",
"312 525 CURVE SMOOTH",
"157 524 OFFCURVE",
"50 403 OFFCURVE",
"50 252 CURVE SMOOTH",
"50 133 OFFCURVE",
"118 40 OFFCURVE",
"221 -10 CURVE"
);
}
);
userData = {
com.schriftgestaltung.Glyphs.category = Letter;
com.schriftgestaltung.Glyphs.lastChange = "2020/09/03 22:42:33";
com.schriftgestaltung.Glyphs.subCategory = Other;
};
width = 626;
},
{
anchors = (
{
name = bottom;
position = "{327, 0}";
}
);
layerId = "1FCF787B-CF33-4B83-BE16-73AC6600FEB7";
paths = (
{
closed = 1;
nodes = (
"292 100 LINE",
"228 129 OFFCURVE",
"190 177 OFFCURVE",
"190 265 CURVE SMOOTH",
"190 362 OFFCURVE",
"242 428 OFFCURVE",
"327 428 CURVE SMOOTH",
"412 428 OFFCURVE",
"464 362 OFFCURVE",
"464 265 CURVE SMOOTH",
"464 177 OFFCURVE",
"426 129 OFFCURVE",
"362 100 CURVE",
"417 -15 LINE",
"544 39 OFFCURVE",
"614 130 OFFCURVE",
"614 263 CURVE SMOOTH",
"614 433 OFFCURVE",
"493 540 OFFCURVE",
"327 540 CURVE SMOOTH",
"161 540 OFFCURVE",
"40 432 OFFCURVE",
"40 262 CURVE SMOOTH",
"40 129 OFFCURVE",
"110 39 OFFCURVE",
"237 -15 CURVE"
);
}
);
width = 654;
},
{
associatedMasterId = UUID0;
layerId = "CA27543F-9236-42CD-99DD-00EA3F3A5A57";
name = "Jan 22 22, 19:24";
paths = (
{
closed = 1;
nodes = (
"239 61 LINE",
"178 86 OFFCURVE",
"140 156 OFFCURVE",
"140 273 CURVE SMOOTH",
"140 396 OFFCURVE",
"191 479 OFFCURVE",
"307 479 CURVE SMOOTH",
"411 479 OFFCURVE",
"474 407 OFFCURVE",
"474 273 CURVE SMOOTH",
"474 156 OFFCURVE",
"436 86 OFFCURVE",
"375 61 CURVE",
"402 -5 LINE",
"482 39 OFFCURVE",
"564 122 OFFCURVE",
"564 263 CURVE SMOOTH",
"564 421 OFFCURVE",
"452 546 OFFCURVE",
"307 546 CURVE SMOOTH",
"160 546 OFFCURVE",
"50 426 OFFCURVE",
"50 263 CURVE SMOOTH",
"50 134 OFFCURVE",
"121 43 OFFCURVE",
"211 -5 CURVE"
);
}
);
userData = {
com.schriftgestaltung.Glyphs.category = Letter;
com.schriftgestaltung.Glyphs.lastChange = "2020/09/03 22:42:33";
com.schriftgestaltung.Glyphs.subCategory = Other;
};
width = 614;
},
{
associatedMasterId = "1FCF787B-CF33-4B83-BE16-73AC6600FEB7";
layerId = "D6AD886E-ABDD-43B1-A1AF-D9F20E75698C";
name = "Jan 24 22, 16:17";
paths = (
{
closed = 1;
nodes = (
"287 90 LINE",
"226 116 OFFCURVE",
"195 165 OFFCURVE",
"195 257 CURVE SMOOTH",
"195 362 OFFCURVE",
"242 427 OFFCURVE",
"336 427 CURVE SMOOTH",
"424 427 OFFCURVE",
"471 360 OFFCURVE",
"471 257 CURVE SMOOTH",
"471 165 OFFCURVE",
"440 116 OFFCURVE",
"379 90 CURVE",
"428 -15 LINE",
"553 46 OFFCURVE",
"622 129 OFFCURVE",
"622 257 CURVE SMOOTH",
"622 425 OFFCURVE",
"499 540 OFFCURVE",
"332 540 CURVE SMOOTH",
"158 540 OFFCURVE",
"40 428 OFFCURVE",
"40 257 CURVE SMOOTH",
"40 130 OFFCURVE",
"111 40 OFFCURVE",
"242 -15 CURVE"
);
}
);
width = 662;
},
{
anchors = (
{
name = bottom;
position = "{313, 0}";
}
);
associatedMasterId = UUID0;
layerId = "76D31E42-4DDE-4A64-A51B-B0EF1518F9DE";
name = "Feb 1 22, 20:51";
paths = (
{
closed = 1;
nodes = (
"249 56 LINE",
"188 81 OFFCURVE",
"140 148 OFFCURVE",
"140 263 CURVE SMOOTH",
"140 372 OFFCURVE",
"197 459 OFFCURVE",
"313 459 CURVE SMOOTH",
"417 459 OFFCURVE",
"486 383 OFFCURVE",
"486 263 CURVE SMOOTH",
"486 148 OFFCURVE",
"438 81 OFFCURVE",
"377 56 CURVE",
"404 -10 LINE",
"484 34 OFFCURVE",
"576 114 OFFCURVE",
"576 253 CURVE SMOOTH",
"576 397 OFFCURVE",
"460 525 OFFCURVE",
"313 525 CURVE SMOOTH",
"164 525 OFFCURVE",
"50 402 OFFCURVE",
"50 253 CURVE SMOOTH",
"50 126 OFFCURVE",
"131 38 OFFCURVE",
"221 -10 CURVE"
);
}
);
userData = {
com.schriftgestaltung.Glyphs.category = Letter;
com.schriftgestaltung.Glyphs.lastChange = "2020/09/03 22:42:33";
com.schriftgestaltung.Glyphs.subCategory = Other;
};
width = 626;
},
{
associatedMasterId = "1FCF787B-CF33-4B83-BE16-73AC6600FEB7";
layerId = "4926256F-C032-49C3-9FEE-7D052FDFE370";
name = "Feb 9 22, 20:45";
paths = (
{
closed = 1;
nodes = (
"281 88 LINE",
"220 118 OFFCURVE",
"191 174 OFFCURVE",
"191 260 CURVE SMOOTH",
"191 359 OFFCURVE",
"245 426 OFFCURVE",
"328 426 CURVE SMOOTH",
"411 426 OFFCURVE",
"460 360 OFFCURVE",
"460 262 CURVE SMOOTH",
"460 171 OFFCURVE",
"429 117 OFFCURVE",
"370 88 CURVE",
"419 -15 LINE",
"546 42 OFFCURVE",
"614 132 OFFCURVE",
"614 258 CURVE SMOOTH",
"614 418 OFFCURVE",
"490 540 OFFCURVE",
"322 540 CURVE SMOOTH",
"165 540 OFFCURVE",
"40 425 OFFCURVE",
"40 257 CURVE SMOOTH",
"40 135 OFFCURVE",
"103 41 OFFCURVE",
"236 -15 CURVE"
);
}
);
width = 654;
}
);
leftKerningGroup = va;
leftMetricsKey = "kaHigh-lue";
rightKerningGroup = va;
rightMetricsKey = "kaHigh-lue";
unicode = 1985;
},
{
color = 0;
glyphname = "xaLow-lue";
lastChange = "2022-03-02 17:27:27 +0000";
layers = (
{
anchors = (
{
name = bottom;
position = "{333, 0}";
}
);
background = {
components = (
{
name = "kaLow-lue";
transform = "{1, 0, 0, 1, 15, 0}";
}
);
};
layerId = UUID0;
paths = (
{
closed = 1;
nodes = (
"147 406 LINE",
"147 659 LINE SMOOTH",
"147 797 OFFCURVE",
"203 890 OFFCURVE",
"337 890 CURVE SMOOTH",
"429 890 OFFCURVE",
"481 845 OFFCURVE",
"509 756 CURVE",
"582 781 LINE",
"549 901 OFFCURVE",
"461 960 OFFCURVE",
"330 960 CURVE SMOOTH",
"151 960 OFFCURVE",
"65 843 OFFCURVE",
"65 671 CURVE SMOOTH",
"65 253 LINE"
);
},
{
closed = 1;
nodes = (
"264 60 LINE",
"203 80 OFFCURVE",
"153 139 OFFCURVE",
"153 253 CURVE SMOOTH",
"153 381 OFFCURVE",
"219 459 OFFCURVE",
"333 459 CURVE SMOOTH",
"439 459 OFFCURVE",
"503 378 OFFCURVE",
"503 253 CURVE SMOOTH",
"503 139 OFFCURVE",
"449 79 OFFCURVE",
"388 60 CURVE",
"419 -10 LINE",
"521 37 OFFCURVE",
"591 126 OFFCURVE",
"591 252 CURVE SMOOTH",
"591 403 OFFCURVE",
"482 526 OFFCURVE",
"327 525 CURVE SMOOTH",
"172 524 OFFCURVE",
"65 389 OFFCURVE",
"65 252 CURVE SMOOTH",
"65 133 OFFCURVE",
"133 40 OFFCURVE",
"236 -10 CURVE"
);
}
);
userData = {
com.schriftgestaltung.Glyphs.category = Letter;
com.schriftgestaltung.Glyphs.lastChange = "2020/09/03 22:42:33";
com.schriftgestaltung.Glyphs.subCategory = Other;
};
width = 641;
},
{
anchors = (
{
name = bottom;
position = "{328, 0}";
}
);
background = {
components = (
{
name = "kaLow-lue";
transform = "{1, 0, 0, 1, 10, 0}";
}
);
};
layerId = "1FCF787B-CF33-4B83-BE16-73AC6600FEB7";
paths = (
{
closed = 1;
nodes = (
"186 397 LINE",
"186 652 LINE SMOOTH",
"186 785 OFFCURVE",
"245 850 OFFCURVE",
"349 850 CURVE SMOOTH",
"429 850 OFFCURVE",
"468 815 OFFCURVE",
"492 735 CURVE",
"624 775 LINE",
"583 918 OFFCURVE",
"491 975 OFFCURVE",
"342 975 CURVE SMOOTH",
"154 975 OFFCURVE",
"50 865 OFFCURVE",
"50 671 CURVE SMOOTH",
"50 262 LINE"
);
},
{
closed = 1;
nodes = (
"302 100 LINE",
"238 129 OFFCURVE",
"200 177 OFFCURVE",
"200 265 CURVE SMOOTH",
"200 365 OFFCURVE",
"253 428 OFFCURVE",
"341 428 CURVE SMOOTH",
"425 428 OFFCURVE",
"474 362 OFFCURVE",
"474 265 CURVE SMOOTH",
"474 177 OFFCURVE",
"436 129 OFFCURVE",
"372 100 CURVE",
"427 -15 LINE",
"554 39 OFFCURVE",
"624 130 OFFCURVE",
"624 263 CURVE SMOOTH",
"624 433 OFFCURVE",
"502 540 OFFCURVE",
"345 540 CURVE SMOOTH",
"168 540 OFFCURVE",
"50 412 OFFCURVE",
"50 262 CURVE SMOOTH",
"50 129 OFFCURVE",
"120 39 OFFCURVE",
"247 -15 CURVE"
);
}
);
width = 664;
},
{
associatedMasterId = UUID0;
layerId = "6B0EE155-DED5-480F-9A8F-3733EFBAAF24";
name = "Jan 24 22, 16:59";
paths = (
{
closed = 1;
nodes = (
"239 63 LINE",
"149 111 OFFCURVE",
"136 205 OFFCURVE",
"136 313 CURVE SMOOTH",
"136 352 LINE SMOOTH",
"136 420 OFFCURVE",
"201 479 OFFCURVE",
"292 479 CURVE SMOOTH",
"396 479 OFFCURVE",
"459 407 OFFCURVE",
"459 273 CURVE SMOOTH",
"459 156 OFFCURVE",
"421 89 OFFCURVE",
"360 63 CURVE",
"387 -5 LINE",
"468 39 OFFCURVE",
"549 126 OFFCURVE",
"549 268 CURVE SMOOTH",
"549 451 OFFCURVE",
"431 546 OFFCURVE",
"292 546 CURVE SMOOTH",
"234 546 OFFCURVE",
"181 524 OFFCURVE",
"140 489 CURVE",
"150 671 OFFCURVE",
"189 782 OFFCURVE",
"317 782 CURVE SMOOTH",
"357 782 OFFCURVE",
"417 763 OFFCURVE",
"444 713 CURVE",
"509 764 LINE",
"456 832 OFFCURVE",
"387 850 OFFCURVE",
"330 850 CURVE SMOOTH",
"164 850 OFFCURVE",
"49 689 OFFCURVE",
"49 414 CURVE SMOOTH",
"49 328 LINE SMOOTH",
"49 171 OFFCURVE",
"89 54 OFFCURVE",
"211 -5 CURVE"
);
}
);
userData = {
com.schriftgestaltung.Glyphs.category = Letter;
com.schriftgestaltung.Glyphs.lastChange = "2020/09/03 22:42:33";
com.schriftgestaltung.Glyphs.subCategory = Other;
};
width = 598;
},
{
associatedMasterId = UUID0;
layerId = "98180C94-60AB-425D-B186-9857F1FB7D34";
name = "Jan 24 22, 19:57";
paths = (
{
closed = 1;
nodes = (
"259 56 LINE",
"198 81 OFFCURVE",
"150 148 OFFCURVE",
"150 263 CURVE SMOOTH",
"150 372 OFFCURVE",
"207 459 OFFCURVE",
"324 459 CURVE SMOOTH",
"427 459 OFFCURVE",
"496 383 OFFCURVE",
"496 263 CURVE SMOOTH",
"496 148 OFFCURVE",
"448 81 OFFCURVE",
"387 56 CURVE",
"414 -10 LINE",
"494 34 OFFCURVE",
"586 114 OFFCURVE",
"586 253 CURVE SMOOTH",
"586 397 OFFCURVE",
"470 525 OFFCURVE",
"323 525 CURVE SMOOTH",
"176 525 OFFCURVE",
"60 392 OFFCURVE",
"60 253 CURVE SMOOTH",
"60 126 OFFCURVE",
"141 38 OFFCURVE",
"231 -10 CURVE"
);
},
{
closed = 1;
nodes = (
"142 406 LINE",
"142 649 LINE SMOOTH",
"142 791 OFFCURVE",
"202 888 OFFCURVE",
"349 888 CURVE SMOOTH",
"418 888 OFFCURVE",
"453 866 OFFCURVE",
"500 815 CURVE",
"561 857 LINE",
"506 925 OFFCURVE",
"430 960 OFFCURVE",
"339 960 CURVE SMOOTH",
"149 960 OFFCURVE",
"60 841 OFFCURVE",
"60 647 CURVE SMOOTH",
"60 253 LINE"
);
}
);
userData = {
com.schriftgestaltung.Glyphs.category = Letter;
com.schriftgestaltung.Glyphs.lastChange = "2020/09/03 22:42:33";
com.schriftgestaltung.Glyphs.subCategory = Other;
};
width = 636;
},
{
associatedMasterId = UUID0;
layerId = "814A69CF-7F28-418C-9498-996A73DA0368";
name = "Jan 24 22, 20:01";
paths = (
{
closed = 1;
nodes = (
"142 406 LINE",
"142 601 LINE SMOOTH",
"142 765 OFFCURVE",
"180 886 OFFCURVE",
"342 886 CURVE SMOOTH",
"453 886 OFFCURVE",
"506 833 OFFCURVE",
"519 721 CURVE",
"593 746 LINE",
"583 889 OFFCURVE",
"483 959 OFFCURVE",
"336 959 CURVE SMOOTH",
"131 959 OFFCURVE",
"60 820 OFFCURVE",
"60 614 CURVE SMOOTH",
"60 253 LINE"
);
},
{
closed = 1;
nodes = (
"259 56 LINE",
"198 81 OFFCURVE",
"150 148 OFFCURVE",
"150 263 CURVE SMOOTH",
"150 372 OFFCURVE",
"210 459 OFFCURVE",
"332 459 CURVE SMOOTH",
"435 459 OFFCURVE",
"504 383 OFFCURVE",
"504 263 CURVE SMOOTH",
"504 148 OFFCURVE",
"456 81 OFFCURVE",
"395 56 CURVE",
"422 -10 LINE",
"502 34 OFFCURVE",
"594 114 OFFCURVE",
"594 253 CURVE SMOOTH",
"594 397 OFFCURVE",
"478 525 OFFCURVE",
"331 525 CURVE SMOOTH",
"179 525 OFFCURVE",
"60 392 OFFCURVE",
"60 253 CURVE SMOOTH",
"60 126 OFFCURVE",
"141 38 OFFCURVE",
"231 -10 CURVE"
);
}
);
userData = {
com.schriftgestaltung.Glyphs.category = Letter;
com.schriftgestaltung.Glyphs.lastChange = "2020/09/03 22:42:33";
com.schriftgestaltung.Glyphs.subCategory = Other;
};
width = 636;
},
{
anchors = (
{
name = bottom;
position = "{338, 0}";
}
);
associatedMasterId = UUID0;
layerId = "107DFE73-0F47-4EA0-A24C-F2818C414A37";
name = "Feb 1 22, 20:52";
paths = (
{
closed = 1;
nodes = (
"269 56 LINE",
"208 81 OFFCURVE",
"160 148 OFFCURVE",
"160 263 CURVE SMOOTH",
"160 372 OFFCURVE",
"220 459 OFFCURVE",
"342 459 CURVE SMOOTH",
"445 459 OFFCURVE",
"514 383 OFFCURVE",
"514 263 CURVE SMOOTH",
"514 148 OFFCURVE",
"466 81 OFFCURVE",
"405 56 CURVE",
"432 -10 LINE",
"512 34 OFFCURVE",
"604 114 OFFCURVE",
"604 253 CURVE SMOOTH",
"604 397 OFFCURVE",
"488 525 OFFCURVE",
"341 525 CURVE SMOOTH",
"189 525 OFFCURVE",
"70 392 OFFCURVE",
"70 253 CURVE SMOOTH",
"70 126 OFFCURVE",
"151 38 OFFCURVE",
"241 -10 CURVE"
);
},
{
closed = 1;
nodes = (
"596 781 LINE",
"563 901 OFFCURVE",
"470 960 OFFCURVE",
"343 960 CURVE SMOOTH",
"140 960 OFFCURVE",
"70 821 OFFCURVE",
"70 615 CURVE SMOOTH",
"70 253 LINE",
"152 406 LINE",
"152 602 LINE SMOOTH",
"152 766 OFFCURVE",
"189 887 OFFCURVE",
"350 887 CURVE SMOOTH",
"440 887 OFFCURVE",
"494 845 OFFCURVE",
"521 756 CURVE"
);
}
);
userData = {
com.schriftgestaltung.Glyphs.category = Letter;
com.schriftgestaltung.Glyphs.lastChange = "2020/09/03 22:42:33";
com.schriftgestaltung.Glyphs.subCategory = Other;
};
width = 654;
},
{
anchors = (
{
name = bottom;
position = "{328, 0}";
}
);
associatedMasterId = "1FCF787B-CF33-4B83-BE16-73AC6600FEB7";
background = {
components = (
{
name = "kaLow-lue";
transform = "{1, 0, 0, 1, 10, 0}";
}
);
};
layerId = "4E67BF77-911A-4289-BD34-4AC03E184B55";
name = "Feb 10 22, 11:57";
paths = (
{
closed = 1;
nodes = (
"291 88 LINE",
"230 118 OFFCURVE",
"201 174 OFFCURVE",
"201 260 CURVE SMOOTH",
"201 359 OFFCURVE",
"255 427 OFFCURVE",
"338 427 CURVE SMOOTH",
"421 427 OFFCURVE",
"470 360 OFFCURVE",
"470 262 CURVE SMOOTH",
"470 171 OFFCURVE",
"439 117 OFFCURVE",
"380 88 CURVE",
"429 -15 LINE",
"556 42 OFFCURVE",
"624 132 OFFCURVE",
"624 258 CURVE SMOOTH",
"624 418 OFFCURVE",
"500 540 OFFCURVE",
"336 540 CURVE SMOOTH",
"185 540 OFFCURVE",
"50 405 OFFCURVE",
"50 257 CURVE SMOOTH",
"50 135 OFFCURVE",
"113 41 OFFCURVE",
"246 -15 CURVE"
);
},
{
closed = 1;
nodes = (
"184 397 LINE",
"184 644 LINE SMOOTH",
"184 780 OFFCURVE",
"256 843 OFFCURVE",
"360 843 CURVE SMOOTH",
"426 843 OFFCURVE",
"461 824 OFFCURVE",
"506 767 CURVE",
"624 847 LINE",
"560 934 OFFCURVE",
"466 974 OFFCURVE",
"351 974 CURVE SMOOTH",
"164 974 OFFCURVE",
"50 853 OFFCURVE",
"50 639 CURVE SMOOTH",
"50 257 LINE"
);
}
);
width = 664;
},
{
anchors = (
{
name = bottom;
position = "{333, 0}";
}
);
associatedMasterId = UUID0;
background = {
components = (
{
name = "kaLow-lue";
transform = "{1, 0, 0, 1, 15, 0}";
}
);
};
layerId = "4CCFAC62-7309-42E7-AF26-3D0A41853D7E";
name = "Feb 25 22, 16:51";
paths = (
{
closed = 1;
nodes = (
"147 406 LINE",
"147 656 LINE SMOOTH",
"147 796 OFFCURVE",
"194 890 OFFCURVE",
"339 890 CURVE SMOOTH",
"426 890 OFFCURVE",
"480 845 OFFCURVE",
"508 756 CURVE",
"581 781 LINE",
"548 901 OFFCURVE",
"459 960 OFFCURVE",
"328 960 CURVE SMOOTH",
"142 960 OFFCURVE",
"65 843 OFFCURVE",
"65 671 CURVE SMOOTH",
"65 253 LINE"
);
},
{
closed = 1;
nodes = (
"264 60 LINE",
"203 80 OFFCURVE",
"153 139 OFFCURVE",
"153 253 CURVE SMOOTH",
"153 381 OFFCURVE",
"219 459 OFFCURVE",
"333 459 CURVE SMOOTH",
"439 459 OFFCURVE",
"503 378 OFFCURVE",
"503 253 CURVE SMOOTH",
"503 139 OFFCURVE",
"449 79 OFFCURVE",
"388 60 CURVE",
"419 -10 LINE",
"521 37 OFFCURVE",
"591 126 OFFCURVE",
"591 252 CURVE SMOOTH",
"591 403 OFFCURVE",
"482 526 OFFCURVE",
"327 525 CURVE SMOOTH",
"172 524 OFFCURVE",
"65 389 OFFCURVE",
"65 252 CURVE SMOOTH",
"65 133 OFFCURVE",
"133 40 OFFCURVE",
"236 -10 CURVE"
);
}
);
userData = {
com.schriftgestaltung.Glyphs.category = Letter;
com.schriftgestaltung.Glyphs.lastChange = "2020/09/03 22:42:33";
com.schriftgestaltung.Glyphs.subCategory = Other;
};
width = 641;
}
);
leftKerningGroup = xa;
rightKerningGroup = va;
rightMetricsKey = "kaHigh-lue";
unicode = 1986;
},
{
color = 0;
glyphname = "ngaLow-lue";
lastChange = "2022-03-28 20:02:04 +0000";
layers = (
{
layerId = UUID0;
paths = (
{
closed = 1;
nodes = (
"498 -446 OFFCURVE",
"605 -368 OFFCURVE",
"605 -189 CURVE SMOOTH",
"605 218 LINE SMOOTH",
"605 413 OFFCURVE",
"504 525 OFFCURVE",
"325 525 CURVE SMOOTH",
"166 525 OFFCURVE",
"63 417 OFFCURVE",
"61 254 CURVE SMOOTH",
"60 143 LINE SMOOTH",
"59 47 OFFCURVE",
"96 -15 OFFCURVE",
"176 -15 CURVE SMOOTH",
"269 -15 OFFCURVE",
"283 65 OFFCURVE",
"293 131 CURVE SMOOTH",
"301 184 OFFCURVE",
"310 222 OFFCURVE",
"348 222 CURVE SMOOTH",
"381 222 OFFCURVE",
"396 190 OFFCURVE",
"396 143 CURVE SMOOTH",
"396 87 OFFCURVE",
"373 33 OFFCURVE",
"342 -2 CURVE",
"423 -17 LINE",
"447 21 OFFCURVE",
"468 70 OFFCURVE",
"468 139 CURVE SMOOTH",
"468 231 OFFCURVE",
"425 295 OFFCURVE",
"341 295 CURVE SMOOTH",
"260 295 OFFCURVE",
"232 234 OFFCURVE",
"220 143 CURVE SMOOTH",
"214 96 OFFCURVE",
"205 53 OFFCURVE",
"172 53 CURVE SMOOTH",
"149 53 OFFCURVE",
"141 70 OFFCURVE",
"141 125 CURVE SMOOTH",
"141 241 LINE SMOOTH",
"141 375 OFFCURVE",
"219 455 OFFCURVE",
"332 455 CURVE SMOOTH",
"460 455 OFFCURVE",
"525 369 OFFCURVE",
"525 222 CURVE SMOOTH",
"525 -183 LINE SMOOTH",
"525 -314 OFFCURVE",
"456 -374 OFFCURVE",
"341 -374 CURVE SMOOTH",
"248 -374 OFFCURVE",
"185 -330 OFFCURVE",
"158 -241 CURVE",
"86 -267 LINE",
"119 -387 OFFCURVE",
"217 -446 OFFCURVE",
"348 -446 CURVE SMOOTH"
);
}
);
userData = {
com.schriftgestaltung.Glyphs.category = Letter;
com.schriftgestaltung.Glyphs.lastChange = "2020/09/03 22:42:33";
com.schriftgestaltung.Glyphs.subCategory = Other;
};
width = 665;
},
{
layerId = "1FCF787B-CF33-4B83-BE16-73AC6600FEB7";
paths = (
{
closed = 1;
nodes = (
"561 -460 OFFCURVE",
"670 -361 OFFCURVE",
"670 -167 CURVE SMOOTH",
"670 223 LINE SMOOTH",
"670 417 OFFCURVE",
"549 540 OFFCURVE",
"349 540 CURVE SMOOTH",
"166 540 OFFCURVE",
"53 416 OFFCURVE",
"51 255 CURVE SMOOTH",
"50 158 LINE SMOOTH",
"49 49 OFFCURVE",
"108 -15 OFFCURVE",
"200 -15 CURVE SMOOTH",
"305 -15 OFFCURVE",
"324 70 OFFCURVE",
"334 134 CURVE SMOOTH",
"341 178 OFFCURVE",
"346 213 OFFCURVE",
"369 213 CURVE SMOOTH",
"386 213 OFFCURVE",
"392 197 OFFCURVE",
"392 164 CURVE SMOOTH",
"392 109 OFFCURVE",
"367 44 OFFCURVE",
"342 4 CURVE",
"463 -19 LINE",
"487 33 OFFCURVE",
"502 91 OFFCURVE",
"502 156 CURVE SMOOTH",
"502 268 OFFCURVE",
"445 328 OFFCURVE",
"362 328 CURVE SMOOTH",
"252 328 OFFCURVE",
"234 232 OFFCURVE",
"222 167 CURVE SMOOTH",
"215 130 OFFCURVE",
"212 97 OFFCURVE",
"195 97 CURVE SMOOTH",
"183 97 OFFCURVE",
"180 106 OFFCURVE",
"180 135 CURVE SMOOTH",
"180 242 LINE SMOOTH",
"180 349 OFFCURVE",
"250 418 OFFCURVE",
"357 418 CURVE SMOOTH",
"466 418 OFFCURVE",
"536 351 OFFCURVE",
"536 226 CURVE SMOOTH",
"536 -154 LINE SMOOTH",
"536 -279 OFFCURVE",
"468 -331 OFFCURVE",
"358 -331 CURVE SMOOTH",
"271 -331 OFFCURVE",
"219 -300 OFFCURVE",
"194 -219 CURVE",
"61 -266 LINE",
"105 -404 OFFCURVE",
"207 -460 OFFCURVE",
"365 -460 CURVE SMOOTH"
);
}
);
width = 720;
},
{
associatedMasterId = UUID0;
layerId = "200B1053-E966-41EC-8463-A6584DAAFECA";
name = "Jan 24 22, 18:44";
paths = (
{
closed = 1;
nodes = (
"496 -278 OFFCURVE",
"598 -83 OFFCURVE",
"598 166 CURVE SMOOTH",
"598 393 OFFCURVE",
"499 546 OFFCURVE",
"314 546 CURVE SMOOTH",
"181 546 OFFCURVE",
"49 440 OFFCURVE",
"49 241 CURVE SMOOTH",
"49 59 OFFCURVE",
"102 -10 OFFCURVE",
"173 -10 CURVE SMOOTH",
"274 -10 OFFCURVE",
"270 121 OFFCURVE",
"305 121 CURVE SMOOTH",
"319 121 OFFCURVE",
"333 96 OFFCURVE",
"333 42 CURVE SMOOTH",
"333 29 OFFCURVE",
"333 15 OFFCURVE",
"332 0 CURVE",
"405 33 LINE",
"406 45 OFFCURVE",
"406 56 OFFCURVE",
"406 67 CURVE SMOOTH",
"406 142 OFFCURVE",
"374 188 OFFCURVE",
"315 188 CURVE SMOOTH",
"238 188 OFFCURVE",
"223 58 OFFCURVE",
"180 58 CURVE SMOOTH",
"153 58 OFFCURVE",
"139 106 OFFCURVE",
"139 252 CURVE SMOOTH",
"139 385 OFFCURVE",
"198 479 OFFCURVE",
"312 479 CURVE SMOOTH",
"427 479 OFFCURVE",
"508 395 OFFCURVE",
"508 166 CURVE SMOOTH",
"508 -17 OFFCURVE",
"486 -211 OFFCURVE",
"307 -211 CURVE SMOOTH",
"286 -211 OFFCURVE",
"254 -203 OFFCURVE",
"238 -194 CURVE",
"206 -259 LINE",
"239 -274 OFFCURVE",
"277 -278 OFFCURVE",
"305 -278 CURVE SMOOTH"
);
}
);
userData = {
com.schriftgestaltung.Glyphs.category = Letter;
com.schriftgestaltung.Glyphs.lastChange = "2020/09/03 22:42:33";
com.schriftgestaltung.Glyphs.subCategory = Other;
};
width = 646;
},
{
associatedMasterId = UUID0;
layerId = "DD362F95-8535-4A3F-B311-BFD1DD1F8DA2";
name = "Jan 24 22, 19:43";
paths = (
{
closed = 1;
nodes = (
"618 -422 OFFCURVE",
"618 -200 OFFCURVE",
"618 -83 CURVE SMOOTH",
"618 148 LINE SMOOTH",
"618 381 OFFCURVE",
"522 525 OFFCURVE",
"334 525 CURVE SMOOTH",
"160 525 OFFCURVE",
"60 403 OFFCURVE",
"60 233 CURVE SMOOTH",
"60 101 OFFCURVE",
"121 -6 OFFCURVE",
"209 -6 CURVE SMOOTH",
"261 -6 OFFCURVE",
"282 32 OFFCURVE",
"302 80 CURVE SMOOTH",
"317 115 OFFCURVE",
"329 150 OFFCURVE",
"365 150 CURVE SMOOTH",
"394 150 OFFCURVE",
"408 128 OFFCURVE",
"408 95 CURVE SMOOTH",
"408 58 OFFCURVE",
"394 25 OFFCURVE",
"376 -5 CURVE",
"447 -20 LINE",
"465 13 OFFCURVE",
"477 57 OFFCURVE",
"477 93 CURVE SMOOTH",
"477 169 OFFCURVE",
"431 221 OFFCURVE",
"361 221 CURVE SMOOTH",
"294 221 OFFCURVE",
"271 174 OFFCURVE",
"251 126 CURVE SMOOTH",
"239 98 OFFCURVE",
"226 61 OFFCURVE",
"205 61 CURVE SMOOTH",
"177 61 OFFCURVE",
"150 122 OFFCURVE",
"150 217 CURVE SMOOTH",
"150 365 OFFCURVE",
"215 456 OFFCURVE",
"339 456 CURVE SMOOTH",
"449 456 OFFCURVE",
"540 384 OFFCURVE",
"540 153 CURVE SMOOTH",
"540 -67 LINE SMOOTH",
"540 -192 OFFCURVE",
"540 -350 OFFCURVE",
"325 -350 CURVE SMOOTH",
"228 -350 OFFCURVE",
"165 -318 OFFCURVE",
"156 -194 CURVE",
"82 -219 LINE",
"90 -375 OFFCURVE",
"203 -422 OFFCURVE",
"334 -422 CURVE SMOOTH"
);
}
);
userData = {
com.schriftgestaltung.Glyphs.category = Letter;
com.schriftgestaltung.Glyphs.lastChange = "2020/09/03 22:42:33";
com.schriftgestaltung.Glyphs.subCategory = Other;
};
width = 688;
},
{
associatedMasterId = UUID0;
layerId = "4DD740DC-70CD-48CC-BFB4-B0C17E6D8576";
name = "Feb 1 22, 16:43";
paths = (
{
closed = 1;
nodes = (
"529 -446 OFFCURVE",
"603 -330 OFFCURVE",
"603 -107 CURVE SMOOTH",
"603 178 LINE SMOOTH",
"603 393 OFFCURVE",
"500 525 OFFCURVE",
"318 525 CURVE SMOOTH",
"145 525 OFFCURVE",
"50 400 OFFCURVE",
"50 227 CURVE SMOOTH",
"50 100 OFFCURVE",
"94 -7 OFFCURVE",
"190 -7 CURVE SMOOTH",
"254 -7 OFFCURVE",
"272 37 OFFCURVE",
"290 90 CURVE SMOOTH",
"300 119 OFFCURVE",
"313 157 OFFCURVE",
"346 157 CURVE SMOOTH",
"375 157 OFFCURVE",
"386 131 OFFCURVE",
"386 98 CURVE SMOOTH",
"386 60 OFFCURVE",
"372 25 OFFCURVE",
"354 -5 CURVE",
"428 -20 LINE",
"446 13 OFFCURVE",
"458 57 OFFCURVE",
"458 95 CURVE SMOOTH",
"458 171 OFFCURVE",
"415 230 OFFCURVE",
"341 230 CURVE SMOOTH",
"270 230 OFFCURVE",
"248 177 OFFCURVE",
"230 129 CURVE SMOOTH",
"217 94 OFFCURVE",
"209 64 OFFCURVE",
"183 64 CURVE SMOOTH",
"157 64 OFFCURVE",
"136 113 OFFCURVE",
"136 208 CURVE SMOOTH",
"136 362 OFFCURVE",
"193 457 OFFCURVE",
"324 457 CURVE SMOOTH",
"460 457 OFFCURVE",
"521 349 OFFCURVE",
"521 183 CURVE SMOOTH",
"521 -91 LINE SMOOTH",
"521 -271 OFFCURVE",
"485 -376 OFFCURVE",
"328 -376 CURVE SMOOTH",
"225 -376 OFFCURVE",
"167 -327 OFFCURVE",
"140 -213 CURVE",
"68 -239 LINE",
"96 -380 OFFCURVE",
"191 -446 OFFCURVE",
"328 -446 CURVE SMOOTH"
);
}
);
userData = {
com.schriftgestaltung.Glyphs.category = Letter;
com.schriftgestaltung.Glyphs.lastChange = "2020/09/03 22:42:33";
com.schriftgestaltung.Glyphs.subCategory = Other;
};
width = 663;
},
{
associatedMasterId = UUID0;
layerId = "57D6B339-1986-437D-B59B-3A01ADB0BD6C";
name = "Feb 1 22, 16:54";
paths = (
{
closed = 1;
nodes = (
"529 -446 OFFCURVE",
"603 -330 OFFCURVE",
"603 -107 CURVE SMOOTH",
"603 178 LINE SMOOTH",
"603 393 OFFCURVE",
"500 525 OFFCURVE",
"318 525 CURVE SMOOTH",
"145 525 OFFCURVE",
"50 400 OFFCURVE",
"50 227 CURVE SMOOTH",
"50 100 OFFCURVE",
"94 -7 OFFCURVE",
"190 -7 CURVE SMOOTH",
"320 -7 OFFCURVE",
"254 226 OFFCURVE",
"348 226 CURVE SMOOTH",
"381 226 OFFCURVE",
"393 187 OFFCURVE",
"393 141 CURVE SMOOTH",
"393 82 OFFCURVE",
"374 44 OFFCURVE",
"348 -5 CURVE",
"424 -20 LINE",
"450 28 OFFCURVE",
"464 76 OFFCURVE",
"464 133 CURVE SMOOTH",
"464 250 OFFCURVE",
"412 299 OFFCURVE",
"341 299 CURVE SMOOTH",
"185 299 OFFCURVE",
"241 64 OFFCURVE",
"183 64 CURVE SMOOTH",
"157 64 OFFCURVE",
"136 113 OFFCURVE",
"136 208 CURVE SMOOTH",
"136 362 OFFCURVE",
"193 456 OFFCURVE",
"325 456 CURVE SMOOTH",
"460 456 OFFCURVE",
"521 349 OFFCURVE",
"521 183 CURVE SMOOTH",
"521 -91 LINE SMOOTH",
"521 -271 OFFCURVE",
"485 -376 OFFCURVE",
"328 -376 CURVE SMOOTH",
"225 -376 OFFCURVE",
"167 -327 OFFCURVE",
"140 -213 CURVE",
"68 -239 LINE",
"96 -380 OFFCURVE",
"191 -446 OFFCURVE",
"328 -446 CURVE SMOOTH"
);
}
);
userData = {
com.schriftgestaltung.Glyphs.category = Letter;
com.schriftgestaltung.Glyphs.lastChange = "2020/09/03 22:42:33";
com.schriftgestaltung.Glyphs.subCategory = Other;
};
width = 663;
}
);
leftKerningGroup = nga;
rightKerningGroup = q;
unicode = 1987;
},
{
color = 0;
glyphname = "tsaHigh-lue";
lastChange = "2022-04-04 21:26:32 +0000";
layers = (
{
background = {
components = (
{
name = "yaHigh-lue";
}
);
};
layerId = UUID0;
paths = (
{
closed = 1;
nodes = (
"471 -15 OFFCURVE",
"566 101 OFFCURVE",
"566 255 CURVE SMOOTH",
"566 409 OFFCURVE",
"465 525 OFFCURVE",
"270 525 CURVE SMOOTH",
"112 525 OFFCURVE",
"60 456 OFFCURVE",
"60 382 CURVE SMOOTH",
"60 307 OFFCURVE",
"115 271 OFFCURVE",
"177 253 CURVE",
"178 272 LINE",
"111 253 OFFCURVE",
"60 213 OFFCURVE",
"60 139 CURVE SMOOTH",
"60 43 OFFCURVE",
"140 -15 OFFCURVE",
"280 -15 CURVE SMOOTH"
);
},
{
closed = 1;
nodes = (
"198 51 OFFCURVE",
"148 76 OFFCURVE",
"148 138 CURVE SMOOTH",
"148 189 OFFCURVE",
"184 226 OFFCURVE",
"277 226 CURVE SMOOTH",
"301 226 LINE",
"301 285 LINE",
"237 285 OFFCURVE",
"146 298 OFFCURVE",
"146 374 CURVE SMOOTH",
"146 425 OFFCURVE",
"185 459 OFFCURVE",
"280 459 CURVE SMOOTH",
"412 459 OFFCURVE",
"478 389 OFFCURVE",
"478 255 CURVE SMOOTH",
"478 117 OFFCURVE",
"413 51 OFFCURVE",
"282 51 CURVE SMOOTH"
);
}
);
userData = {
com.schriftgestaltung.Glyphs.category = Letter;
com.schriftgestaltung.Glyphs.lastChange = "2020/09/03 22:42:33";
com.schriftgestaltung.Glyphs.subCategory = Other;
};
width = 616;
},
{
background = {
components = (
{
name = "yaHigh-lue";
transform = "{1, 0, 0, 1, 15, 0}";
}
);
};
layerId = "1FCF787B-CF33-4B83-BE16-73AC6600FEB7";
paths = (
{
closed = 1;
nodes = (
"491 -15 OFFCURVE",
"616 82 OFFCURVE",
"616 260 CURVE SMOOTH",
"616 438 OFFCURVE",
"489 540 OFFCURVE",
"281 540 CURVE SMOOTH",
"135 540 OFFCURVE",
"50 476 OFFCURVE",
"50 383 CURVE SMOOTH",
"50 316 OFFCURVE",
"91 272 OFFCURVE",
"185 250 CURVE",
"185 271 LINE",
"91 253 OFFCURVE",
"50 207 OFFCURVE",
"50 139 CURVE SMOOTH",
"50 40 OFFCURVE",
"143 -15 OFFCURVE",
"301 -15 CURVE SMOOTH"
);
},
{
closed = 1;
nodes = (
"229 94 OFFCURVE",
"201 112 OFFCURVE",
"201 148 CURVE SMOOTH",
"201 182 OFFCURVE",
"231 201 OFFCURVE",
"304 201 CURVE SMOOTH",
"340 201 LINE",
"340 310 LINE",
"247 310 OFFCURVE",
"200 322 OFFCURVE",
"200 366 CURVE SMOOTH",
"200 401 OFFCURVE",
"228 431 OFFCURVE",
"300 431 CURVE SMOOTH",
"417 431 OFFCURVE",
"466 376 OFFCURVE",
"466 261 CURVE SMOOTH",
"466 142 OFFCURVE",
"417 94 OFFCURVE",
"300 94 CURVE SMOOTH"
);
}
);
width = 656;
},
{
associatedMasterId = UUID0;
layerId = "DCE1256D-C228-4BF7-B913-4DAF873426CA";
name = "Jan 25 22, 12:25";
paths = (
{
closed = 1;
nodes = (
"418 -10 OFFCURVE",
"529 118 OFFCURVE",
"529 269 CURVE SMOOTH",
"529 428 OFFCURVE",
"412 546 OFFCURVE",
"264 546 CURVE SMOOTH",
"167 546 OFFCURVE",
"61 481 OFFCURVE",
"61 388 CURVE SMOOTH",
"61 338 OFFCURVE",
"100 292 OFFCURVE",
"163 279 CURVE",
"163 276 LINE",
"89 258 OFFCURVE",
"49 213 OFFCURVE",
"49 153 CURVE SMOOTH",
"49 47 OFFCURVE",
"150 -10 OFFCURVE",
"256 -10 CURVE SMOOTH"
);
},
{
closed = 1;
nodes = (
"183 58 OFFCURVE",
"139 94 OFFCURVE",
"139 157 CURVE SMOOTH",
"139 197 OFFCURVE",
"164 242 OFFCURVE",
"256 242 CURVE SMOOTH",
"276 242 LINE",
"276 310 LINE",
"264 310 LINE SMOOTH",
"204 310 OFFCURVE",
"151 325 OFFCURVE",
"151 387 CURVE SMOOTH",
"151 433 OFFCURVE",
"181 479 OFFCURVE",
"275 479 CURVE SMOOTH",
"375 479 OFFCURVE",
"439 413 OFFCURVE",
"439 269 CURVE SMOOTH",
"439 115 OFFCURVE",
"369 58 OFFCURVE",
"276 58 CURVE SMOOTH"
);
}
);
userData = {
com.schriftgestaltung.Glyphs.category = Letter;
com.schriftgestaltung.Glyphs.lastChange = "2020/09/03 22:42:33";
com.schriftgestaltung.Glyphs.subCategory = Other;
};
width = 578;
},
{
associatedMasterId = UUID0;
layerId = "3C7640EE-358C-45BB-B384-BDFF13776C83";
name = "Feb 1 22, 20:53";
paths = (
{
closed = 1;
nodes = (
"114 525 OFFCURVE",
"50 455 OFFCURVE",
"50 380 CURVE SMOOTH",
"50 307 OFFCURVE",
"105 271 OFFCURVE",
"167 253 CURVE",
"168 272 LINE",
"101 253 OFFCURVE",
"50 213 OFFCURVE",
"50 139 CURVE SMOOTH",
"50 42 OFFCURVE",
"135 -13 OFFCURVE",
"290 -13 CURVE SMOOTH",
"491 -13 OFFCURVE",
"615 105 OFFCURVE",
"615 257 CURVE SMOOTH",
"615 404 OFFCURVE",
"481 525 OFFCURVE",
"271 525 CURVE SMOOTH"
);
},
{
closed = 1;
nodes = (
"425 465 OFFCURVE",
"526 388 OFFCURVE",
"526 257 CURVE SMOOTH",
"526 130 OFFCURVE",
"422 48 OFFCURVE",
"283 48 CURVE SMOOTH",
"198 48 OFFCURVE",
"138 71 OFFCURVE",
"138 138 CURVE SMOOTH",
"138 189 OFFCURVE",
"174 226 OFFCURVE",
"267 226 CURVE SMOOTH",
"307 226 LINE",
"307 285 LINE",
"227 285 OFFCURVE",
"136 298 OFFCURVE",
"136 374 CURVE SMOOTH",
"136 425 OFFCURVE",
"188 465 OFFCURVE",
"287 465 CURVE SMOOTH"
);
}
);
userData = {
com.schriftgestaltung.Glyphs.category = Letter;
com.schriftgestaltung.Glyphs.lastChange = "2020/09/03 22:42:33";
com.schriftgestaltung.Glyphs.subCategory = Other;
};
width = 665;
},
{
associatedMasterId = UUID0;
background = {
components = (
{
name = "yaHigh-lue";
transform = "{1, 0, 0, 1, 10, 0}";
}
);
};
layerId = "09BBB7EE-FFF4-4A12-A509-DF6112C0E839";
name = "Feb 3 22, 15:03";
paths = (
{
closed = 1;
nodes = (
"114 525 OFFCURVE",
"60 455 OFFCURVE",
"60 380 CURVE SMOOTH",
"60 307 OFFCURVE",
"115 271 OFFCURVE",
"177 253 CURVE",
"178 272 LINE",
"111 253 OFFCURVE",
"60 213 OFFCURVE",
"60 139 CURVE SMOOTH",
"60 43 OFFCURVE",
"136 -13 OFFCURVE",
"280 -13 CURVE SMOOTH",
"452 -13 OFFCURVE",
"586 105 OFFCURVE",
"586 257 CURVE SMOOTH",
"586 404 OFFCURVE",
"442 525 OFFCURVE",
"261 525 CURVE SMOOTH"
);
},
{
closed = 1;
nodes = (
"386 460 OFFCURVE",
"497 388 OFFCURVE",
"497 257 CURVE SMOOTH",
"497 130 OFFCURVE",
"385 52 OFFCURVE",
"271 52 CURVE SMOOTH",
"196 52 OFFCURVE",
"148 76 OFFCURVE",
"148 138 CURVE SMOOTH",
"148 189 OFFCURVE",
"184 226 OFFCURVE",
"277 226 CURVE SMOOTH",
"317 226 LINE",
"317 285 LINE",
"237 285 OFFCURVE",
"146 298 OFFCURVE",
"146 374 CURVE SMOOTH",
"146 425 OFFCURVE",
"188 460 OFFCURVE",
"277 460 CURVE SMOOTH"
);
}
);
userData = {
com.schriftgestaltung.Glyphs.category = Letter;
com.schriftgestaltung.Glyphs.lastChange = "2020/09/03 22:42:33";
com.schriftgestaltung.Glyphs.subCategory = Other;
};
width = 636;
},
{
associatedMasterId = UUID0;
background = {
components = (
{
name = "yaHigh-lue";
}
);
};
layerId = "BCD64F84-C3A0-4F47-B6B0-2F867EDE9C01";
name = "Feb 3 22, 16:28";
paths = (
{
closed = 1;
nodes = (
"474 -15 OFFCURVE",
"577 101 OFFCURVE",
"577 255 CURVE SMOOTH",
"577 409 OFFCURVE",
"468 525 OFFCURVE",
"272 525 CURVE SMOOTH",
"112 525 OFFCURVE",
"60 456 OFFCURVE",
"60 382 CURVE SMOOTH",
"60 307 OFFCURVE",
"115 271 OFFCURVE",
"177 253 CURVE",
"178 272 LINE",
"111 253 OFFCURVE",
"60 213 OFFCURVE",
"60 139 CURVE SMOOTH",
"60 43 OFFCURVE",
"140 -15 OFFCURVE",
"282 -15 CURVE SMOOTH"
);
},
{
closed = 1;
nodes = (
"198 51 OFFCURVE",
"148 76 OFFCURVE",
"148 138 CURVE SMOOTH",
"148 189 OFFCURVE",
"184 226 OFFCURVE",
"277 226 CURVE SMOOTH",
"317 226 LINE",
"317 285 LINE",
"237 285 OFFCURVE",
"146 298 OFFCURVE",
"146 374 CURVE SMOOTH",
"146 425 OFFCURVE",
"185 459 OFFCURVE",
"282 459 CURVE SMOOTH",
"417 459 OFFCURVE",
"487 386 OFFCURVE",
"487 255 CURVE SMOOTH",
"487 120 OFFCURVE",
"418 51 OFFCURVE",
"284 51 CURVE SMOOTH"
);
}
);
userData = {
com.schriftgestaltung.Glyphs.category = Letter;
com.schriftgestaltung.Glyphs.lastChange = "2020/09/03 22:42:33";
com.schriftgestaltung.Glyphs.subCategory = Other;
};
width = 627;
}
);
leftKerningGroup = ya;
leftMetricsKey = "yaHigh-lue";
rightKerningGroup = va;
rightMetricsKey = "kaHigh-lue";
unicode = 1988;
},
{
color = 0;
glyphname = "saHigh-lue";
lastChange = "2022-03-21 19:44:55 +0000";
layers = (
{
anchors = (
{
name = bottom;
position = "{502, 0}";
}
);
background = {
components = (
{
name = "aaSign-lue";
}
);
};
layerId = UUID0;
paths = (
{
closed = 1;
nodes = (
"400 -15 OFFCURVE",
"526 66 OFFCURVE",
"526 256 CURVE SMOOTH",
"526 437 OFFCURVE",
"402 525 OFFCURVE",
"269 525 CURVE SMOOTH",
"186 525 OFFCURVE",
"110 491 OFFCURVE",
"59 419 CURVE",
"123 375 LINE",
"155 424 OFFCURVE",
"210 458 OFFCURVE",
"275 458 CURVE SMOOTH",
"367 458 OFFCURVE",
"438 383 OFFCURVE",
"438 259 CURVE SMOOTH",
"438 138 OFFCURVE",
"374 53 OFFCURVE",
"266 53 CURVE SMOOTH",
"185 53 OFFCURVE",
"133 99 OFFCURVE",
"105 155 CURVE",
"40 117 LINE",
"99 19 OFFCURVE",
"184 -15 OFFCURVE",
"267 -15 CURVE SMOOTH"
);
},
{
closed = 1;
nodes = (
"820 -10 OFFCURVE",
"942 75 OFFCURVE",
"942 259 CURVE SMOOTH",
"942 443 OFFCURVE",
"819 525 OFFCURVE",
"697 525 CURVE SMOOTH",
"640 525 OFFCURVE",
"584 505 OFFCURVE",
"546 469 CURVE",
"596 416 LINE",
"626 444 OFFCURVE",
"663 459 OFFCURVE",
"705 459 CURVE SMOOTH",
"789 459 OFFCURVE",
"854 385 OFFCURVE",
"854 263 CURVE SMOOTH",
"854 139 OFFCURVE",
"783 58 OFFCURVE",
"680 58 CURVE SMOOTH",
"601 58 OFFCURVE",
"537 105 OFFCURVE",
"507 194 CURVE",
"462 118 LINE",
"513 37 OFFCURVE",
"586 -10 OFFCURVE",
"688 -10 CURVE SMOOTH"
);
}
);
userData = {
com.schriftgestaltung.Glyphs.category = Letter;
com.schriftgestaltung.Glyphs.lastChange = "2020/09/03 22:42:33";
com.schriftgestaltung.Glyphs.subCategory = Other;
};
width = 992;
},
{
anchors = (
{
name = bottom;
position = "{512, 0}";
}
);
background = {
components = (
{
name = "aaSign-lue";
}
);
};
layerId = "1FCF787B-CF33-4B83-BE16-73AC6600FEB7";
paths = (
{
closed = 1;
nodes = (
"458 -15 OFFCURVE",
"565 91 OFFCURVE",
"565 265 CURVE SMOOTH",
"565 428 OFFCURVE",
"445 540 OFFCURVE",
"285 540 CURVE SMOOTH",
"180 540 OFFCURVE",
"100 505 OFFCURVE",
"43 422 CURVE",
"162 349 LINE",
"192 397 OFFCURVE",
"236 424 OFFCURVE",
"285 424 CURVE SMOOTH",
"362 424 OFFCURVE",
"415 362 OFFCURVE",
"415 267 CURVE SMOOTH",
"415 161 OFFCURVE",
"363 101 OFFCURVE",
"279 101 CURVE SMOOTH",
"221 101 OFFCURVE",
"177 130 OFFCURVE",
"149 187 CURVE",
"30 119 LINE",
"83 27 OFFCURVE",
"172 -15 OFFCURVE",
"286 -15 CURVE SMOOTH"
);
},
{
closed = 1;
nodes = (
"894 -15 OFFCURVE",
"1002 91 OFFCURVE",
"1002 265 CURVE SMOOTH",
"1002 428 OFFCURVE",
"880 540 OFFCURVE",
"724 540 CURVE SMOOTH",
"650 540 OFFCURVE",
"591 516 OFFCURVE",
"547 479 CURVE",
"639 380 LINE",
"663 405 OFFCURVE",
"696 419 OFFCURVE",
"731 419 CURVE SMOOTH",
"800 419 OFFCURVE",
"852 365 OFFCURVE",
"852 267 CURVE SMOOTH",
"852 162 OFFCURVE",
"798 104 OFFCURVE",
"714 104 CURVE SMOOTH",
"639 104 OFFCURVE",
"574 143 OFFCURVE",
"544 235 CURVE",
"469 123 LINE",
"526 30 OFFCURVE",
"617 -15 OFFCURVE",
"725 -15 CURVE SMOOTH"
);
}
);
width = 1042;
},
{
associatedMasterId = UUID0;
layerId = "33BA317E-B94E-4B3D-885F-80479577BB6B";
name = "Jan 25 22, 13:12";
paths = (
{
closed = 1;
nodes = (
"315 -10 OFFCURVE",
"381 17 OFFCURVE",
"428 70 CURVE",
"488 4 OFFCURVE",
"573 -10 OFFCURVE",
"635 -10 CURVE SMOOTH",
"767 -10 OFFCURVE",
"880 85 OFFCURVE",
"880 275 CURVE SMOOTH",
"880 473 OFFCURVE",
"754 546 OFFCURVE",
"655 546 CURVE SMOOTH",
"588 546 OFFCURVE",
"531 526 OFFCURVE",
"492 469 CURVE",
"556 430 LINE",
"574 459 OFFCURVE",
"607 479 OFFCURVE",
"644 479 CURVE SMOOTH",
"720 479 OFFCURVE",
"790 421 OFFCURVE",
"790 276 CURVE SMOOTH",
"790 147 OFFCURVE",
"737 58 OFFCURVE",
"635 58 CURVE SMOOTH",
"568 58 OFFCURVE",
"497 103 OFFCURVE",
"474 148 CURVE",
"487 183 OFFCURVE",
"494 223 OFFCURVE",
"494 270 CURVE SMOOTH",
"494 468 OFFCURVE",
"382 546 OFFCURVE",
"253 546 CURVE SMOOTH",
"184 546 OFFCURVE",
"108 516 OFFCURVE",
"58 447 CURVE",
"122 410 LINE",
"155 460 OFFCURVE",
"208 479 OFFCURVE",
"249 479 CURVE SMOOTH",
"346 479 OFFCURVE",
"404 405 OFFCURVE",
"404 271 CURVE SMOOTH",
"404 142 OFFCURVE",
"345 58 OFFCURVE",
"254 58 CURVE SMOOTH",
"186 58 OFFCURVE",
"125 106 OFFCURVE",
"104 153 CURVE",
"39 116 LINE",
"98 19 OFFCURVE",
"178 -10 OFFCURVE",
"250 -10 CURVE SMOOTH"
);
}
);
userData = {
com.schriftgestaltung.Glyphs.category = Letter;
com.schriftgestaltung.Glyphs.lastChange = "2020/09/03 22:42:33";
com.schriftgestaltung.Glyphs.subCategory = Other;
};
width = 929;
}
);
leftKerningGroup = aa;
leftMetricsKey = "aaSign-lue";
rightKerningGroup = va;
rightMetricsKey = "kaHigh-lue";
unicode = 1989;
},
{
color = 0;
glyphname = "yaHigh-lue";
lastChange = "2022-02-28 21:14:36 +0000";
layers = (
{
background = {
components = (
{
name = "tsaHigh-lue";
}
);
};
layerId = UUID0;
paths = (
{
closed = 1;
nodes = (
"501 -15 OFFCURVE",
"577 113 OFFCURVE",
"577 329 CURVE SMOOTH",
"577 783 LINE SMOOTH",
"577 839 OFFCURVE",
"581 893 OFFCURVE",
"607 928 CURVE",
"538 966 LINE",
"509 933 OFFCURVE",
"495 890 OFFCURVE",
"495 815 CURVE SMOOTH",
"495 334 LINE SMOOTH",
"495 170 OFFCURVE",
"453 51 OFFCURVE",
"283 51 CURVE SMOOTH",
"205 51 OFFCURVE",
"148 71 OFFCURVE",
"148 138 CURVE SMOOTH",
"148 189 OFFCURVE",
"184 226 OFFCURVE",
"277 226 CURVE SMOOTH",
"301 226 LINE",
"301 285 LINE",
"237 285 OFFCURVE",
"146 298 OFFCURVE",
"146 374 CURVE SMOOTH",
"146 431 OFFCURVE",
"189 458 OFFCURVE",
"241 458 CURVE SMOOTH",
"271 458 OFFCURVE",
"299 450 OFFCURVE",
"321 435 CURVE",
"350 496 LINE",
"315 517 OFFCURVE",
"278 525 OFFCURVE",
"232 525 CURVE SMOOTH",
"129 525 OFFCURVE",
"60 465 OFFCURVE",
"60 383 CURVE SMOOTH",
"60 307 OFFCURVE",
"115 271 OFFCURVE",
"177 253 CURVE",
"178 272 LINE",
"112 253 OFFCURVE",
"60 214 OFFCURVE",
"60 138 CURVE SMOOTH",
"60 36 OFFCURVE",
"145 -15 OFFCURVE",
"282 -15 CURVE SMOOTH"
);
}
);
userData = {
com.schriftgestaltung.Glyphs.category = Letter;
com.schriftgestaltung.Glyphs.lastChange = "2020/09/03 22:42:33";
com.schriftgestaltung.Glyphs.subCategory = Other;
};
width = 637;
},
{
background = {
components = (
{
name = "tsaHigh-lue";
}
);
};
layerId = "1FCF787B-CF33-4B83-BE16-73AC6600FEB7";
paths = (
{
closed = 1;
nodes = (
"529 -15 OFFCURVE",
"630 99 OFFCURVE",
"630 331 CURVE SMOOTH",
"630 785 LINE SMOOTH",
"630 849 OFFCURVE",
"640 887 OFFCURVE",
"670 924 CURVE",
"549 985 LINE",
"507 944 OFFCURVE",
"490 897 OFFCURVE",
"490 811 CURVE SMOOTH",
"490 335 LINE SMOOTH",
"490 170 OFFCURVE",
"441 97 OFFCURVE",
"304 97 CURVE SMOOTH",
"229 97 OFFCURVE",
"201 115 OFFCURVE",
"201 148 CURVE SMOOTH",
"201 182 OFFCURVE",
"231 201 OFFCURVE",
"304 201 CURVE SMOOTH",
"340 201 LINE",
"340 309 LINE",
"247 309 OFFCURVE",
"200 323 OFFCURVE",
"200 369 CURVE SMOOTH",
"200 404 OFFCURVE",
"227 427 OFFCURVE",
"274 427 CURVE SMOOTH",
"306 427 OFFCURVE",
"327 419 OFFCURVE",
"349 405 CURVE",
"391 508 LINE",
"354 529 OFFCURVE",
"311 540 OFFCURVE",
"256 540 CURVE SMOOTH",
"132 540 OFFCURVE",
"50 475 OFFCURVE",
"50 385 CURVE SMOOTH",
"50 316 OFFCURVE",
"91 272 OFFCURVE",
"185 250 CURVE",
"185 271 LINE",
"91 253 OFFCURVE",
"50 207 OFFCURVE",
"50 139 CURVE SMOOTH",
"50 40 OFFCURVE",
"143 -15 OFFCURVE",
"306 -15 CURVE SMOOTH"
);
}
);
width = 680;
},
{
associatedMasterId = UUID0;
layerId = "20A9F8F5-407C-4A81-B9A7-6356EAED35E3";
name = "Jan 25 22, 12:12";
paths = (
{
closed = 1;
nodes = (
"468 -10 OFFCURVE",
"551 148 OFFCURVE",
"551 401 CURVE SMOOTH",
"551 674 OFFCURVE",
"564 782 OFFCURVE",
"641 782 CURVE SMOOTH",
"656 782 OFFCURVE",
"667 781 OFFCURVE",
"686 775 CURVE",
"719 837 LINE",
"691 847 OFFCURVE",
"677 850 OFFCURVE",
"656 850 CURVE SMOOTH",
"528 850 OFFCURVE",
"464 663 OFFCURVE",
"464 464 CURVE SMOOTH",
"464 364 LINE SMOOTH",
"464 159 OFFCURVE",
"402 58 OFFCURVE",
"264 58 CURVE SMOOTH",
"190 58 OFFCURVE",
"139 90 OFFCURVE",
"139 164 CURVE SMOOTH",
"139 208 OFFCURVE",
"166 257 OFFCURVE",
"266 257 CURVE SMOOTH",
"272 257 OFFCURVE",
"289 257 OFFCURVE",
"295 256 CURVE",
"295 315 LINE",
"235 315 OFFCURVE",
"139 318 OFFCURVE",
"139 408 CURVE SMOOTH",
"139 450 OFFCURVE",
"176 479 OFFCURVE",
"248 479 CURVE SMOOTH",
"280 479 OFFCURVE",
"328 468 OFFCURVE",
"355 449 CURVE",
"389 504 LINE",
"351 531 OFFCURVE",
"288 546 OFFCURVE",
"238 546 CURVE SMOOTH",
"113 546 OFFCURVE",
"49 476 OFFCURVE",
"49 408 CURVE SMOOTH",
"49 341 OFFCURVE",
"88 313 OFFCURVE",
"139 292 CURVE",
"81 267 OFFCURVE",
"49 216 OFFCURVE",
"49 160 CURVE SMOOTH",
"49 97 OFFCURVE",
"89 -10 OFFCURVE",
"263 -10 CURVE SMOOTH"
);
}
);
userData = {
com.schriftgestaltung.Glyphs.category = Letter;
com.schriftgestaltung.Glyphs.lastChange = "2020/09/03 22:42:33";
com.schriftgestaltung.Glyphs.subCategory = Other;
};
width = 621;
},
{
associatedMasterId = UUID0;
layerId = "82EC6151-9978-4AC7-A5C1-9B8643211266";
name = "Jan 25 22, 12:28";
paths = (
{
closed = 1;
nodes = (
"522 -13 OFFCURVE",
"617 133 OFFCURVE",
"617 359 CURVE SMOOTH",
"617 743 LINE SMOOTH",
"617 818 OFFCURVE",
"621 890 OFFCURVE",
"692 890 CURVE SMOOTH",
"712 890 OFFCURVE",
"728 885 OFFCURVE",
"739 879 CURVE",
"767 939 LINE",
"740 955 OFFCURVE",
"710 960 OFFCURVE",
"682 960 CURVE SMOOTH",
"575 960 OFFCURVE",
"535 878 OFFCURVE",
"535 775 CURVE SMOOTH",
"535 364 LINE SMOOTH",
"535 190 OFFCURVE",
"474 55 OFFCURVE",
"281 55 CURVE SMOOTH",
"203 55 OFFCURVE",
"138 79 OFFCURVE",
"138 147 CURVE SMOOTH",
"138 198 OFFCURVE",
"174 235 OFFCURVE",
"267 235 CURVE SMOOTH",
"307 235 LINE",
"307 294 LINE",
"227 294 OFFCURVE",
"136 307 OFFCURVE",
"136 380 CURVE SMOOTH",
"136 430 OFFCURVE",
"180 458 OFFCURVE",
"252 458 CURVE SMOOTH",
"300 458 OFFCURVE",
"347 445 OFFCURVE",
"379 422 CURVE",
"413 477 LINE",
"375 506 OFFCURVE",
"309 525 OFFCURVE",
"243 525 CURVE SMOOTH",
"119 525 OFFCURVE",
"50 461 OFFCURVE",
"50 387 CURVE SMOOTH",
"50 316 OFFCURVE",
"105 280 OFFCURVE",
"167 262 CURVE",
"168 281 LINE",
"101 262 OFFCURVE",
"50 222 OFFCURVE",
"50 148 CURVE SMOOTH",
"50 43 OFFCURVE",
"153 -13 OFFCURVE",
"286 -13 CURVE SMOOTH"
);
}
);
userData = {
com.schriftgestaltung.Glyphs.category = Letter;
com.schriftgestaltung.Glyphs.lastChange = "2020/09/03 22:42:33";
com.schriftgestaltung.Glyphs.subCategory = Other;
};
width = 622;
},
{
associatedMasterId = UUID0;
layerId = "48962D87-19CE-442E-B50E-B254FA6497C2";
name = "Feb 1 22, 12:50";
paths = (
{
closed = 1;
nodes = (
"512 -13 OFFCURVE",
"607 133 OFFCURVE",
"607 359 CURVE SMOOTH",
"607 743 LINE SMOOTH",
"607 818 OFFCURVE",
"611 890 OFFCURVE",
"682 890 CURVE SMOOTH",
"702 890 OFFCURVE",
"718 885 OFFCURVE",
"729 879 CURVE",
"757 939 LINE",
"730 955 OFFCURVE",
"700 960 OFFCURVE",
"672 960 CURVE SMOOTH",
"565 960 OFFCURVE",
"525 878 OFFCURVE",
"525 775 CURVE SMOOTH",
"525 364 LINE SMOOTH",
"525 190 OFFCURVE",
"464 55 OFFCURVE",
"281 55 CURVE SMOOTH",
"203 55 OFFCURVE",
"138 76 OFFCURVE",
"138 141 CURVE SMOOTH",
"138 192 OFFCURVE",
"174 228 OFFCURVE",
"267 228 CURVE SMOOTH",
"307 228 LINE",
"307 287 LINE",
"227 287 OFFCURVE",
"136 300 OFFCURVE",
"136 374 CURVE SMOOTH",
"136 428 OFFCURVE",
"180 458 OFFCURVE",
"252 458 CURVE SMOOTH",
"300 458 OFFCURVE",
"347 445 OFFCURVE",
"379 422 CURVE",
"413 477 LINE",
"375 506 OFFCURVE",
"309 525 OFFCURVE",
"243 525 CURVE SMOOTH",
"119 525 OFFCURVE",
"50 464 OFFCURVE",
"50 383 CURVE SMOOTH",
"50 309 OFFCURVE",
"105 273 OFFCURVE",
"167 255 CURVE",
"168 274 LINE",
"101 255 OFFCURVE",
"50 215 OFFCURVE",
"50 139 CURVE SMOOTH",
"50 39 OFFCURVE",
"153 -13 OFFCURVE",
"286 -13 CURVE SMOOTH"
);
}
);
userData = {
com.schriftgestaltung.Glyphs.category = Letter;
com.schriftgestaltung.Glyphs.lastChange = "2020/09/03 22:42:33";
com.schriftgestaltung.Glyphs.subCategory = Other;
};
width = 657;
},
{
associatedMasterId = UUID0;
background = {
components = (
{
name = "tsaHigh-lue";
}
);
};
layerId = "B7A7BABF-4A82-46C4-B72E-82097B947EEC";
name = "Feb 3 22, 16:27";
paths = (
{
closed = 1;
nodes = (
"538 966 LINE",
"509 933 OFFCURVE",
"495 890 OFFCURVE",
"495 815 CURVE SMOOTH",
"495 334 LINE SMOOTH",
"495 170 OFFCURVE",
"453 51 OFFCURVE",
"283 51 CURVE SMOOTH",
"205 51 OFFCURVE",
"148 71 OFFCURVE",
"148 138 CURVE SMOOTH",
"148 189 OFFCURVE",
"184 226 OFFCURVE",
"277 226 CURVE SMOOTH",
"317 226 LINE",
"317 285 LINE",
"237 285 OFFCURVE",
"146 298 OFFCURVE",
"146 374 CURVE SMOOTH",
"146 428 OFFCURVE",
"190 458 OFFCURVE",
"262 458 CURVE SMOOTH",
"310 458 OFFCURVE",
"357 445 OFFCURVE",
"389 422 CURVE",
"423 477 LINE",
"385 506 OFFCURVE",
"319 525 OFFCURVE",
"253 525 CURVE SMOOTH",
"129 525 OFFCURVE",
"60 464 OFFCURVE",
"60 383 CURVE SMOOTH",
"60 307 OFFCURVE",
"115 271 OFFCURVE",
"177 253 CURVE",
"178 272 LINE",
"112 253 OFFCURVE",
"60 214 OFFCURVE",
"60 138 CURVE SMOOTH",
"60 35 OFFCURVE",
"152 -15 OFFCURVE",
"284 -15 CURVE SMOOTH",
"499 -15 OFFCURVE",
"577 113 OFFCURVE",
"577 329 CURVE SMOOTH",
"577 783 LINE SMOOTH",
"577 839 OFFCURVE",
"581 893 OFFCURVE",
"607 928 CURVE"
);
}
);
userData = {
com.schriftgestaltung.Glyphs.category = Letter;
com.schriftgestaltung.Glyphs.lastChange = "2020/09/03 22:42:33";
com.schriftgestaltung.Glyphs.subCategory = Other;
};
width = 637;
}
);
leftKerningGroup = ya;
rightKerningGroup = ya;
unicode = 198A;
},
{
color = 0;
glyphname = "tsaLow-lue";
lastChange = "2022-02-28 21:44:32 +0000";
layers = (
{
background = {
components = (
{
name = "kaLow-lue";
}
);
};
layerId = "1FCF787B-CF33-4B83-BE16-73AC6600FEB7";
paths = (
{
closed = 1;
nodes = (
"524 -460 OFFCURVE",
"634 -359 OFFCURVE",
"634 -195 CURVE SMOOTH",
"634 -71 OFFCURVE",
"567 22 OFFCURVE",
"460 68 CURVE",
"473 16 LINE",
"564 72 OFFCURVE",
"614 148 OFFCURVE",
"614 263 CURVE SMOOTH",
"614 433 OFFCURVE",
"493 540 OFFCURVE",
"327 540 CURVE SMOOTH",
"161 540 OFFCURVE",
"40 432 OFFCURVE",
"40 262 CURVE SMOOTH",
"40 129 OFFCURVE",
"110 39 OFFCURVE",
"237 -15 CURVE",
"292 100 LINE",
"228 129 OFFCURVE",
"190 177 OFFCURVE",
"190 265 CURVE SMOOTH",
"190 362 OFFCURVE",
"242 428 OFFCURVE",
"327 428 CURVE SMOOTH",
"412 428 OFFCURVE",
"464 362 OFFCURVE",
"464 265 CURVE SMOOTH",
"464 163 OFFCURVE",
"426 114 OFFCURVE",
"366 87 CURVE",
"412 -26 LINE",
"465 -59 OFFCURVE",
"490 -107 OFFCURVE",
"490 -181 CURVE SMOOTH",
"490 -276 OFFCURVE",
"430 -341 OFFCURVE",
"336 -341 CURVE SMOOTH",
"259 -341 OFFCURVE",
"210 -302 OFFCURVE",
"174 -235 CURVE",
"51 -307 LINE",
"113 -416 OFFCURVE",
"216 -460 OFFCURVE",
"341 -460 CURVE SMOOTH"
);
}
);
width = 654;
},
{
associatedMasterId = UUID0;
layerId = "BC2F0958-57C3-4941-83DB-5A899836B2B8";
name = "Jan 25 22, 12:35";
paths = (
{
closed = 1;
nodes = (
"517 -278 OFFCURVE",
"577 -167 OFFCURVE",
"577 -85 CURVE SMOOTH",
"577 -26 OFFCURVE",
"541 23 OFFCURVE",
"477 51 CURVE",
"525 99 OFFCURVE",
"563 167 OFFCURVE",
"563 263 CURVE SMOOTH",
"563 421 OFFCURVE",
"451 546 OFFCURVE",
"306 546 CURVE SMOOTH",
"159 546 OFFCURVE",
"49 426 OFFCURVE",
"49 263 CURVE SMOOTH",
"49 134 OFFCURVE",
"120 43 OFFCURVE",
"210 -5 CURVE",
"238 61 LINE",
"177 86 OFFCURVE",
"139 156 OFFCURVE",
"139 273 CURVE SMOOTH",
"139 396 OFFCURVE",
"190 479 OFFCURVE",
"306 479 CURVE SMOOTH",
"410 479 OFFCURVE",
"473 407 OFFCURVE",
"473 273 CURVE SMOOTH",
"473 156 OFFCURVE",
"432 67 OFFCURVE",
"361 67 CURVE SMOOTH",
"354 67 OFFCURVE",
"348 67 OFFCURVE",
"340 67 CURVE",
"340 0 LINE",
"345 0 OFFCURVE",
"350 0 OFFCURVE",
"355 0 CURVE SMOOTH",
"463 0 OFFCURVE",
"488 -43 OFFCURVE",
"488 -86 CURVE SMOOTH",
"488 -148 OFFCURVE",
"457 -211 OFFCURVE",
"329 -211 CURVE SMOOTH",
"253 -211 OFFCURVE",
"183 -168 OFFCURVE",
"145 -122 CURVE",
"86 -166 LINE",
"150 -246 OFFCURVE",
"259 -278 OFFCURVE",
"329 -278 CURVE SMOOTH"
);
}
);
userData = {
com.schriftgestaltung.Glyphs.category = Letter;
com.schriftgestaltung.Glyphs.lastChange = "2020/09/03 22:42:33";
com.schriftgestaltung.Glyphs.subCategory = Other;
};
width = 611;
},
{
associatedMasterId = UUID0;
background = {
components = (
{
name = "kaLow-lue";
}
);
};
layerId = "3C4CE909-ABBF-435E-9E90-4038B5D6D39E";
name = "Jan 25 22, 12:43";
paths = (
{
closed = 1;
nodes = (
"447 17 LINE",
"514 65 OFFCURVE",
"576 139 OFFCURVE",
"576 253 CURVE SMOOTH",
"576 397 OFFCURVE",
"460 525 OFFCURVE",
"313 525 CURVE SMOOTH",
"164 525 OFFCURVE",
"50 402 OFFCURVE",
"50 253 CURVE SMOOTH",
"50 126 OFFCURVE",
"131 38 OFFCURVE",
"221 -10 CURVE",
"249 56 LINE",
"188 81 OFFCURVE",
"140 148 OFFCURVE",
"140 263 CURVE SMOOTH",
"140 372 OFFCURVE",
"197 459 OFFCURVE",
"313 459 CURVE SMOOTH",
"417 459 OFFCURVE",
"486 383 OFFCURVE",
"486 263 CURVE SMOOTH",
"486 148 OFFCURVE",
"438 81 OFFCURVE",
"377 56 CURVE",
"406 -15 LINE",
"492 -39 OFFCURVE",
"512 -83 OFFCURVE",
"512 -170 CURVE SMOOTH",
"512 -292 OFFCURVE",
"438 -356 OFFCURVE",
"316 -356 CURVE SMOOTH",
"230 -356 OFFCURVE",
"150 -296 OFFCURVE",
"106 -231 CURVE",
"48 -286 LINE",
"120 -396 OFFCURVE",
"238 -440 OFFCURVE",
"316 -440 CURVE SMOOTH",
"524 -440 OFFCURVE",
"591 -285 OFFCURVE",
"591 -168 CURVE SMOOTH",
"591 -89 OFFCURVE",
"564 -13 OFFCURVE",
"442 37 CURVE"
);
}
);
userData = {
com.schriftgestaltung.Glyphs.category = Letter;
com.schriftgestaltung.Glyphs.lastChange = "2020/09/03 22:42:33";
com.schriftgestaltung.Glyphs.subCategory = Other;
};
width = 611;
},
{
associatedMasterId = UUID0;
background = {
components = (
{
name = "kaLow-lue";
}
);
};
layerId = "3F2E14AC-F099-4105-A233-5F1888C9CA3F";
name = "Jan 25 22, 13:26";
paths = (
{
closed = 1;
nodes = (
"455 -446 OFFCURVE",
"586 -368 OFFCURVE",
"586 -195 CURVE SMOOTH",
"586 -79 OFFCURVE",
"511 0 OFFCURVE",
"425 34 CURVE",
"426 5 LINE",
"517 67 OFFCURVE",
"576 140 OFFCURVE",
"576 253 CURVE SMOOTH",
"576 400 OFFCURVE",
"460 525 OFFCURVE",
"313 525 CURVE SMOOTH",
"164 525 OFFCURVE",
"50 405 OFFCURVE",
"50 253 CURVE SMOOTH",
"50 126 OFFCURVE",
"131 38 OFFCURVE",
"221 -10 CURVE",
"249 56 LINE",
"188 81 OFFCURVE",
"140 148 OFFCURVE",
"140 263 CURVE SMOOTH",
"140 372 OFFCURVE",
"197 459 OFFCURVE",
"313 459 CURVE SMOOTH",
"417 459 OFFCURVE",
"486 383 OFFCURVE",
"486 263 CURVE SMOOTH",
"486 136 OFFCURVE",
"440 75 OFFCURVE",
"348 45 CURVE",
"359 -10 LINE",
"450 -28 OFFCURVE",
"497 -85 OFFCURVE",
"497 -188 CURVE SMOOTH",
"497 -316 OFFCURVE",
"423 -376 OFFCURVE",
"320 -376 CURVE SMOOTH",
"236 -376 OFFCURVE",
"181 -328 OFFCURVE",
"150 -270 CURVE",
"84 -312 LINE",
"147 -414 OFFCURVE",
"234 -446 OFFCURVE",
"328 -446 CURVE SMOOTH"
);
}
);
userData = {
com.schriftgestaltung.Glyphs.category = Letter;
com.schriftgestaltung.Glyphs.lastChange = "2020/09/03 22:42:33";
com.schriftgestaltung.Glyphs.subCategory = Other;
};
width = 611;
},
{
associatedMasterId = UUID0;
background = {
components = (
{
name = "kaLow-lue";
}
);
};
layerId = "4356A075-9ABB-4C23-A0C3-65F9A86B1E17";
name = "Feb 1 22, 17:15";
paths = (
{
closed = 1;
nodes = (
"456 -446 OFFCURVE",
"586 -370 OFFCURVE",
"586 -199 CURVE SMOOTH",
"586 -93 OFFCURVE",
"523 -16 OFFCURVE",
"427 22 CURVE",
"433 5 LINE",
"522 63 OFFCURVE",
"576 143 OFFCURVE",
"576 253 CURVE SMOOTH",
"576 400 OFFCURVE",
"460 525 OFFCURVE",
"313 525 CURVE SMOOTH",
"164 525 OFFCURVE",
"50 405 OFFCURVE",
"50 253 CURVE SMOOTH",
"50 126 OFFCURVE",
"131 38 OFFCURVE",
"221 -10 CURVE",
"249 56 LINE",
"188 81 OFFCURVE",
"140 148 OFFCURVE",
"140 263 CURVE SMOOTH",
"140 372 OFFCURVE",
"197 459 OFFCURVE",
"313 459 CURVE SMOOTH",
"417 459 OFFCURVE",
"486 385 OFFCURVE",
"486 263 CURVE SMOOTH",
"486 137 OFFCURVE",
"440 70 OFFCURVE",
"348 36 CURVE",
"361 -24 LINE",
"455 -43 OFFCURVE",
"497 -107 OFFCURVE",
"497 -197 CURVE SMOOTH",
"497 -320 OFFCURVE",
"423 -376 OFFCURVE",
"325 -376 CURVE SMOOTH",
"237 -376 OFFCURVE",
"178 -328 OFFCURVE",
"147 -270 CURVE",
"81 -312 LINE",
"144 -413 OFFCURVE",
"236 -446 OFFCURVE",
"330 -446 CURVE SMOOTH"
);
}
);
userData = {
com.schriftgestaltung.Glyphs.category = Letter;
com.schriftgestaltung.Glyphs.lastChange = "2020/09/03 22:42:33";
com.schriftgestaltung.Glyphs.subCategory = Other;
};
width = 626;
},
{
associatedMasterId = UUID0;
background = {
components = (
{
name = "kaLow-lue";
}
);
};
layerId = "3BABF8C7-8C21-4C68-AF1B-72BE0E04C62E";
name = "Feb 15 22, 17:34";
paths = (
{
closed = 1;
nodes = (
"576 403 OFFCURVE",
"467 526 OFFCURVE",
"312 525 CURVE SMOOTH",
"157 524 OFFCURVE",
"50 403 OFFCURVE",
"50 252 CURVE SMOOTH",
"50 133 OFFCURVE",
"118 40 OFFCURVE",
"221 -10 CURVE",
"249 60 LINE",
"188 80 OFFCURVE",
"138 139 OFFCURVE",
"138 253 CURVE SMOOTH",
"138 378 OFFCURVE",
"202 459 OFFCURVE",
"312 459 CURVE SMOOTH",
"422 459 OFFCURVE",
"488 378 OFFCURVE",
"488 253 CURVE SMOOTH",
"488 144 OFFCURVE",
"438 80 OFFCURVE",
"374 57 CURVE",
"404 -10 LINE",
"473 -38 OFFCURVE",
"504 -92 OFFCURVE",
"504 -184 CURVE SMOOTH",
"504 -315 OFFCURVE",
"426 -376 OFFCURVE",
"327 -376 CURVE SMOOTH",
"236 -376 OFFCURVE",
"176 -328 OFFCURVE",
"145 -270 CURVE",
"79 -312 LINE",
"142 -413 OFFCURVE",
"235 -446 OFFCURVE",
"332 -446 CURVE SMOOTH",
"459 -446 OFFCURVE",
"592 -365 OFFCURVE",
"592 -190 CURVE SMOOTH",
"592 -80 OFFCURVE",
"539 -8 OFFCURVE",
"445 43 CURVE",
"434 8 LINE",
"496 41 OFFCURVE",
"576 120 OFFCURVE",
"576 253 CURVE SMOOTH"
);
}
);
userData = {
com.schriftgestaltung.Glyphs.category = Letter;
com.schriftgestaltung.Glyphs.lastChange = "2020/09/03 22:42:33";
com.schriftgestaltung.Glyphs.subCategory = Other;
};
width = 647;
},
{
associatedMasterId = UUID0;
background = {
components = (
{
name = "kaLow-lue";
}
);
};
layerId = "32A976FE-3E96-4878-AB35-B873FBE77BA4";
name = "Feb 28 22, 18:34";
paths = (
{
closed = 1;
nodes = (
"469 -446 OFFCURVE",
"592 -367 OFFCURVE",
"592 -194 CURVE SMOOTH",
"592 -80 OFFCURVE",
"539 -8 OFFCURVE",
"445 43 CURVE",
"434 8 LINE",
"496 41 OFFCURVE",
"576 120 OFFCURVE",
"576 253 CURVE SMOOTH",
"576 403 OFFCURVE",
"467 526 OFFCURVE",
"312 525 CURVE SMOOTH",
"157 524 OFFCURVE",
"50 403 OFFCURVE",
"50 252 CURVE SMOOTH",
"50 133 OFFCURVE",
"118 40 OFFCURVE",
"221 -10 CURVE",
"249 60 LINE",
"188 80 OFFCURVE",
"138 139 OFFCURVE",
"138 253 CURVE SMOOTH",
"138 378 OFFCURVE",
"202 459 OFFCURVE",
"312 459 CURVE SMOOTH",
"422 459 OFFCURVE",
"488 378 OFFCURVE",
"488 253 CURVE SMOOTH",
"488 144 OFFCURVE",
"438 80 OFFCURVE",
"374 57 CURVE",
"404 -10 LINE",
"473 -38 OFFCURVE",
"504 -92 OFFCURVE",
"504 -185 CURVE SMOOTH",
"504 -318 OFFCURVE",
"428 -378 OFFCURVE",
"325 -378 CURVE SMOOTH",
"233 -378 OFFCURVE",
"177 -330 OFFCURVE",
"145 -270 CURVE",
"79 -312 LINE",
"142 -413 OFFCURVE",
"233 -446 OFFCURVE",
"331 -446 CURVE SMOOTH"
);
}
);
userData = {
com.schriftgestaltung.Glyphs.category = Letter;
com.schriftgestaltung.Glyphs.lastChange = "2020/09/03 22:42:33";
com.schriftgestaltung.Glyphs.subCategory = Other;
};
width = 647;
},
{
background = {
components = (
{
name = "kaLow-lue";
}
);
};
layerId = UUID0;
paths = (
{
closed = 1;
nodes = (
"463 -446 OFFCURVE",
"592 -365 OFFCURVE",
"592 -190 CURVE SMOOTH",
"592 -80 OFFCURVE",
"539 -8 OFFCURVE",
"445 43 CURVE",
"434 8 LINE",
"496 41 OFFCURVE",
"576 120 OFFCURVE",
"576 253 CURVE SMOOTH",
"576 403 OFFCURVE",
"467 526 OFFCURVE",
"312 525 CURVE SMOOTH",
"157 524 OFFCURVE",
"50 403 OFFCURVE",
"50 252 CURVE SMOOTH",
"50 133 OFFCURVE",
"118 40 OFFCURVE",
"221 -10 CURVE",
"249 60 LINE",
"188 80 OFFCURVE",
"138 139 OFFCURVE",
"138 253 CURVE SMOOTH",
"138 378 OFFCURVE",
"202 459 OFFCURVE",
"312 459 CURVE SMOOTH",
"422 459 OFFCURVE",
"488 378 OFFCURVE",
"488 253 CURVE SMOOTH",
"488 144 OFFCURVE",
"438 80 OFFCURVE",
"374 57 CURVE",
"404 -10 LINE",
"473 -38 OFFCURVE",
"504 -92 OFFCURVE",
"504 -184 CURVE SMOOTH",
"504 -315 OFFCURVE",
"426 -378 OFFCURVE",
"327 -378 CURVE SMOOTH",
"233 -378 OFFCURVE",
"177 -330 OFFCURVE",
"145 -270 CURVE",
"79 -312 LINE",
"142 -413 OFFCURVE",
"235 -446 OFFCURVE",
"332 -446 CURVE SMOOTH"
);
}
);
userData = {
com.schriftgestaltung.Glyphs.category = Letter;
com.schriftgestaltung.Glyphs.lastChange = "2020/09/03 22:42:33";
com.schriftgestaltung.Glyphs.subCategory = Other;
};
width = 647;
}
);
leftKerningGroup = va;
rightKerningGroup = "3";
unicode = 198B;
},
{
color = 0;
glyphname = "saLow-lue";
lastChange = "2022-03-28 20:02:04 +0000";
layers = (
{
background = {
components = (
{
name = "xaLow-lue";
},
{
name = "tsaLow-lue";
transform = "{1, 0, 0, 1, 15, 0}";
}
);
};
layerId = UUID0;
paths = (
{
closed = 1;
nodes = (
"478 -446 OFFCURVE",
"607 -365 OFFCURVE",
"607 -190 CURVE SMOOTH",
"607 -80 OFFCURVE",
"554 -8 OFFCURVE",
"460 43 CURVE",
"449 8 LINE",
"511 41 OFFCURVE",
"591 120 OFFCURVE",
"591 252 CURVE SMOOTH",
"591 403 OFFCURVE",
"482 526 OFFCURVE",
"327 525 CURVE SMOOTH",
"172 524 OFFCURVE",
"65 389 OFFCURVE",
"65 252 CURVE SMOOTH",
"65 133 OFFCURVE",
"133 40 OFFCURVE",
"236 -10 CURVE",
"264 60 LINE",
"203 80 OFFCURVE",
"153 139 OFFCURVE",
"153 253 CURVE SMOOTH",
"153 381 OFFCURVE",
"219 459 OFFCURVE",
"333 459 CURVE SMOOTH",
"439 459 OFFCURVE",
"503 378 OFFCURVE",
"503 253 CURVE SMOOTH",
"503 144 OFFCURVE",
"453 80 OFFCURVE",
"389 57 CURVE",
"419 -10 LINE",
"488 -38 OFFCURVE",
"519 -92 OFFCURVE",
"519 -184 CURVE SMOOTH",
"519 -315 OFFCURVE",
"441 -378 OFFCURVE",
"342 -378 CURVE SMOOTH",
"246 -378 OFFCURVE",
"191 -328 OFFCURVE",
"160 -270 CURVE",
"94 -312 LINE",
"157 -413 OFFCURVE",
"250 -446 OFFCURVE",
"347 -446 CURVE SMOOTH"
);
},
{
closed = 1;
nodes = (
"147 406 LINE",
"147 659 LINE SMOOTH",
"147 797 OFFCURVE",
"203 890 OFFCURVE",
"337 890 CURVE SMOOTH",
"429 890 OFFCURVE",
"481 845 OFFCURVE",
"509 756 CURVE",
"582 781 LINE",
"549 901 OFFCURVE",
"461 960 OFFCURVE",
"330 960 CURVE SMOOTH",
"151 960 OFFCURVE",
"65 843 OFFCURVE",
"65 671 CURVE SMOOTH",
"65 253 LINE"
);
}
);
userData = {
com.schriftgestaltung.Glyphs.category = Letter;
com.schriftgestaltung.Glyphs.lastChange = "2020/09/03 22:42:33";
com.schriftgestaltung.Glyphs.subCategory = Other;
};
width = 662;
},
{
background = {
components = (
{
name = "tsaLow-lue";
transform = "{1, 0, 0, 1, 10, 0}";
}
);
};
layerId = "1FCF787B-CF33-4B83-BE16-73AC6600FEB7";
paths = (
{
closed = 1;
nodes = (
"534 -460 OFFCURVE",
"644 -359 OFFCURVE",
"644 -195 CURVE SMOOTH",
"644 -71 OFFCURVE",
"577 22 OFFCURVE",
"470 68 CURVE",
"483 16 LINE",
"574 72 OFFCURVE",
"624 148 OFFCURVE",
"624 263 CURVE SMOOTH",
"624 433 OFFCURVE",
"502 540 OFFCURVE",
"345 540 CURVE SMOOTH",
"168 540 OFFCURVE",
"50 412 OFFCURVE",
"50 262 CURVE SMOOTH",
"50 129 OFFCURVE",
"120 39 OFFCURVE",
"247 -15 CURVE",
"302 100 LINE",
"238 129 OFFCURVE",
"200 177 OFFCURVE",
"200 265 CURVE SMOOTH",
"200 365 OFFCURVE",
"253 428 OFFCURVE",
"341 428 CURVE SMOOTH",
"425 428 OFFCURVE",
"474 362 OFFCURVE",
"474 265 CURVE SMOOTH",
"474 163 OFFCURVE",
"436 114 OFFCURVE",
"376 87 CURVE",
"422 -26 LINE",
"475 -59 OFFCURVE",
"500 -107 OFFCURVE",
"500 -181 CURVE SMOOTH",
"500 -276 OFFCURVE",
"440 -341 OFFCURVE",
"346 -341 CURVE SMOOTH",
"269 -341 OFFCURVE",
"220 -302 OFFCURVE",
"184 -235 CURVE",
"61 -307 LINE",
"123 -416 OFFCURVE",
"226 -460 OFFCURVE",
"351 -460 CURVE SMOOTH"
);
},
{
closed = 1;
nodes = (
"186 397 LINE",
"186 652 LINE SMOOTH",
"186 785 OFFCURVE",
"245 850 OFFCURVE",
"349 850 CURVE SMOOTH",
"429 850 OFFCURVE",
"468 815 OFFCURVE",
"492 735 CURVE",
"624 775 LINE",
"583 918 OFFCURVE",
"491 975 OFFCURVE",
"342 975 CURVE SMOOTH",
"154 975 OFFCURVE",
"50 865 OFFCURVE",
"50 671 CURVE SMOOTH",
"50 262 LINE"
);
}
);
width = 664;
},
{
associatedMasterId = UUID0;
layerId = "055CBF85-B313-4EC8-ADDE-8091438538A1";
name = "Jan 25 22, 16:01";
paths = (
{
closed = 1;
nodes = (
"503 -278 OFFCURVE",
"563 -167 OFFCURVE",
"563 -85 CURVE SMOOTH",
"563 -26 OFFCURVE",
"526 19 OFFCURVE",
"462 46 CURVE",
"512 96 OFFCURVE",
"549 172 OFFCURVE",
"549 268 CURVE SMOOTH",
"549 451 OFFCURVE",
"431 546 OFFCURVE",
"292 546 CURVE SMOOTH",
"234 546 OFFCURVE",
"181 524 OFFCURVE",
"140 489 CURVE",
"150 671 OFFCURVE",
"189 782 OFFCURVE",
"317 782 CURVE SMOOTH",
"357 782 OFFCURVE",
"417 763 OFFCURVE",
"444 713 CURVE",
"509 764 LINE",
"456 832 OFFCURVE",
"387 850 OFFCURVE",
"330 850 CURVE SMOOTH",
"164 850 OFFCURVE",
"49 689 OFFCURVE",
"49 414 CURVE SMOOTH",
"49 328 LINE SMOOTH",
"49 171 OFFCURVE",
"89 54 OFFCURVE",
"211 -5 CURVE",
"239 63 LINE",
"149 111 OFFCURVE",
"136 205 OFFCURVE",
"136 313 CURVE SMOOTH",
"136 354 LINE SMOOTH",
"136 420 OFFCURVE",
"203 479 OFFCURVE",
"292 479 CURVE SMOOTH",
"396 479 OFFCURVE",
"459 407 OFFCURVE",
"459 273 CURVE SMOOTH",
"459 156 OFFCURVE",
"407 67 OFFCURVE",
"342 67 CURVE SMOOTH",
"326 67 LINE",
"326 0 LINE",
"331 0 OFFCURVE",
"336 0 OFFCURVE",
"341 0 CURVE SMOOTH",
"450 0 OFFCURVE",
"474 -43 OFFCURVE",
"474 -86 CURVE SMOOTH",
"474 -148 OFFCURVE",
"443 -211 OFFCURVE",
"315 -211 CURVE SMOOTH",
"240 -211 OFFCURVE",
"169 -168 OFFCURVE",
"131 -122 CURVE",
"72 -166 LINE",
"136 -246 OFFCURVE",
"245 -278 OFFCURVE",
"315 -278 CURVE SMOOTH"
);
}
);
userData = {
com.schriftgestaltung.Glyphs.category = Letter;
com.schriftgestaltung.Glyphs.lastChange = "2020/09/03 22:42:33";
com.schriftgestaltung.Glyphs.subCategory = Other;
};
width = 598;
},
{
associatedMasterId = UUID0;
layerId = "22901D4B-1E48-4B27-BBCB-2A11CB966BB2";
name = "Feb 1 22, 17:18";
paths = (
{
closed = 1;
nodes = (
"484 -446 OFFCURVE",
"614 -370 OFFCURVE",
"614 -199 CURVE SMOOTH",
"614 -93 OFFCURVE",
"551 -16 OFFCURVE",
"455 22 CURVE",
"461 5 LINE",
"550 63 OFFCURVE",
"604 143 OFFCURVE",
"604 253 CURVE SMOOTH",
"604 397 OFFCURVE",
"488 525 OFFCURVE",
"341 525 CURVE SMOOTH",
"189 525 OFFCURVE",
"70 392 OFFCURVE",
"70 253 CURVE SMOOTH",
"70 126 OFFCURVE",
"151 38 OFFCURVE",
"241 -10 CURVE",
"269 56 LINE",
"208 81 OFFCURVE",
"160 148 OFFCURVE",
"160 263 CURVE SMOOTH",
"160 372 OFFCURVE",
"220 459 OFFCURVE",
"342 459 CURVE SMOOTH",
"445 459 OFFCURVE",
"514 383 OFFCURVE",
"514 263 CURVE SMOOTH",
"514 137 OFFCURVE",
"468 70 OFFCURVE",
"376 36 CURVE",
"389 -24 LINE",
"483 -43 OFFCURVE",
"525 -107 OFFCURVE",
"525 -197 CURVE SMOOTH",
"525 -320 OFFCURVE",
"451 -376 OFFCURVE",
"353 -376 CURVE SMOOTH",
"265 -376 OFFCURVE",
"206 -328 OFFCURVE",
"175 -270 CURVE",
"109 -312 LINE",
"172 -413 OFFCURVE",
"264 -446 OFFCURVE",
"358 -446 CURVE SMOOTH"
);
},
{
closed = 1;
nodes = (
"152 406 LINE",
"152 601 LINE SMOOTH",
"152 765 OFFCURVE",
"189 886 OFFCURVE",
"350 886 CURVE SMOOTH",
"440 886 OFFCURVE",
"494 844 OFFCURVE",
"521 755 CURVE",
"596 780 LINE",
"563 900 OFFCURVE",
"470 959 OFFCURVE",
"343 959 CURVE SMOOTH",
"140 959 OFFCURVE",
"70 820 OFFCURVE",
"70 614 CURVE SMOOTH",
"70 253 LINE"
);
}
);
userData = {
com.schriftgestaltung.Glyphs.category = Letter;
com.schriftgestaltung.Glyphs.lastChange = "2020/09/03 22:42:33";
com.schriftgestaltung.Glyphs.subCategory = Other;
};
width = 654;
}
);
leftKerningGroup = xa;
leftMetricsKey = "xaLow-lue";
rightKerningGroup = "3";
rightMetricsKey = "tsaLow-lue";
unicode = 198C;
},
{
color = 0;
glyphname = "yaLow-lue";
lastChange = "2022-02-14 21:14:18 +0000";
layers = (
{
background = {
components = (
{
name = "kaHigh-lue";
transform = "{-1, 0, 0, -1, 1000, 510}";
}
);
};
layerId = UUID0;
paths = (
{
closed = 1;
nodes = (
"395 -15 OFFCURVE",
"480 39 OFFCURVE",
"507 137 CURVE",
"493 137 LINE",
"519 41 OFFCURVE",
"599 -15 OFFCURVE",
"707 -15 CURVE SMOOTH",
"837 -15 OFFCURVE",
"949 79 OFFCURVE",
"949 257 CURVE SMOOTH",
"949 417 OFFCURVE",
"845 525 OFFCURVE",
"701 525 CURVE SMOOTH",
"657 525 OFFCURVE",
"608 515 OFFCURVE",
"571 488 CURVE",
"611 431 LINE",
"634 450 OFFCURVE",
"668 457 OFFCURVE",
"696 457 CURVE SMOOTH",
"784 457 OFFCURVE",
"861 390 OFFCURVE",
"861 256 CURVE SMOOTH",
"861 125 OFFCURVE",
"791 52 OFFCURVE",
"696 52 CURVE SMOOTH",
"610 52 OFFCURVE",
"553 115 OFFCURVE",
"541 227 CURVE",
"458 227 LINE",
"447 115 OFFCURVE",
"385 52 OFFCURVE",
"299 52 CURVE SMOOTH",
"207 52 OFFCURVE",
"138 125 OFFCURVE",
"138 256 CURVE SMOOTH",
"138 390 OFFCURVE",
"215 457 OFFCURVE",
"303 457 CURVE SMOOTH",
"331 457 OFFCURVE",
"365 450 OFFCURVE",
"388 431 CURVE",
"428 488 LINE",
"391 515 OFFCURVE",
"342 525 OFFCURVE",
"298 525 CURVE SMOOTH",
"154 525 OFFCURVE",
"50 417 OFFCURVE",
"50 257 CURVE SMOOTH",
"50 80 OFFCURVE",
"170 -15 OFFCURVE",
"299 -15 CURVE SMOOTH"
);
}
);
userData = {
com.schriftgestaltung.Glyphs.category = Letter;
com.schriftgestaltung.Glyphs.lastChange = "2020/09/03 22:42:33";
com.schriftgestaltung.Glyphs.subCategory = Other;
};
width = 999;
},
{
layerId = "1FCF787B-CF33-4B83-BE16-73AC6600FEB7";
paths = (
{
closed = 1;
nodes = (
"426 -15 OFFCURVE",
"509 39 OFFCURVE",
"546 143 CURVE",
"482 143 LINE",
"519 39 OFFCURVE",
"598 -15 OFFCURVE",
"714 -15 CURVE SMOOTH",
"874 -15 OFFCURVE",
"984 99 OFFCURVE",
"984 260 CURVE SMOOTH",
"984 427 OFFCURVE",
"871 540 OFFCURVE",
"703 540 CURVE SMOOTH",
"644 540 OFFCURVE",
"593 529 OFFCURVE",
"557 507 CURVE",
"621 394 LINE",
"641 407 OFFCURVE",
"666 414 OFFCURVE",
"700 414 CURVE SMOOTH",
"781 414 OFFCURVE",
"834 357 OFFCURVE",
"834 260 CURVE SMOOTH",
"834 160 OFFCURVE",
"787 107 OFFCURVE",
"711 107 CURVE SMOOTH",
"636 107 OFFCURVE",
"588 170 OFFCURVE",
"583 261 CURVE",
"445 261 LINE",
"440 170 OFFCURVE",
"392 107 OFFCURVE",
"316 107 CURVE SMOOTH",
"241 107 OFFCURVE",
"190 160 OFFCURVE",
"190 260 CURVE SMOOTH",
"190 357 OFFCURVE",
"247 414 OFFCURVE",
"328 414 CURVE SMOOTH",
"362 414 OFFCURVE",
"387 407 OFFCURVE",
"407 394 CURVE",
"467 507 LINE",
"431 529 OFFCURVE",
"380 540 OFFCURVE",
"321 540 CURVE SMOOTH",
"153 540 OFFCURVE",
"40 427 OFFCURVE",
"40 260 CURVE SMOOTH",
"40 99 OFFCURVE",
"150 -15 OFFCURVE",
"310 -15 CURVE SMOOTH"
);
}
);
width = 1024;
},
{
associatedMasterId = UUID0;
layerId = "6ABC0F3D-C45A-4625-8BA6-9DC460568871";
name = "Jan 22 22, 17:54";
paths = (
{
closed = 1;
nodes = (
"365 -10 OFFCURVE",
"439 41 OFFCURVE",
"467 132 CURVE",
"443 132 LINE",
"469 46 OFFCURVE",
"539 -10 OFFCURVE",
"633 -10 CURVE SMOOTH",
"756 -10 OFFCURVE",
"860 85 OFFCURVE",
"860 263 CURVE SMOOTH",
"860 434 OFFCURVE",
"765 546 OFFCURVE",
"626 546 CURVE SMOOTH",
"589 546 OFFCURVE",
"550 538 OFFCURVE",
"512 516 CURVE",
"552 459 LINE",
"577 473 OFFCURVE",
"601 479 OFFCURVE",
"626 479 CURVE SMOOTH",
"713 479 OFFCURVE",
"771 407 OFFCURVE",
"771 267 CURVE SMOOTH",
"771 131 OFFCURVE",
"717 58 OFFCURVE",
"629 58 CURVE SMOOTH",
"547 58 OFFCURVE",
"503 120 OFFCURVE",
"497 212 CURVE",
"414 212 LINE",
"407 120 OFFCURVE",
"363 58 OFFCURVE",
"281 58 CURVE SMOOTH",
"193 58 OFFCURVE",
"140 131 OFFCURVE",
"140 266 CURVE SMOOTH",
"140 407 OFFCURVE",
"197 479 OFFCURVE",
"283 479 CURVE SMOOTH",
"308 479 OFFCURVE",
"334 473 OFFCURVE",
"358 459 CURVE",
"398 516 LINE",
"360 538 OFFCURVE",
"321 546 OFFCURVE",
"284 546 CURVE SMOOTH",
"145 546 OFFCURVE",
"50 434 OFFCURVE",
"50 263 CURVE SMOOTH",
"50 85 OFFCURVE",
"154 -10 OFFCURVE",
"276 -10 CURVE SMOOTH"
);
}
);
userData = {
com.schriftgestaltung.Glyphs.category = Letter;
com.schriftgestaltung.Glyphs.lastChange = "2020/09/03 22:42:33";
com.schriftgestaltung.Glyphs.subCategory = Other;
};
width = 910;
},
{
associatedMasterId = "1FCF787B-CF33-4B83-BE16-73AC6600FEB7";
layerId = "F43648D0-6215-4885-9519-8187CC7B8011";
name = "Jan 22 22, 17:56";
paths = (
{
closed = 1;
nodes = (
"404 -15 OFFCURVE",
"475 32 OFFCURVE",
"513 129 CURVE",
"458 129 LINE",
"495 32 OFFCURVE",
"564 -15 OFFCURVE",
"672 -15 CURVE SMOOTH",
"822 -15 OFFCURVE",
"926 98 OFFCURVE",
"926 264 CURVE SMOOTH",
"926 430 OFFCURVE",
"835 560 OFFCURVE",
"673 560 CURVE SMOOTH",
"619 560 OFFCURVE",
"571 548 OFFCURVE",
"533 524 CURVE",
"607 420 LINE",
"627 432 OFFCURVE",
"648 439 OFFCURVE",
"670 439 CURVE SMOOTH",
"743 439 OFFCURVE",
"775 384 OFFCURVE",
"775 271 CURVE SMOOTH",
"775 163 OFFCURVE",
"735 103 OFFCURVE",
"660 103 CURVE SMOOTH",
"594 103 OFFCURVE",
"558 156 OFFCURVE",
"555 254 CURVE",
"414 254 LINE",
"411 157 OFFCURVE",
"375 103 OFFCURVE",
"308 103 CURVE SMOOTH",
"235 103 OFFCURVE",
"196 162 OFFCURVE",
"196 268 CURVE SMOOTH",
"196 379 OFFCURVE",
"232 439 OFFCURVE",
"304 439 CURVE SMOOTH",
"325 439 OFFCURVE",
"344 432 OFFCURVE",
"363 419 CURVE",
"428 527 LINE",
"393 549 OFFCURVE",
"350 560 OFFCURVE",
"302 560 CURVE SMOOTH",
"142 560 OFFCURVE",
"40 446 OFFCURVE",
"40 268 CURVE SMOOTH",
"40 100 OFFCURVE",
"145 -15 OFFCURVE",
"294 -15 CURVE SMOOTH"
);
}
);
width = 966;
},
{
associatedMasterId = "1FCF787B-CF33-4B83-BE16-73AC6600FEB7";
layerId = "FE6E1C0F-B15A-4210-82DB-7D0A60A5B79B";
name = "Jan 24 22, 16:09";
paths = (
{
closed = 1;
nodes = (
"663 560 OFFCURVE",
"611 548 OFFCURVE",
"575 525 CURVE",
"643 420 LINE",
"663 432 OFFCURVE",
"693 439 OFFCURVE",
"726 439 CURVE SMOOTH",
"811 439 OFFCURVE",
"858 384 OFFCURVE",
"858 271 CURVE SMOOTH",
"858 163 OFFCURVE",
"807 103 OFFCURVE",
"724 103 CURVE SMOOTH",
"647 103 OFFCURVE",
"599 157 OFFCURVE",
"596 259 CURVE",
"455 259 LINE",
"452 158 OFFCURVE",
"402 103 OFFCURVE",
"325 103 CURVE SMOOTH",
"244 103 OFFCURVE",
"196 162 OFFCURVE",
"196 268 CURVE SMOOTH",
"196 379 OFFCURVE",
"251 439 OFFCURVE",
"336 439 CURVE SMOOTH",
"368 439 OFFCURVE",
"392 432 OFFCURVE",
"411 419 CURVE",
"472 527 LINE",
"437 549 OFFCURVE",
"390 560 OFFCURVE",
"333 560 CURVE SMOOTH",
"159 560 OFFCURVE",
"40 446 OFFCURVE",
"40 268 CURVE SMOOTH",
"40 100 OFFCURVE",
"160 -15 OFFCURVE",
"322 -15 CURVE SMOOTH",
"438 -15 OFFCURVE",
"522 39 OFFCURVE",
"560 141 CURVE",
"505 141 LINE",
"542 39 OFFCURVE",
"614 -15 OFFCURVE",
"733 -15 CURVE SMOOTH",
"893 -15 OFFCURVE",
"1010 98 OFFCURVE",
"1010 264 CURVE SMOOTH",
"1010 430 OFFCURVE",
"902 560 OFFCURVE",
"726 560 CURVE SMOOTH"
);
}
);
width = 1050;
},
{
associatedMasterId = UUID0;
background = {
components = (
{
name = "kaHigh-lue";
transform = "{-1, 0, 0, -1, 980, 510}";
}
);
};
layerId = "19918E22-4993-424C-8E66-B47C6E1697DF";
name = "Feb 2 22, 13:43";
paths = (
{
closed = 1;
nodes = (
"631 525 OFFCURVE",
"592 517 OFFCURVE",
"557 495 CURVE",
"598 435 LINE",
"619 450 OFFCURVE",
"648 457 OFFCURVE",
"676 457 CURVE SMOOTH",
"764 457 OFFCURVE",
"837 389 OFFCURVE",
"837 264 CURVE SMOOTH",
"837 135 OFFCURVE",
"770 62 OFFCURVE",
"674 62 CURVE SMOOTH",
"591 62 OFFCURVE",
"539 125 OFFCURVE",
"531 227 CURVE",
"448 227 LINE",
"441 125 OFFCURVE",
"385 62 OFFCURVE",
"300 62 CURVE SMOOTH",
"210 62 OFFCURVE",
"142 136 OFFCURVE",
"142 264 CURVE SMOOTH",
"142 389 OFFCURVE",
"219 457 OFFCURVE",
"309 457 CURVE SMOOTH",
"334 457 OFFCURVE",
"360 452 OFFCURVE",
"382 437 CURVE",
"422 495 LINE",
"387 517 OFFCURVE",
"344 525 OFFCURVE",
"305 525 CURVE SMOOTH",
"159 525 OFFCURVE",
"50 420 OFFCURVE",
"50 261 CURVE SMOOTH",
"50 91 OFFCURVE",
"170 -5 OFFCURVE",
"298 -5 CURVE SMOOTH",
"395 -5 OFFCURVE",
"476 49 OFFCURVE",
"503 147 CURVE",
"478 147 LINE",
"504 51 OFFCURVE",
"575 -5 OFFCURVE",
"681 -5 CURVE SMOOTH",
"812 -5 OFFCURVE",
"925 89 OFFCURVE",
"925 260 CURVE SMOOTH",
"925 414 OFFCURVE",
"813 525 OFFCURVE",
"671 525 CURVE SMOOTH"
);
}
);
userData = {
com.schriftgestaltung.Glyphs.category = Letter;
com.schriftgestaltung.Glyphs.lastChange = "2020/09/03 22:42:33";
com.schriftgestaltung.Glyphs.subCategory = Other;
};
width = 975;
},
{
associatedMasterId = UUID0;
background = {
components = (
{
name = "kaHigh-lue";
transform = "{-1, 0, 0, -1, 984, 510}";
}
);
};
layerId = "882E2052-4E53-474E-9161-956170DF2524";
name = "Feb 2 22, 15:00";
paths = (
{
closed = 1;
nodes = (
"639 525 OFFCURVE",
"598 517 OFFCURVE",
"563 495 CURVE",
"601 438 LINE",
"627 452 OFFCURVE",
"655 457 OFFCURVE",
"680 457 CURVE SMOOTH",
"770 457 OFFCURVE",
"844 396 OFFCURVE",
"844 259 CURVE SMOOTH",
"844 128 OFFCURVE",
"778 52 OFFCURVE",
"683 52 CURVE SMOOTH",
"597 52 OFFCURVE",
"540 115 OFFCURVE",
"533 222 CURVE",
"450 222 LINE",
"444 115 OFFCURVE",
"382 52 OFFCURVE",
"296 52 CURVE SMOOTH",
"204 52 OFFCURVE",
"139 128 OFFCURVE",
"139 259 CURVE SMOOTH",
"139 396 OFFCURVE",
"214 457 OFFCURVE",
"304 457 CURVE SMOOTH",
"329 457 OFFCURVE",
"356 452 OFFCURVE",
"381 438 CURVE",
"421 495 LINE",
"386 517 OFFCURVE",
"343 525 OFFCURVE",
"303 525 CURVE SMOOTH",
"157 525 OFFCURVE",
"50 417 OFFCURVE",
"50 255 CURVE SMOOTH",
"50 83 OFFCURVE",
"167 -15 OFFCURVE",
"296 -15 CURVE SMOOTH",
"392 -15 OFFCURVE",
"477 39 OFFCURVE",
"504 137 CURVE",
"480 137 LINE",
"506 41 OFFCURVE",
"586 -15 OFFCURVE",
"694 -15 CURVE SMOOTH",
"824 -15 OFFCURVE",
"934 82 OFFCURVE",
"934 254 CURVE SMOOTH",
"934 421 OFFCURVE",
"823 525 OFFCURVE",
"679 525 CURVE SMOOTH"
);
}
);
userData = {
com.schriftgestaltung.Glyphs.category = Letter;
com.schriftgestaltung.Glyphs.lastChange = "2020/09/03 22:42:33";
com.schriftgestaltung.Glyphs.subCategory = Other;
};
width = 984;
},
{
associatedMasterId = "1FCF787B-CF33-4B83-BE16-73AC6600FEB7";
layerId = "874FC262-575C-45FD-AC4D-3549E94509B5";
name = "Feb 9 22, 15:37";
paths = (
{
closed = 1;
nodes = (
"638 540 OFFCURVE",
"587 528 OFFCURVE",
"550 505 CURVE",
"619 399 LINE",
"638 411 OFFCURVE",
"662 418 OFFCURVE",
"694 418 CURVE SMOOTH",
"778 418 OFFCURVE",
"822 366 OFFCURVE",
"822 267 CURVE SMOOTH",
"822 166 OFFCURVE",
"779 108 OFFCURVE",
"699 108 CURVE SMOOTH",
"624 108 OFFCURVE",
"580 163 OFFCURVE",
"579 258 CURVE",
"437 258 LINE",
"435 163 OFFCURVE",
"389 108 OFFCURVE",
"314 108 CURVE SMOOTH",
"236 108 OFFCURVE",
"195 164 OFFCURVE",
"195 264 CURVE SMOOTH",
"195 361 OFFCURVE",
"244 418 OFFCURVE",
"328 418 CURVE SMOOTH",
"361 418 OFFCURVE",
"383 411 OFFCURVE",
"401 398 CURVE",
"463 507 LINE",
"427 529 OFFCURVE",
"381 540 OFFCURVE",
"326 540 CURVE SMOOTH",
"153 540 OFFCURVE",
"40 431 OFFCURVE",
"40 264 CURVE SMOOTH",
"40 103 OFFCURVE",
"148 -11 OFFCURVE",
"309 -11 CURVE SMOOTH",
"423 -11 OFFCURVE",
"505 42 OFFCURVE",
"542 143 CURVE",
"487 143 LINE",
"524 41 OFFCURVE",
"596 -11 OFFCURVE",
"711 -11 CURVE SMOOTH",
"869 -11 OFFCURVE",
"974 100 OFFCURVE",
"974 260 CURVE SMOOTH",
"974 417 OFFCURVE",
"869 540 OFFCURVE",
"699 540 CURVE SMOOTH"
);
}
);
width = 1014;
}
);
leftKerningGroup = va;
leftMetricsKey = "kaHigh-lue";
rightKerningGroup = va;
rightMetricsKey = "kaHigh-lue";
unicode = 198D;
},
{
color = 0;
glyphname = "taHigh-lue";
lastChange = "2022-02-14 21:13:42 +0000";
layers = (
{
anchors = (
{
name = bottom;
position = "{524, 0}";
}
);
background = {
components = (
{
name = "vaLow-lue";
}
);
};
layerId = "1FCF787B-CF33-4B83-BE16-73AC6600FEB7";
paths = (
{
closed = 1;
nodes = (
"484 -15 OFFCURVE",
"598 94 OFFCURVE",
"598 263 CURVE SMOOTH",
"598 431 OFFCURVE",
"484 540 OFFCURVE",
"319 540 CURVE SMOOTH",
"154 540 OFFCURVE",
"40 431 OFFCURVE",
"40 263 CURVE SMOOTH",
"40 94 OFFCURVE",
"154 -15 OFFCURVE",
"319 -15 CURVE SMOOTH"
);
},
{
closed = 1;
nodes = (
"242 97 OFFCURVE",
"190 158 OFFCURVE",
"190 263 CURVE SMOOTH",
"190 368 OFFCURVE",
"244 428 OFFCURVE",
"322 428 CURVE SMOOTH",
"398 428 OFFCURVE",
"448 368 OFFCURVE",
"448 263 CURVE SMOOTH",
"448 158 OFFCURVE",
"396 97 OFFCURVE",
"319 97 CURVE SMOOTH"
);
},
{
closed = 1;
nodes = (
"907 -15 OFFCURVE",
"1008 97 OFFCURVE",
"1008 262 CURVE SMOOTH",
"1008 425 OFFCURVE",
"900 540 OFFCURVE",
"727 540 CURVE SMOOTH",
"615 540 OFFCURVE",
"545 491 OFFCURVE",
"494 430 CURVE",
"563 284 LINE",
"587 367 OFFCURVE",
"658 418 OFFCURVE",
"731 418 CURVE SMOOTH",
"811 418 OFFCURVE",
"858 364 OFFCURVE",
"858 263 CURVE SMOOTH",
"858 167 OFFCURVE",
"818 111 OFFCURVE",
"735 111 CURVE SMOOTH",
"703 111 OFFCURVE",
"678 118 OFFCURVE",
"658 131 CURVE",
"594 18 LINE",
"630 -4 OFFCURVE",
"681 -15 OFFCURVE",
"740 -15 CURVE SMOOTH"
);
}
);
width = 1048;
},
{
associatedMasterId = UUID0;
layerId = "B0EB04D2-0B7E-4340-A34D-C6CA47DE40E9";
name = "Jan 20 22, 14:00";
paths = (
{
closed = 1;
nodes = (
"423 -10 OFFCURVE",
"505 110 OFFCURVE",
"505 269 CURVE SMOOTH",
"505 292 OFFCURVE",
"503 315 OFFCURVE",
"500 337 CURVE",
"510 422 OFFCURVE",
"553 479 OFFCURVE",
"625 479 CURVE SMOOTH",
"716 479 OFFCURVE",
"770 404 OFFCURVE",
"770 275 CURVE SMOOTH",
"770 141 OFFCURVE",
"712 58 OFFCURVE",
"624 58 CURVE SMOOTH",
"602 58 OFFCURVE",
"576 63 OFFCURVE",
"551 77 CURVE",
"511 20 LINE",
"549 -2 OFFCURVE",
"587 -10 OFFCURVE",
"628 -10 CURVE SMOOTH",
"753 -10 OFFCURVE",
"859 83 OFFCURVE",
"859 281 CURVE SMOOTH",
"859 456 OFFCURVE",
"755 546 OFFCURVE",
"628 546 CURVE SMOOTH",
"572 546 OFFCURVE",
"499 520 OFFCURVE",
"456 452 CURVE",
"417 510 OFFCURVE",
"357 546 OFFCURVE",
"278 546 CURVE SMOOTH",
"134 546 OFFCURVE",
"49 426 OFFCURVE",
"49 269 CURVE SMOOTH",
"49 110 OFFCURVE",
"143 -10 OFFCURVE",
"275 -10 CURVE SMOOTH"
);
},
{
closed = 1;
nodes = (
"188 58 OFFCURVE",
"139 142 OFFCURVE",
"139 269 CURVE SMOOTH",
"139 396 OFFCURVE",
"187 479 OFFCURVE",
"276 479 CURVE SMOOTH",
"371 479 OFFCURVE",
"416 396 OFFCURVE",
"416 269 CURVE SMOOTH",
"416 142 OFFCURVE",
"371 58 OFFCURVE",
"277 58 CURVE SMOOTH"
);
}
);
userData = {
com.schriftgestaltung.Glyphs.category = Letter;
com.schriftgestaltung.Glyphs.lastChange = "2020/09/03 22:42:33";
com.schriftgestaltung.Glyphs.subCategory = Other;
};
width = 908;
},
{
associatedMasterId = "1FCF787B-CF33-4B83-BE16-73AC6600FEB7";
layerId = "F4E769BC-FC7B-414D-99F4-B8929CE32876";
name = "Jan 20 22, 19:11";
paths = (
{
closed = 1;
nodes = (
"457 -15 OFFCURVE",
"564 100 OFFCURVE",
"564 274 CURVE SMOOTH",
"564 445 OFFCURVE",
"457 560 OFFCURVE",
"303 560 CURVE SMOOTH",
"149 560 OFFCURVE",
"40 444 OFFCURVE",
"40 274 CURVE SMOOTH",
"40 109 OFFCURVE",
"152 -15 OFFCURVE",
"300 -15 CURVE SMOOTH"
);
},
{
closed = 1;
nodes = (
"236 96 OFFCURVE",
"190 156 OFFCURVE",
"190 274 CURVE SMOOTH",
"190 392 OFFCURVE",
"236 451 OFFCURVE",
"303 451 CURVE SMOOTH",
"372 451 OFFCURVE",
"415 395 OFFCURVE",
"415 274 CURVE SMOOTH",
"415 153 OFFCURVE",
"371 96 OFFCURVE",
"302 96 CURVE SMOOTH"
);
},
{
closed = 1;
nodes = (
"826 -15 OFFCURVE",
"923 99 OFFCURVE",
"923 277 CURVE SMOOTH",
"923 445 OFFCURVE",
"817 560 OFFCURVE",
"665 560 CURVE SMOOTH",
"580 560 OFFCURVE",
"518 526 OFFCURVE",
"477 462 CURVE",
"541 319 LINE",
"555 402 OFFCURVE",
"600 442 OFFCURVE",
"664 442 CURVE SMOOTH",
"737 442 OFFCURVE",
"773 383 OFFCURVE",
"773 277 CURVE SMOOTH",
"773 166 OFFCURVE",
"736 106 OFFCURVE",
"669 106 CURVE SMOOTH",
"645 106 OFFCURVE",
"626 112 OFFCURVE",
"610 127 CURVE",
"558 16 LINE",
"588 -6 OFFCURVE",
"628 -15 OFFCURVE",
"676 -15 CURVE SMOOTH"
);
}
);
width = 963;
},
{
associatedMasterId = UUID0;
layerId = "5F5F229D-928D-407C-9B38-48A4082091B8";
name = "Jan 22 22, 19:36";
paths = (
{
closed = 1;
nodes = (
"424 -10 OFFCURVE",
"506 110 OFFCURVE",
"506 269 CURVE SMOOTH",
"506 426 OFFCURVE",
"423 546 OFFCURVE",
"279 546 CURVE SMOOTH",
"135 546 OFFCURVE",
"50 426 OFFCURVE",
"50 269 CURVE SMOOTH",
"50 110 OFFCURVE",
"144 -10 OFFCURVE",
"276 -10 CURVE SMOOTH"
);
},
{
closed = 1;
nodes = (
"189 56 OFFCURVE",
"140 140 OFFCURVE",
"140 269 CURVE SMOOTH",
"140 398 OFFCURVE",
"188 481 OFFCURVE",
"277 481 CURVE SMOOTH",
"372 481 OFFCURVE",
"417 398 OFFCURVE",
"417 269 CURVE SMOOTH",
"417 140 OFFCURVE",
"372 56 OFFCURVE",
"278 56 CURVE SMOOTH"
);
},
{
closed = 1;
nodes = (
"768 -10 OFFCURVE",
"860 86 OFFCURVE",
"860 271 CURVE SMOOTH",
"860 436 OFFCURVE",
"775 546 OFFCURVE",
"632 546 CURVE SMOOTH",
"544 546 OFFCURVE",
"479 499 OFFCURVE",
"442 422 CURVE",
"481 303 LINE",
"492 405 OFFCURVE",
"556 478 OFFCURVE",
"638 478 CURVE SMOOTH",
"722 478 OFFCURVE",
"771 404 OFFCURVE",
"771 277 CURVE SMOOTH",
"771 141 OFFCURVE",
"725 58 OFFCURVE",
"638 58 CURVE SMOOTH",
"613 58 OFFCURVE",
"588 64 OFFCURVE",
"565 80 CURVE",
"525 23 LINE",
"562 -1 OFFCURVE",
"602 -10 OFFCURVE",
"641 -10 CURVE SMOOTH"
);
}
);
userData = {
com.schriftgestaltung.Glyphs.category = Letter;
com.schriftgestaltung.Glyphs.lastChange = "2020/09/03 22:42:33";
com.schriftgestaltung.Glyphs.subCategory = Other;
};
width = 910;
},
{
associatedMasterId = "1FCF787B-CF33-4B83-BE16-73AC6600FEB7";
layerId = "A4AB50F7-801D-4F0C-A64E-791F5439C02B";
name = "Feb 10 22, 11:35";
paths = (
{
closed = 1;
nodes = (
"475 -15 OFFCURVE",
"584 86 OFFCURVE",
"584 254 CURVE SMOOTH",
"584 420 OFFCURVE",
"473 530 OFFCURVE",
"313 530 CURVE SMOOTH",
"151 530 OFFCURVE",
"40 420 OFFCURVE",
"40 254 CURVE SMOOTH",
"40 86 OFFCURVE",
"154 -15 OFFCURVE",
"313 -15 CURVE SMOOTH"
);
},
{
closed = 1;
nodes = (
"239 96 OFFCURVE",
"190 148 OFFCURVE",
"190 257 CURVE SMOOTH",
"190 365 OFFCURVE",
"240 421 OFFCURVE",
"313 421 CURVE SMOOTH",
"386 421 OFFCURVE",
"435 365 OFFCURVE",
"435 257 CURVE SMOOTH",
"435 148 OFFCURVE",
"385 96 OFFCURVE",
"312 96 CURVE SMOOTH"
);
},
{
closed = 1;
nodes = (
"876 -15 OFFCURVE",
"985 90 OFFCURVE",
"985 260 CURVE SMOOTH",
"985 426 OFFCURVE",
"864 540 OFFCURVE",
"710 540 CURVE SMOOTH",
"621 540 OFFCURVE",
"548 502 OFFCURVE",
"497 441 CURVE",
"566 299 LINE",
"590 382 OFFCURVE",
"651 423 OFFCURVE",
"714 423 CURVE SMOOTH",
"793 423 OFFCURVE",
"835 365 OFFCURVE",
"835 262 CURVE SMOOTH",
"835 158 OFFCURVE",
"789 105 OFFCURVE",
"713 105 CURVE SMOOTH",
"687 105 OFFCURVE",
"662 113 OFFCURVE",
"643 127 CURVE",
"581 25 LINE",
"621 -3 OFFCURVE",
"672 -15 OFFCURVE",
"721 -15 CURVE SMOOTH"
);
}
);
width = 1025;
},
{
anchors = (
{
name = bottom;
position = "{515, 0}";
}
);
associatedMasterId = UUID0;
background = {
components = (
{
name = "vaLow-lue";
},
{
name = "kaHigh-lue";
transform = "{1, 0, 0, 1, 30, 0}";
}
);
};
layerId = "6E68A431-35AC-4E55-A6E1-98CE5E7A03E8";
name = "Feb 10 22, 11:39";
paths = (
{
closed = 1;
nodes = (
"457 -15 OFFCURVE",
"560 101 OFFCURVE",
"560 256 CURVE SMOOTH",
"560 409 OFFCURVE",
"457 525 OFFCURVE",
"305 525 CURVE SMOOTH",
"153 525 OFFCURVE",
"50 409 OFFCURVE",
"50 256 CURVE SMOOTH",
"50 101 OFFCURVE",
"153 -15 OFFCURVE",
"305 -15 CURVE SMOOTH"
);
},
{
closed = 1;
nodes = (
"202 50 OFFCURVE",
"140 124 OFFCURVE",
"140 256 CURVE SMOOTH",
"140 386 OFFCURVE",
"206 460 OFFCURVE",
"305 460 CURVE SMOOTH",
"411 460 OFFCURVE",
"470 386 OFFCURVE",
"470 256 CURVE SMOOTH",
"470 124 OFFCURVE",
"408 50 OFFCURVE",
"305 50 CURVE SMOOTH"
);
},
{
closed = 1;
nodes = (
"875 -15 OFFCURVE",
"979 93 OFFCURVE",
"979 253 CURVE SMOOTH",
"979 411 OFFCURVE",
"872 525 OFFCURVE",
"723 525 CURVE SMOOTH",
"629 525 OFFCURVE",
"547 478 OFFCURVE",
"507 401 CURVE",
"543 282 LINE",
"555 386 OFFCURVE",
"631 459 OFFCURVE",
"728 459 CURVE SMOOTH",
"826 459 OFFCURVE",
"892 381 OFFCURVE",
"892 256 CURVE SMOOTH",
"892 120 OFFCURVE",
"814 53 OFFCURVE",
"726 53 CURVE SMOOTH",
"698 53 OFFCURVE",
"664 60 OFFCURVE",
"641 79 CURVE",
"601 22 LINE",
"638 -5 OFFCURVE",
"687 -15 OFFCURVE",
"731 -15 CURVE SMOOTH"
);
}
);
userData = {
com.schriftgestaltung.Glyphs.category = Letter;
com.schriftgestaltung.Glyphs.lastChange = "2020/09/03 22:42:33";
com.schriftgestaltung.Glyphs.subCategory = Other;
};
width = 1029;
},
{
anchors = (
{
name = bottom;
position = "{515, 0}";
}
);
background = {
components = (
{
name = "vaLow-lue";
},
{
name = "kaHigh-lue";
transform = "{1, 0, 0, 1, 30, 0}";
}
);
};
layerId = UUID0;
paths = (
{
closed = 1;
nodes = (
"457 -15 OFFCURVE",
"560 101 OFFCURVE",
"560 256 CURVE SMOOTH",
"560 409 OFFCURVE",
"457 525 OFFCURVE",
"305 525 CURVE SMOOTH",
"153 525 OFFCURVE",
"50 409 OFFCURVE",
"50 256 CURVE SMOOTH",
"50 101 OFFCURVE",
"153 -15 OFFCURVE",
"305 -15 CURVE SMOOTH"
);
},
{
closed = 1;
nodes = (
"202 50 OFFCURVE",
"138 124 OFFCURVE",
"138 256 CURVE SMOOTH",
"138 386 OFFCURVE",
"206 460 OFFCURVE",
"305 460 CURVE SMOOTH",
"411 460 OFFCURVE",
"472 386 OFFCURVE",
"472 256 CURVE SMOOTH",
"472 124 OFFCURVE",
"408 50 OFFCURVE",
"305 50 CURVE SMOOTH"
);
},
{
closed = 1;
nodes = (
"884 -15 OFFCURVE",
"979 93 OFFCURVE",
"979 250 CURVE SMOOTH",
"979 411 OFFCURVE",
"873 525 OFFCURVE",
"723 525 CURVE SMOOTH",
"629 525 OFFCURVE",
"547 478 OFFCURVE",
"507 401 CURVE",
"543 282 LINE",
"555 386 OFFCURVE",
"633 459 OFFCURVE",
"728 459 CURVE SMOOTH",
"826 459 OFFCURVE",
"891 378 OFFCURVE",
"891 253 CURVE SMOOTH",
"891 115 OFFCURVE",
"823 53 OFFCURVE",
"735 53 CURVE SMOOTH",
"707 53 OFFCURVE",
"673 60 OFFCURVE",
"650 79 CURVE",
"610 22 LINE",
"647 -5 OFFCURVE",
"696 -15 OFFCURVE",
"740 -15 CURVE SMOOTH"
);
}
);
userData = {
com.schriftgestaltung.Glyphs.category = Letter;
com.schriftgestaltung.Glyphs.lastChange = "2020/09/03 22:42:33";
com.schriftgestaltung.Glyphs.subCategory = Other;
};
width = 1029;
}
);
leftKerningGroup = va;
leftMetricsKey = "kaHigh-lue";
rightKerningGroup = va;
rightMetricsKey = "kaHigh-lue";
unicode = 198E;
},
{
color = 0;
glyphname = "thaHigh-lue";
lastChange = "2022-03-02 17:28:26 +0000";
layers = (
{
background = {
components = (
{
name = "tsaHigh-lue";
}
);
};
layerId = UUID0;
paths = (
{
closed = 1;
nodes = (
"464 -446 OFFCURVE",
"574 -368 OFFCURVE",
"574 -189 CURVE SMOOTH",
"575 265 LINE SMOOTH",
"575 419 OFFCURVE",
"473 525 OFFCURVE",
"277 525 CURVE SMOOTH",
"117 525 OFFCURVE",
"60 456 OFFCURVE",
"60 382 CURVE SMOOTH",
"60 307 OFFCURVE",
"115 271 OFFCURVE",
"177 253 CURVE",
"178 272 LINE",
"111 253 OFFCURVE",
"60 215 OFFCURVE",
"60 135 CURVE SMOOTH",
"60 36 OFFCURVE",
"139 -15 OFFCURVE",
"247 -15 CURVE SMOOTH",
"288 -15 OFFCURVE",
"324 -9 OFFCURVE",
"358 10 CURVE",
"326 72 LINE",
"304 59 OFFCURVE",
"277 53 OFFCURVE",
"247 53 CURVE SMOOTH",
"191 53 OFFCURVE",
"148 74 OFFCURVE",
"148 135 CURVE SMOOTH",
"148 190 OFFCURVE",
"184 226 OFFCURVE",
"277 226 CURVE SMOOTH",
"301 226 LINE",
"301 285 LINE",
"237 285 OFFCURVE",
"146 298 OFFCURVE",
"146 374 CURVE SMOOTH",
"146 425 OFFCURVE",
"190 459 OFFCURVE",
"287 459 CURVE SMOOTH",
"422 459 OFFCURVE",
"493 396 OFFCURVE",
"493 262 CURVE SMOOTH",
"492 -183 LINE SMOOTH",
"492 -314 OFFCURVE",
"422 -374 OFFCURVE",
"312 -374 CURVE SMOOTH",
"221 -374 OFFCURVE",
"159 -330 OFFCURVE",
"132 -241 CURVE",
"60 -267 LINE",
"93 -387 OFFCURVE",
"190 -446 OFFCURVE",
"319 -446 CURVE SMOOTH"
);
}
);
userData = {
com.schriftgestaltung.Glyphs.category = Letter;
com.schriftgestaltung.Glyphs.lastChange = "2020/09/03 22:42:33";
com.schriftgestaltung.Glyphs.subCategory = Other;
};
width = 635;
},
{
background = {
components = (
{
name = "tsaHigh-lue";
}
);
};
layerId = "1FCF787B-CF33-4B83-BE16-73AC6600FEB7";
paths = (
{
closed = 1;
nodes = (
"513 -460 OFFCURVE",
"609 -362 OFFCURVE",
"609 -186 CURVE SMOOTH",
"610 265 LINE SMOOTH",
"610 448 OFFCURVE",
"486 540 OFFCURVE",
"296 540 CURVE SMOOTH",
"128 540 OFFCURVE",
"50 475 OFFCURVE",
"50 385 CURVE SMOOTH",
"50 318 OFFCURVE",
"91 274 OFFCURVE",
"185 252 CURVE",
"185 273 LINE",
"91 255 OFFCURVE",
"50 209 OFFCURVE",
"50 136 CURVE SMOOTH",
"50 36 OFFCURVE",
"132 -15 OFFCURVE",
"258 -15 CURVE SMOOTH",
"323 -15 OFFCURVE",
"365 -3 OFFCURVE",
"397 12 CURVE",
"356 122 LINE",
"335 111 OFFCURVE",
"305 101 OFFCURVE",
"270 101 CURVE SMOOTH",
"227 101 OFFCURVE",
"200 113 OFFCURVE",
"200 146 CURVE SMOOTH",
"200 184 OFFCURVE",
"231 203 OFFCURVE",
"304 203 CURVE SMOOTH",
"340 203 LINE",
"340 312 LINE",
"247 312 OFFCURVE",
"200 324 OFFCURVE",
"200 368 CURVE SMOOTH",
"200 403 OFFCURVE",
"228 435 OFFCURVE",
"316 434 CURVE SMOOTH",
"412 433 OFFCURVE",
"474 380 OFFCURVE",
"474 262 CURVE SMOOTH",
"473 -164 LINE SMOOTH",
"473 -276 OFFCURVE",
"422 -331 OFFCURVE",
"339 -331 CURVE SMOOTH",
"266 -331 OFFCURVE",
"213 -300 OFFCURVE",
"188 -219 CURVE",
"55 -266 LINE",
"99 -404 OFFCURVE",
"201 -460 OFFCURVE",
"343 -460 CURVE SMOOTH"
);
}
);
width = 660;
},
{
associatedMasterId = UUID0;
layerId = "F7BA6933-4DB5-4765-B24C-DF54D49FEB5C";
name = "Jan 26 22, 12:08";
paths = (
{
closed = 1;
nodes = (
"484 -278 OFFCURVE",
"581 -80 OFFCURVE",
"581 169 CURVE SMOOTH",
"581 373 OFFCURVE",
"478 546 OFFCURVE",
"278 546 CURVE SMOOTH",
"121 546 OFFCURVE",
"49 463 OFFCURVE",
"49 409 CURVE SMOOTH",
"49 343 OFFCURVE",
"88 313 OFFCURVE",
"139 292 CURVE",
"81 267 OFFCURVE",
"49 218 OFFCURVE",
"49 162 CURVE SMOOTH",
"49 83 OFFCURVE",
"101 -10 OFFCURVE",
"256 -10 CURVE SMOOTH",
"318 -10 OFFCURVE",
"358 7 OFFCURVE",
"398 28 CURVE",
"365 87 LINE",
"339 71 OFFCURVE",
"315 58 OFFCURVE",
"263 58 CURVE SMOOTH",
"196 58 OFFCURVE",
"139 90 OFFCURVE",
"139 164 CURVE SMOOTH",
"139 208 OFFCURVE",
"166 257 OFFCURVE",
"266 257 CURVE SMOOTH",
"272 257 OFFCURVE",
"289 257 OFFCURVE",
"295 256 CURVE",
"295 315 LINE",
"290 315 LINE SMOOTH",
"235 315 OFFCURVE",
"139 321 OFFCURVE",
"139 401 CURVE SMOOTH",
"139 452 OFFCURVE",
"203 479 OFFCURVE",
"277 479 CURVE SMOOTH",
"406 479 OFFCURVE",
"491 399 OFFCURVE",
"491 169 CURVE SMOOTH",
"491 -13 OFFCURVE",
"473 -211 OFFCURVE",
"290 -211 CURVE SMOOTH",
"270 -211 OFFCURVE",
"245 -205 OFFCURVE",
"222 -194 CURVE",
"189 -259 LINE",
"223 -273 OFFCURVE",
"253 -278 OFFCURVE",
"283 -278 CURVE SMOOTH"
);
}
);
userData = {
com.schriftgestaltung.Glyphs.category = Letter;
com.schriftgestaltung.Glyphs.lastChange = "2020/09/03 22:42:33";
com.schriftgestaltung.Glyphs.subCategory = Other;
};
width = 629;
},
{
associatedMasterId = UUID0;
layerId = "E3691E9B-B44F-4252-9B2B-FAF9945B7AB4";
name = "Feb 2 22, 13:02";
paths = (
{
closed = 1;
nodes = (
"514 -446 OFFCURVE",
"587 -339 OFFCURVE",
"588 -125 CURVE SMOOTH",
"589 178 LINE SMOOTH",
"590 393 OFFCURVE",
"489 525 OFFCURVE",
"277 525 CURVE SMOOTH",
"123 525 OFFCURVE",
"50 461 OFFCURVE",
"50 377 CURVE SMOOTH",
"50 305 OFFCURVE",
"105 271 OFFCURVE",
"167 253 CURVE",
"168 272 LINE",
"101 253 OFFCURVE",
"50 213 OFFCURVE",
"50 138 CURVE SMOOTH",
"50 41 OFFCURVE",
"130 -10 OFFCURVE",
"239 -10 CURVE SMOOTH",
"316 -10 OFFCURVE",
"378 13 OFFCURVE",
"431 75 CURVE",
"377 124 LINE",
"345 86 OFFCURVE",
"300 58 OFFCURVE",
"239 58 CURVE SMOOTH",
"182 58 OFFCURVE",
"138 78 OFFCURVE",
"138 139 CURVE SMOOTH",
"138 190 OFFCURVE",
"174 226 OFFCURVE",
"267 226 CURVE SMOOTH",
"307 226 LINE",
"307 285 LINE",
"227 285 OFFCURVE",
"136 297 OFFCURVE",
"136 370 CURVE SMOOTH",
"136 424 OFFCURVE",
"184 458 OFFCURVE",
"286 458 CURVE SMOOTH",
"452 458 OFFCURVE",
"508 349 OFFCURVE",
"507 183 CURVE SMOOTH",
"506 -111 LINE SMOOTH",
"505 -284 OFFCURVE",
"470 -376 OFFCURVE",
"316 -376 CURVE SMOOTH",
"210 -376 OFFCURVE",
"152 -327 OFFCURVE",
"125 -213 CURVE",
"53 -239 LINE",
"81 -380 OFFCURVE",
"176 -446 OFFCURVE",
"316 -446 CURVE SMOOTH"
);
}
);
userData = {
com.schriftgestaltung.Glyphs.category = Letter;
com.schriftgestaltung.Glyphs.lastChange = "2020/09/03 22:42:33";
com.schriftgestaltung.Glyphs.subCategory = Other;
};
width = 651;
},
{
associatedMasterId = UUID0;
layerId = "91644F3D-11CC-417E-B3E2-E3742AADAA01";
name = "Feb 3 22, 16:27";
paths = (
{
closed = 1;
nodes = (
"469 -446 OFFCURVE",
"574 -368 OFFCURVE",
"574 -189 CURVE SMOOTH",
"575 178 LINE SMOOTH",
"576 393 OFFCURVE",
"499 525 OFFCURVE",
"287 525 CURVE SMOOTH",
"133 525 OFFCURVE",
"60 461 OFFCURVE",
"60 377 CURVE SMOOTH",
"60 305 OFFCURVE",
"115 271 OFFCURVE",
"177 253 CURVE",
"178 272 LINE",
"111 253 OFFCURVE",
"60 213 OFFCURVE",
"60 138 CURVE SMOOTH",
"60 41 OFFCURVE",
"140 -10 OFFCURVE",
"249 -10 CURVE SMOOTH",
"326 -10 OFFCURVE",
"388 13 OFFCURVE",
"441 75 CURVE",
"387 124 LINE",
"355 86 OFFCURVE",
"310 58 OFFCURVE",
"249 58 CURVE SMOOTH",
"192 58 OFFCURVE",
"148 78 OFFCURVE",
"148 139 CURVE SMOOTH",
"148 190 OFFCURVE",
"184 226 OFFCURVE",
"277 226 CURVE SMOOTH",
"317 226 LINE",
"317 285 LINE",
"237 285 OFFCURVE",
"146 297 OFFCURVE",
"146 370 CURVE SMOOTH",
"146 424 OFFCURVE",
"194 458 OFFCURVE",
"296 458 CURVE SMOOTH",
"462 458 OFFCURVE",
"493 349 OFFCURVE",
"493 183 CURVE SMOOTH",
"492 -183 LINE SMOOTH",
"492 -314 OFFCURVE",
"427 -374 OFFCURVE",
"317 -374 CURVE SMOOTH",
"228 -374 OFFCURVE",
"169 -330 OFFCURVE",
"142 -241 CURVE",
"70 -267 LINE",
"103 -387 OFFCURVE",
"197 -446 OFFCURVE",
"324 -446 CURVE SMOOTH"
);
}
);
userData = {
com.schriftgestaltung.Glyphs.category = Letter;
com.schriftgestaltung.Glyphs.lastChange = "2020/09/03 22:42:33";
com.schriftgestaltung.Glyphs.subCategory = Other;
};
width = 635;
}
);
leftKerningGroup = ya;
leftMetricsKey = "yaHigh-lue";
rightKerningGroup = q;
rightMetricsKey = "ngaLow-lue";
unicode = 198F;
},
{
color = 0;
glyphname = "naHigh-lue";
lastChange = "2022-02-23 14:39:43 +0000";
layers = (
{
background = {
components = (
{
name = "haHigh-lue";
}
);
};
layerId = UUID0;
paths = (
{
closed = 1;
nodes = (
"790 -446 OFFCURVE",
"902 -389 OFFCURVE",
"902 -251 CURVE SMOOTH",
"902 -129 OFFCURVE",
"818 -86 OFFCURVE",
"651 -74 CURVE",
"703 -130 LINE",
"703 14 LINE",
"673 1 LINE",
"696 -7 OFFCURVE",
"721 -10 OFFCURVE",
"746 -10 CURVE SMOOTH",
"896 -10 OFFCURVE",
"998 93 OFFCURVE",
"998 253 CURVE SMOOTH",
"998 429 OFFCURVE",
"883 525 OFFCURVE",
"753 525 CURVE SMOOTH",
"596 525 OFFCURVE",
"538 428 OFFCURVE",
"483 269 CURVE SMOOTH",
"442 149 OFFCURVE",
"410 56 OFFCURVE",
"296 56 CURVE SMOOTH",
"204 56 OFFCURVE",
"138 127 OFFCURVE",
"138 256 CURVE SMOOTH",
"138 390 OFFCURVE",
"215 457 OFFCURVE",
"303 457 CURVE SMOOTH",
"331 457 OFFCURVE",
"365 450 OFFCURVE",
"388 431 CURVE",
"428 488 LINE",
"391 515 OFFCURVE",
"342 525 OFFCURVE",
"298 525 CURVE SMOOTH",
"154 525 OFFCURVE",
"50 417 OFFCURVE",
"50 257 CURVE SMOOTH",
"50 93 OFFCURVE",
"150 -15 OFFCURVE",
"295 -15 CURVE SMOOTH",
"452 -15 OFFCURVE",
"513 85 OFFCURVE",
"563 239 CURVE SMOOTH",
"603 362 OFFCURVE",
"640 455 OFFCURVE",
"752 455 CURVE SMOOTH",
"841 455 OFFCURVE",
"910 384 OFFCURVE",
"910 254 CURVE SMOOTH",
"910 117 OFFCURVE",
"835 58 OFFCURVE",
"734 58 CURVE SMOOTH",
"695 58 OFFCURVE",
"661 66 OFFCURVE",
"632 78 CURVE",
"632 -135 LINE",
"740 -141 OFFCURVE",
"814 -161 OFFCURVE",
"814 -245 CURVE SMOOTH",
"814 -338 OFFCURVE",
"732 -376 OFFCURVE",
"562 -376 CURVE SMOOTH",
"429 -376 OFFCURVE",
"319 -342 OFFCURVE",
"240 -252 CURVE",
"180 -308 LINE",
"268 -406 OFFCURVE",
"399 -446 OFFCURVE",
"563 -446 CURVE SMOOTH"
);
}
);
userData = {
com.schriftgestaltung.Glyphs.category = Letter;
com.schriftgestaltung.Glyphs.lastChange = "2020/09/03 22:42:33";
com.schriftgestaltung.Glyphs.subCategory = Other;
};
width = 1048;
},
{
background = {
components = (
{
name = "haHigh-lue";
}
);
};
layerId = "1FCF787B-CF33-4B83-BE16-73AC6600FEB7";
paths = (
{
closed = 1;
nodes = (
"831 -474 OFFCURVE",
"952 -407 OFFCURVE",
"952 -253 CURVE SMOOTH",
"952 -124 OFFCURVE",
"868 -65 OFFCURVE",
"672 -51 CURVE",
"756 -111 LINE",
"756 40 LINE",
"703 -1 LINE",
"723 -6 OFFCURVE",
"746 -9 OFFCURVE",
"771 -9 CURVE SMOOTH",
"919 -9 OFFCURVE",
"1032 98 OFFCURVE",
"1032 265 CURVE SMOOTH",
"1032 427 OFFCURVE",
"925 540 OFFCURVE",
"763 540 CURVE SMOOTH",
"595 540 OFFCURVE",
"526 447 OFFCURVE",
"461 287 CURVE SMOOTH",
"419 184 OFFCURVE",
"389 105 OFFCURVE",
"308 105 CURVE SMOOTH",
"241 105 OFFCURVE",
"190 151 OFFCURVE",
"190 263 CURVE SMOOTH",
"190 359 OFFCURVE",
"243 414 OFFCURVE",
"324 414 CURVE SMOOTH",
"358 414 OFFCURVE",
"383 407 OFFCURVE",
"403 394 CURVE",
"467 507 LINE",
"431 529 OFFCURVE",
"380 540 OFFCURVE",
"321 540 CURVE SMOOTH",
"153 540 OFFCURVE",
"40 427 OFFCURVE",
"40 260 CURVE SMOOTH",
"40 89 OFFCURVE",
"147 -15 OFFCURVE",
"305 -15 CURVE SMOOTH",
"469 -15 OFFCURVE",
"537 78 OFFCURVE",
"602 239 CURVE SMOOTH",
"645 345 OFFCURVE",
"678 420 OFFCURVE",
"759 420 CURVE SMOOTH",
"831 420 OFFCURVE",
"882 367 OFFCURVE",
"882 265 CURVE SMOOTH",
"882 168 OFFCURVE",
"829 109 OFFCURVE",
"728 109 CURVE SMOOTH",
"694 109 OFFCURVE",
"647 120 OFFCURVE",
"624 131 CURVE",
"624 -151 LINE",
"749 -156 OFFCURVE",
"792 -181 OFFCURVE",
"792 -241 CURVE SMOOTH",
"792 -309 OFFCURVE",
"730 -340 OFFCURVE",
"580 -340 CURVE SMOOTH",
"430 -340 OFFCURVE",
"335 -296 OFFCURVE",
"266 -202 CURVE",
"149 -301 LINE",
"238 -417 OFFCURVE",
"384 -474 OFFCURVE",
"581 -474 CURVE SMOOTH"
);
}
);
width = 1072;
},
{
associatedMasterId = UUID0;
layerId = "A30DF70F-9319-4FB6-8C05-2AF8D41DE299";
name = "Jan 28 22, 12:15";
paths = (
{
closed = 1;
nodes = (
"792 -293 OFFCURVE",
"848 -226 OFFCURVE",
"848 -167 CURVE SMOOTH",
"848 -108 OFFCURVE",
"797 -50 OFFCURVE",
"646 -43 CURVE",
"650 -34 OFFCURVE",
"655 -22 OFFCURVE",
"658 -10 CURVE",
"766 -7 OFFCURVE",
"865 113 OFFCURVE",
"865 279 CURVE SMOOTH",
"865 444 OFFCURVE",
"777 546 OFFCURVE",
"666 546 CURVE SMOOTH",
"565 546 OFFCURVE",
"505 441 OFFCURVE",
"459 356 CURVE SMOOTH",
"361 175 LINE SMOOTH",
"323 105 OFFCURVE",
"293 58 OFFCURVE",
"249 58 CURVE SMOOTH",
"192 58 OFFCURVE",
"139 115 OFFCURVE",
"139 258 CURVE SMOOTH",
"139 392 OFFCURVE",
"183 479 OFFCURVE",
"261 479 CURVE SMOOTH",
"297 479 OFFCURVE",
"329 466 OFFCURVE",
"354 431 CURVE",
"403 476 LINE",
"372 518 OFFCURVE",
"323 546 OFFCURVE",
"259 546 CURVE SMOOTH",
"150 546 OFFCURVE",
"49 425 OFFCURVE",
"49 257 CURVE SMOOTH",
"49 92 OFFCURVE",
"137 -10 OFFCURVE",
"248 -10 CURVE SMOOTH",
"349 -10 OFFCURVE",
"409 95 OFFCURVE",
"455 180 CURVE SMOOTH",
"552 361 LINE SMOOTH",
"590 431 OFFCURVE",
"620 479 OFFCURVE",
"665 479 CURVE SMOOTH",
"722 479 OFFCURVE",
"775 421 OFFCURVE",
"775 278 CURVE SMOOTH",
"775 144 OFFCURVE",
"731 58 OFFCURVE",
"653 58 CURVE SMOOTH",
"616 58 OFFCURVE",
"584 70 OFFCURVE",
"560 105 CURVE",
"510 61 LINE",
"533 30 OFFCURVE",
"565 7 OFFCURVE",
"605 -3 CURVE",
"598 -30 OFFCURVE",
"587 -58 OFFCURVE",
"574 -84 CURVE",
"585 -101 LINE",
"680 -104 OFFCURVE",
"763 -111 OFFCURVE",
"763 -162 CURVE SMOOTH",
"763 -187 OFFCURVE",
"745 -227 OFFCURVE",
"619 -227 CURVE SMOOTH",
"525 -227 OFFCURVE",
"406 -204 OFFCURVE",
"361 -181 CURVE",
"333 -238 LINE",
"415 -275 OFFCURVE",
"520 -293 OFFCURVE",
"621 -293 CURVE SMOOTH"
);
}
);
userData = {
com.schriftgestaltung.Glyphs.category = Letter;
com.schriftgestaltung.Glyphs.lastChange = "2020/09/03 22:42:33";
com.schriftgestaltung.Glyphs.subCategory = Other;
};
width = 914;
},
{
associatedMasterId = UUID0;
background = {
components = (
{
name = "haHigh-lue";
}
);
};
layerId = "E46588B4-A7D0-4DBC-88C5-178D066BBA46";
name = "Feb 17 22, 17:31";
paths = (
{
closed = 1;
nodes = (
"790 -446 OFFCURVE",
"902 -389 OFFCURVE",
"902 -251 CURVE SMOOTH",
"902 -129 OFFCURVE",
"818 -86 OFFCURVE",
"651 -74 CURVE",
"703 -130 LINE",
"703 14 LINE",
"673 1 LINE",
"697 -7 OFFCURVE",
"722 -10 OFFCURVE",
"747 -10 CURVE SMOOTH",
"888 -10 OFFCURVE",
"984 102 OFFCURVE",
"984 259 CURVE SMOOTH",
"984 419 OFFCURVE",
"879 525 OFFCURVE",
"739 525 CURVE SMOOTH",
"584 525 OFFCURVE",
"520 426 OFFCURVE",
"475 271 CURVE SMOOTH",
"439 148 OFFCURVE",
"409 65 OFFCURVE",
"300 65 CURVE SMOOTH",
"210 65 OFFCURVE",
"142 136 OFFCURVE",
"142 264 CURVE SMOOTH",
"142 389 OFFCURVE",
"219 457 OFFCURVE",
"309 457 CURVE SMOOTH",
"334 457 OFFCURVE",
"360 452 OFFCURVE",
"382 437 CURVE",
"422 495 LINE",
"387 517 OFFCURVE",
"344 525 OFFCURVE",
"305 525 CURVE SMOOTH",
"159 525 OFFCURVE",
"50 420 OFFCURVE",
"50 261 CURVE SMOOTH",
"50 91 OFFCURVE",
"168 -5 OFFCURVE",
"299 -5 CURVE SMOOTH",
"453 -5 OFFCURVE",
"505 82 OFFCURVE",
"555 241 CURVE SMOOTH",
"591 362 OFFCURVE",
"628 455 OFFCURVE",
"742 455 CURVE SMOOTH",
"831 455 OFFCURVE",
"895 387 OFFCURVE",
"895 267 CURVE SMOOTH",
"895 150 OFFCURVE",
"848 59 OFFCURVE",
"729 59 CURVE SMOOTH",
"694 59 OFFCURVE",
"664 67 OFFCURVE",
"632 78 CURVE",
"632 -135 LINE",
"740 -141 OFFCURVE",
"814 -161 OFFCURVE",
"814 -245 CURVE SMOOTH",
"814 -338 OFFCURVE",
"732 -376 OFFCURVE",
"562 -376 CURVE SMOOTH",
"429 -376 OFFCURVE",
"319 -342 OFFCURVE",
"240 -252 CURVE",
"180 -308 LINE",
"268 -406 OFFCURVE",
"399 -446 OFFCURVE",
"563 -446 CURVE SMOOTH"
);
}
);
userData = {
com.schriftgestaltung.Glyphs.category = Letter;
com.schriftgestaltung.Glyphs.lastChange = "2020/09/03 22:42:33";
com.schriftgestaltung.Glyphs.subCategory = Other;
};
width = 1034;
}
);
leftKerningGroup = va;
leftMetricsKey = "haHigh-lue";
rightKerningGroup = va;
rightMetricsKey = "haHigh-lue";
unicode = 1990;
},
{
color = 0;
glyphname = "taLow-lue";
lastChange = "2022-03-01 23:28:15 +0000";
layers = (
{
anchors = (
{
name = bottom;
position = "{325, 0}";
}
);
layerId = UUID0;
paths = (
{
closed = 1;
nodes = (
"496 -15 OFFCURVE",
"582 36 OFFCURVE",
"582 138 CURVE SMOOTH",
"582 214 OFFCURVE",
"530 253 OFFCURVE",
"464 272 CURVE",
"465 253 LINE",
"527 271 OFFCURVE",
"582 307 OFFCURVE",
"582 383 CURVE SMOOTH",
"582 465 OFFCURVE",
"513 525 OFFCURVE",
"410 525 CURVE SMOOTH",
"364 525 OFFCURVE",
"327 517 OFFCURVE",
"292 496 CURVE",
"321 435 LINE",
"343 450 OFFCURVE",
"371 458 OFFCURVE",
"401 458 CURVE SMOOTH",
"453 458 OFFCURVE",
"496 431 OFFCURVE",
"496 374 CURVE SMOOTH",
"496 298 OFFCURVE",
"405 285 OFFCURVE",
"341 285 CURVE",
"341 226 LINE",
"365 226 LINE SMOOTH",
"458 226 OFFCURVE",
"494 189 OFFCURVE",
"494 138 CURVE SMOOTH",
"494 71 OFFCURVE",
"438 51 OFFCURVE",
"354 51 CURVE SMOOTH",
"205 51 OFFCURVE",
"147 151 OFFCURVE",
"147 329 CURVE SMOOTH",
"147 659 LINE SMOOTH",
"147 797 OFFCURVE",
"203 890 OFFCURVE",
"337 890 CURVE SMOOTH",
"429 890 OFFCURVE",
"481 845 OFFCURVE",
"509 756 CURVE",
"582 781 LINE",
"549 901 OFFCURVE",
"461 960 OFFCURVE",
"330 960 CURVE SMOOTH",
"151 960 OFFCURVE",
"65 843 OFFCURVE",
"65 671 CURVE SMOOTH",
"65 329 LINE SMOOTH",
"65 113 OFFCURVE",
"149 -15 OFFCURVE",
"360 -15 CURVE SMOOTH"
);
}
);
userData = {
com.schriftgestaltung.Glyphs.category = Letter;
com.schriftgestaltung.Glyphs.lastChange = "2020/09/03 22:42:33";
com.schriftgestaltung.Glyphs.subCategory = Other;
};
width = 632;
},
{
anchors = (
{
name = bottom;
position = "{325, 0}";
}
);
layerId = "1FCF787B-CF33-4B83-BE16-73AC6600FEB7";
paths = (
{
closed = 1;
nodes = (
"550 -15 OFFCURVE",
"633 39 OFFCURVE",
"633 138 CURVE SMOOTH",
"633 207 OFFCURVE",
"592 253 OFFCURVE",
"498 271 CURVE",
"498 250 LINE",
"592 272 OFFCURVE",
"633 316 OFFCURVE",
"633 385 CURVE SMOOTH",
"633 475 OFFCURVE",
"551 540 OFFCURVE",
"427 540 CURVE SMOOTH",
"372 540 OFFCURVE",
"329 529 OFFCURVE",
"292 508 CURVE",
"334 405 LINE",
"356 419 OFFCURVE",
"377 427 OFFCURVE",
"409 427 CURVE SMOOTH",
"456 427 OFFCURVE",
"483 404 OFFCURVE",
"483 369 CURVE SMOOTH",
"483 323 OFFCURVE",
"436 310 OFFCURVE",
"343 310 CURVE",
"343 201 LINE",
"379 201 LINE SMOOTH",
"452 201 OFFCURVE",
"482 182 OFFCURVE",
"482 148 CURVE SMOOTH",
"482 115 OFFCURVE",
"451 97 OFFCURVE",
"385 97 CURVE SMOOTH",
"247 97 OFFCURVE",
"190 180 OFFCURVE",
"190 350 CURVE SMOOTH",
"190 652 LINE SMOOTH",
"190 787 OFFCURVE",
"241 850 OFFCURVE",
"356 850 CURVE SMOOTH",
"435 850 OFFCURVE",
"475 815 OFFCURVE",
"501 735 CURVE",
"633 775 LINE",
"590 918 OFFCURVE",
"497 975 OFFCURVE",
"349 975 CURVE SMOOTH",
"150 975 OFFCURVE",
"50 864 OFFCURVE",
"50 671 CURVE SMOOTH",
"50 359 LINE SMOOTH",
"50 106 OFFCURVE",
"167 -15 OFFCURVE",
"389 -15 CURVE SMOOTH"
);
}
);
width = 673;
},
{
anchors = (
{
name = bottom;
position = "{379, 0}";
}
);
associatedMasterId = UUID0;
layerId = "0B3D5282-CCF3-49EB-AD1C-72F63BEEFC03";
name = "Jan 27 22, 14:32";
paths = (
{
closed = 1;
nodes = (
"537 -10 OFFCURVE",
"593 94 OFFCURVE",
"593 163 CURVE SMOOTH",
"593 220 OFFCURVE",
"560 265 OFFCURVE",
"501 292 CURVE",
"553 312 OFFCURVE",
"593 346 OFFCURVE",
"593 408 CURVE SMOOTH",
"593 476 OFFCURVE",
"528 546 OFFCURVE",
"403 546 CURVE SMOOTH",
"354 546 OFFCURVE",
"291 531 OFFCURVE",
"253 504 CURVE",
"286 449 LINE",
"313 468 OFFCURVE",
"361 479 OFFCURVE",
"394 479 CURVE SMOOTH",
"466 479 OFFCURVE",
"503 450 OFFCURVE",
"503 408 CURVE SMOOTH",
"503 318 OFFCURVE",
"406 317 OFFCURVE",
"346 315 CURVE",
"346 256 LINE",
"352 257 OFFCURVE",
"369 257 OFFCURVE",
"375 257 CURVE SMOOTH",
"476 257 OFFCURVE",
"503 208 OFFCURVE",
"503 164 CURVE SMOOTH",
"503 90 OFFCURVE",
"443 58 OFFCURVE",
"357 58 CURVE SMOOTH",
"233 58 OFFCURVE",
"139 171 OFFCURVE",
"139 401 CURVE SMOOTH",
"139 583 OFFCURVE",
"173 782 OFFCURVE",
"340 782 CURVE SMOOTH",
"380 782 OFFCURVE",
"434 763 OFFCURVE",
"461 713 CURVE",
"526 764 LINE",
"473 832 OFFCURVE",
"396 850 OFFCURVE",
"342 850 CURVE SMOOTH",
"171 850 OFFCURVE",
"49 638 OFFCURVE",
"49 401 CURVE SMOOTH",
"49 174 OFFCURVE",
"161 -10 OFFCURVE",
"356 -10 CURVE SMOOTH"
);
}
);
userData = {
com.schriftgestaltung.Glyphs.category = Letter;
com.schriftgestaltung.Glyphs.lastChange = "2020/09/03 22:42:33";
com.schriftgestaltung.Glyphs.subCategory = Other;
};
width = 642;
},
{
anchors = (
{
name = bottom;
position = "{332, 0}";
}
);
associatedMasterId = UUID0;
layerId = "52A209D4-E156-4E39-B636-E9103D7A5A4D";
name = "Feb 3 22, 16:27";
paths = (
{
closed = 1;
nodes = (
"499 -13 OFFCURVE",
"589 39 OFFCURVE",
"589 139 CURVE SMOOTH",
"589 215 OFFCURVE",
"535 255 OFFCURVE",
"464 274 CURVE",
"465 255 LINE",
"527 273 OFFCURVE",
"580 309 OFFCURVE",
"580 383 CURVE SMOOTH",
"580 464 OFFCURVE",
"511 525 OFFCURVE",
"387 525 CURVE SMOOTH",
"321 525 OFFCURVE",
"255 506 OFFCURVE",
"217 477 CURVE",
"251 422 LINE",
"283 445 OFFCURVE",
"330 458 OFFCURVE",
"378 458 CURVE SMOOTH",
"450 458 OFFCURVE",
"494 428 OFFCURVE",
"494 374 CURVE SMOOTH",
"494 300 OFFCURVE",
"405 287 OFFCURVE",
"325 287 CURVE",
"325 228 LINE",
"369 228 LINE SMOOTH",
"462 228 OFFCURVE",
"501 192 OFFCURVE",
"501 141 CURVE SMOOTH",
"501 76 OFFCURVE",
"438 56 OFFCURVE",
"353 56 CURVE SMOOTH",
"214 56 OFFCURVE",
"147 141 OFFCURVE",
"147 309 CURVE SMOOTH",
"147 656 LINE SMOOTH",
"147 796 OFFCURVE",
"194 890 OFFCURVE",
"339 890 CURVE SMOOTH",
"426 890 OFFCURVE",
"480 845 OFFCURVE",
"508 756 CURVE",
"581 781 LINE",
"548 901 OFFCURVE",
"459 960 OFFCURVE",
"328 960 CURVE SMOOTH",
"142 960 OFFCURVE",
"65 843 OFFCURVE",
"65 671 CURVE SMOOTH",
"65 309 LINE SMOOTH",
"65 102 OFFCURVE",
"165 -13 OFFCURVE",
"361 -13 CURVE SMOOTH"
);
}
);
userData = {
com.schriftgestaltung.Glyphs.category = Letter;
com.schriftgestaltung.Glyphs.lastChange = "2020/09/03 22:42:33";
com.schriftgestaltung.Glyphs.subCategory = Other;
};
width = 639;
}
);
leftKerningGroup = xa;
leftMetricsKey = "xaLow-lue";
rightKerningGroup = c;
rightMetricsKey = "kaHigh-lue";
unicode = 1991;
},
{
color = 0;
glyphname = "thaLow-lue";
lastChange = "2022-04-04 21:38:53 +0000";
layers = (
{
layerId = UUID0;
paths = (
{
closed = 1;
nodes = (
"291 -10 OFFCURVE",
"330 29 OFFCURVE",
"349 95 CURVE",
"317 95 LINE",
"336 29 OFFCURVE",
"374 -10 OFFCURVE",
"448 -10 CURVE SMOOTH",
"552 -10 OFFCURVE",
"613 77 OFFCURVE",
"613 209 CURVE SMOOTH",
"613 422 OFFCURVE",
"477 525 OFFCURVE",
"329 525 CURVE SMOOTH",
"183 525 OFFCURVE",
"50 422 OFFCURVE",
"50 209 CURVE SMOOTH",
"50 77 OFFCURVE",
"114 -10 OFFCURVE",
"219 -10 CURVE SMOOTH"
);
},
{
closed = 1;
nodes = (
"180 60 OFFCURVE",
"138 105 OFFCURVE",
"138 214 CURVE SMOOTH",
"138 381 OFFCURVE",
"224 457 OFFCURVE",
"332 457 CURVE SMOOTH",
"438 457 OFFCURVE",
"525 381 OFFCURVE",
"525 214 CURVE SMOOTH",
"525 105 OFFCURVE",
"490 60 OFFCURVE",
"444 60 CURVE SMOOTH",
"393 60 OFFCURVE",
"369 105 OFFCURVE",
"365 207 CURVE",
"301 207 LINE",
"296 105 OFFCURVE",
"276 60 OFFCURVE",
"225 60 CURVE SMOOTH"
);
}
);
userData = {
com.schriftgestaltung.Glyphs.category = Letter;
com.schriftgestaltung.Glyphs.lastChange = "2020/09/03 22:42:33";
com.schriftgestaltung.Glyphs.subCategory = Other;
};
width = 663;
},
{
layerId = "1FCF787B-CF33-4B83-BE16-73AC6600FEB7";
paths = (
{
closed = 1;
nodes = (
"306 -15 OFFCURVE",
"356 22 OFFCURVE",
"376 105 CURVE",
"314 105 LINE",
"334 22 OFFCURVE",
"385 -15 OFFCURVE",
"462 -15 CURVE SMOOTH",
"577 -15 OFFCURVE",
"647 75 OFFCURVE",
"647 224 CURVE SMOOTH",
"647 423 OFFCURVE",
"522 539 OFFCURVE",
"340 539 CURVE SMOOTH",
"162 539 OFFCURVE",
"40 424 OFFCURVE",
"40 224 CURVE SMOOTH",
"40 76 OFFCURVE",
"114 -15 OFFCURVE",
"230 -15 CURVE SMOOTH"
);
},
{
closed = 1;
nodes = (
"210 111 OFFCURVE",
"190 147 OFFCURVE",
"190 216 CURVE SMOOTH",
"190 362 OFFCURVE",
"257 427 OFFCURVE",
"344 427 CURVE SMOOTH",
"430 427 OFFCURVE",
"497 361 OFFCURVE",
"497 216 CURVE SMOOTH",
"497 145 OFFCURVE",
"479 111 OFFCURVE",
"448 111 CURVE SMOOTH",
"415 111 OFFCURVE",
"400 148 OFFCURVE",
"401 231 CURVE",
"289 231 LINE",
"289 147 OFFCURVE",
"275 111 OFFCURVE",
"244 111 CURVE SMOOTH"
);
}
);
width = 687;
},
{
associatedMasterId = UUID0;
layerId = "1475AAC7-9DF3-4E01-BF32-6176A4C17F66";
name = "Jan 28 22, 11:45";
paths = (
{
closed = 1;
nodes = (
"291 -10 OFFCURVE",
"345 13 OFFCURVE",
"374 86 CURVE",
"403 13 OFFCURVE",
"458 -10 OFFCURVE",
"515 -10 CURVE SMOOTH",
"642 -10 OFFCURVE",
"700 102 OFFCURVE",
"700 231 CURVE SMOOTH",
"700 428 OFFCURVE",
"544 546 OFFCURVE",
"375 546 CURVE SMOOTH",
"199 546 OFFCURVE",
"49 429 OFFCURVE",
"49 231 CURVE SMOOTH",
"49 102 OFFCURVE",
"106 -10 OFFCURVE",
"233 -10 CURVE SMOOTH"
);
},
{
closed = 1;
nodes = (
"167 58 OFFCURVE",
"139 120 OFFCURVE",
"139 237 CURVE SMOOTH",
"139 391 OFFCURVE",
"230 479 OFFCURVE",
"375 479 CURVE SMOOTH",
"515 479 OFFCURVE",
"610 391 OFFCURVE",
"610 237 CURVE SMOOTH",
"610 120 OFFCURVE",
"582 58 OFFCURVE",
"523 58 CURVE SMOOTH",
"465 58 OFFCURVE",
"427 102 OFFCURVE",
"416 210 CURVE",
"333 210 LINE",
"322 102 OFFCURVE",
"283 58 OFFCURVE",
"226 58 CURVE SMOOTH"
);
}
);
userData = {
com.schriftgestaltung.Glyphs.category = Letter;
com.schriftgestaltung.Glyphs.lastChange = "2020/09/03 22:42:33";
com.schriftgestaltung.Glyphs.subCategory = Other;
};
width = 749;
},
{
associatedMasterId = UUID0;
layerId = "B647A140-C65A-441C-9DB5-FBEBC280173D";
name = "Feb 1 22, 20:53";
paths = (
{
closed = 1;
nodes = (
"311 -10 OFFCURVE",
"366 45 OFFCURVE",
"390 147 CURVE",
"364 147 LINE",
"388 45 OFFCURVE",
"441 -10 OFFCURVE",
"525 -10 CURVE SMOOTH",
"647 -10 OFFCURVE",
"701 88 OFFCURVE",
"701 201 CURVE SMOOTH",
"701 389 OFFCURVE",
"544 525 OFFCURVE",
"374 525 CURVE SMOOTH",
"205 525 OFFCURVE",
"50 389 OFFCURVE",
"50 201 CURVE SMOOTH",
"50 88 OFFCURVE",
"105 -10 OFFCURVE",
"227 -10 CURVE SMOOTH"
);
},
{
closed = 1;
nodes = (
"170 57 OFFCURVE",
"141 106 OFFCURVE",
"141 207 CURVE SMOOTH",
"141 352 OFFCURVE",
"235 458 OFFCURVE",
"375 458 CURVE SMOOTH",
"515 458 OFFCURVE",
"613 352 OFFCURVE",
"613 207 CURVE SMOOTH",
"613 106 OFFCURVE",
"584 57 OFFCURVE",
"523 57 CURVE SMOOTH",
"455 57 OFFCURVE",
"425 125 OFFCURVE",
"417 227 CURVE",
"337 227 LINE",
"329 125 OFFCURVE",
"299 57 OFFCURVE",
"231 57 CURVE SMOOTH"
);
}
);
userData = {
com.schriftgestaltung.Glyphs.category = Letter;
com.schriftgestaltung.Glyphs.lastChange = "2020/09/03 22:42:33";
com.schriftgestaltung.Glyphs.subCategory = Other;
};
width = 751;
},
{
associatedMasterId = UUID0;
layerId = "B0571961-FA61-4089-93A7-344304324A01";
name = "Feb 3 22, 15:11";
paths = (
{
closed = 1;
nodes = (
"291 -10 OFFCURVE",
"333 42 OFFCURVE",
"354 147 CURVE",
"322 147 LINE",
"343 42 OFFCURVE",
"383 -10 OFFCURVE",
"471 -10 CURVE SMOOTH",
"573 -10 OFFCURVE",
"623 75 OFFCURVE",
"623 188 CURVE SMOOTH",
"623 386 OFFCURVE",
"492 525 OFFCURVE",
"335 525 CURVE SMOOTH",
"179 525 OFFCURVE",
"50 386 OFFCURVE",
"50 188 CURVE SMOOTH",
"50 75 OFFCURVE",
"102 -10 OFFCURVE",
"204 -10 CURVE SMOOTH"
);
},
{
closed = 1;
nodes = (
"168 58 OFFCURVE",
"138 103 OFFCURVE",
"138 193 CURVE SMOOTH",
"138 354 OFFCURVE",
"219 457 OFFCURVE",
"336 457 CURVE SMOOTH",
"453 457 OFFCURVE",
"535 354 OFFCURVE",
"535 193 CURVE SMOOTH",
"535 103 OFFCURVE",
"508 58 OFFCURVE",
"461 58 CURVE SMOOTH",
"400 58 OFFCURVE",
"384 125 OFFCURVE",
"375 227 CURVE",
"301 227 LINE",
"292 125 OFFCURVE",
"276 58 OFFCURVE",
"214 58 CURVE SMOOTH"
);
}
);
userData = {
com.schriftgestaltung.Glyphs.category = Letter;
com.schriftgestaltung.Glyphs.lastChange = "2020/09/03 22:42:33";
com.schriftgestaltung.Glyphs.subCategory = Other;
};
width = 673;
},
{
associatedMasterId = "1FCF787B-CF33-4B83-BE16-73AC6600FEB7";
layerId = "F4D4C1A0-BEF6-4D90-A4F4-E42ACD9AB483";
name = "Apr 1 22, 18:44";
paths = (
{
closed = 1;
nodes = (
"296 -15 OFFCURVE",
"347 25 OFFCURVE",
"367 110 CURVE",
"325 110 LINE",
"345 25 OFFCURVE",
"397 -15 OFFCURVE",
"474 -15 CURVE SMOOTH",
"588 -15 OFFCURVE",
"649 73 OFFCURVE",
"649 221 CURVE SMOOTH",
"649 413 OFFCURVE",
"527 539 OFFCURVE",
"341 539 CURVE SMOOTH",
"159 539 OFFCURVE",
"40 414 OFFCURVE",
"40 221 CURVE SMOOTH",
"40 74 OFFCURVE",
"105 -15 OFFCURVE",
"221 -15 CURVE SMOOTH"
);
},
{
closed = 1;
nodes = (
"207 106 OFFCURVE",
"190 142 OFFCURVE",
"190 216 CURVE SMOOTH",
"190 358 OFFCURVE",
"246 427 OFFCURVE",
"345 427 CURVE SMOOTH",
"443 427 OFFCURVE",
"499 357 OFFCURVE",
"499 216 CURVE SMOOTH",
"499 140 OFFCURVE",
"484 106 OFFCURVE",
"454 106 CURVE SMOOTH",
"420 106 OFFCURVE",
"406 141 OFFCURVE",
"405 231 CURVE",
"287 231 LINE",
"285 140 OFFCURVE",
"272 106 OFFCURVE",
"240 106 CURVE SMOOTH"
);
}
);
width = 689;
},
{
associatedMasterId = UUID0;
layerId = "9831E5FC-5CAF-46DE-B88B-808204EE98EA";
name = "Apr 4 22, 17:30";
paths = (
{
closed = 1;
nodes = (
"294 -10 OFFCURVE",
"330 42 OFFCURVE",
"351 127 CURVE",
"307 127 LINE",
"328 42 OFFCURVE",
"363 -10 OFFCURVE",
"447 -10 CURVE SMOOTH",
"552 -10 OFFCURVE",
"605 77 OFFCURVE",
"605 209 CURVE SMOOTH",
"605 422 OFFCURVE",
"473 525 OFFCURVE",
"325 525 CURVE SMOOTH",
"179 525 OFFCURVE",
"50 422 OFFCURVE",
"50 209 CURVE SMOOTH",
"50 77 OFFCURVE",
"106 -10 OFFCURVE",
"212 -10 CURVE SMOOTH"
);
},
{
closed = 1;
nodes = (
"170 59 OFFCURVE",
"138 105 OFFCURVE",
"138 214 CURVE SMOOTH",
"138 381 OFFCURVE",
"220 457 OFFCURVE",
"328 457 CURVE SMOOTH",
"434 457 OFFCURVE",
"517 381 OFFCURVE",
"517 214 CURVE SMOOTH",
"517 105 OFFCURVE",
"488 59 OFFCURVE",
"442 59 CURVE SMOOTH",
"391 59 OFFCURVE",
"367 105 OFFCURVE",
"361 207 CURVE",
"297 207 LINE",
"290 105 OFFCURVE",
"266 59 OFFCURVE",
"215 59 CURVE SMOOTH"
);
}
);
userData = {
com.schriftgestaltung.Glyphs.category = Letter;
com.schriftgestaltung.Glyphs.lastChange = "2020/09/03 22:42:33";
com.schriftgestaltung.Glyphs.subCategory = Other;
};
width = 655;
},
{
associatedMasterId = "1FCF787B-CF33-4B83-BE16-73AC6600FEB7";
layerId = "7C74F7ED-072B-4852-BA9A-584A0313092C";
name = "Apr 4 22, 17:36";
paths = (
{
closed = 1;
nodes = (
"301 -15 OFFCURVE",
"351 22 OFFCURVE",
"371 105 CURVE",
"313 105 LINE",
"333 22 OFFCURVE",
"384 -15 OFFCURVE",
"461 -15 CURVE SMOOTH",
"576 -15 OFFCURVE",
"641 75 OFFCURVE",
"641 224 CURVE SMOOTH",
"641 423 OFFCURVE",
"519 539 OFFCURVE",
"337 539 CURVE SMOOTH",
"159 539 OFFCURVE",
"40 424 OFFCURVE",
"40 224 CURVE SMOOTH",
"40 76 OFFCURVE",
"109 -15 OFFCURVE",
"225 -15 CURVE SMOOTH"
);
},
{
closed = 1;
nodes = (
"208 106 OFFCURVE",
"190 142 OFFCURVE",
"190 216 CURVE SMOOTH",
"190 365 OFFCURVE",
"252 427 OFFCURVE",
"341 427 CURVE SMOOTH",
"429 427 OFFCURVE",
"491 364 OFFCURVE",
"491 216 CURVE SMOOTH",
"491 140 OFFCURVE",
"475 106 OFFCURVE",
"446 106 CURVE SMOOTH",
"415 106 OFFCURVE",
"402 141 OFFCURVE",
"401 229 CURVE",
"283 229 LINE",
"281 140 OFFCURVE",
"269 106 OFFCURVE",
"240 106 CURVE SMOOTH"
);
}
);
width = 681;
}
);
leftKerningGroup = va;
leftMetricsKey = "kaHigh-lue";
rightKerningGroup = va;
rightMetricsKey = "kaHigh-lue";
unicode = 1992;
},
{
color = 0;
glyphname = "naLow-lue";
lastChange = "2022-03-28 20:02:04 +0000";
layers = (
{
layerId = UUID0;
paths = (
{
closed = 1;
nodes = (
"458 -446 OFFCURVE",
"562 -368 OFFCURVE",
"562 -189 CURVE SMOOTH",
"562 -103 LINE SMOOTH",
"562 60 OFFCURVE",
"481 160 OFFCURVE",
"319 160 CURVE SMOOTH",
"237 160 OFFCURVE",
"172 128 OFFCURVE",
"140 89 CURVE",
"163 88 LINE",
"163 278 LINE SMOOTH",
"163 384 OFFCURVE",
"219 455 OFFCURVE",
"324 455 CURVE SMOOTH",
"422 455 OFFCURVE",
"463 410 OFFCURVE",
"487 321 CURVE",
"562 346 LINE",
"532 466 OFFCURVE",
"449 525 OFFCURVE",
"320 525 CURVE SMOOTH",
"175 525 OFFCURVE",
"81 440 OFFCURVE",
"81 275 CURVE SMOOTH",
"81 33 LINE",
"153 0 LINE",
"189 51 OFFCURVE",
"250 89 OFFCURVE",
"322 89 CURVE SMOOTH",
"427 89 OFFCURVE",
"482 18 OFFCURVE",
"482 -100 CURVE SMOOTH",
"482 -183 LINE SMOOTH",
"482 -314 OFFCURVE",
"417 -374 OFFCURVE",
"307 -374 CURVE SMOOTH",
"218 -374 OFFCURVE",
"159 -330 OFFCURVE",
"132 -241 CURVE",
"60 -267 LINE",
"93 -387 OFFCURVE",
"187 -446 OFFCURVE",
"313 -446 CURVE SMOOTH"
);
}
);
userData = {
com.schriftgestaltung.Glyphs.category = Letter;
com.schriftgestaltung.Glyphs.lastChange = "2020/09/03 22:42:33";
com.schriftgestaltung.Glyphs.subCategory = Other;
};
width = 582;
},
{
layerId = "1FCF787B-CF33-4B83-BE16-73AC6600FEB7";
paths = (
{
closed = 1;
nodes = (
"524 -460 OFFCURVE",
"623 -363 OFFCURVE",
"623 -189 CURVE SMOOTH",
"623 -95 LINE SMOOTH",
"623 85 OFFCURVE",
"521 190 OFFCURVE",
"352 190 CURVE SMOOTH",
"276 190 OFFCURVE",
"214 168 OFFCURVE",
"176 129 CURVE",
"211 114 LINE",
"211 257 LINE SMOOTH",
"211 363 OFFCURVE",
"266 415 OFFCURVE",
"355 415 CURVE SMOOTH",
"433 415 OFFCURVE",
"474 380 OFFCURVE",
"498 300 CURVE",
"630 340 LINE",
"589 483 OFFCURVE",
"492 540 OFFCURVE",
"345 540 CURVE SMOOTH",
"169 540 OFFCURVE",
"75 438 OFFCURVE",
"75 261 CURVE SMOOTH",
"75 21 LINE",
"191 -26 LINE",
"223 28 OFFCURVE",
"280 61 OFFCURVE",
"348 61 CURVE SMOOTH",
"438 61 OFFCURVE",
"487 7 OFFCURVE",
"487 -100 CURVE SMOOTH",
"487 -183 LINE SMOOTH",
"487 -280 OFFCURVE",
"433 -335 OFFCURVE",
"340 -335 CURVE SMOOTH",
"264 -335 OFFCURVE",
"208 -300 OFFCURVE",
"183 -219 CURVE",
"50 -266 LINE",
"94 -404 OFFCURVE",
"202 -460 OFFCURVE",
"345 -460 CURVE SMOOTH"
);
}
);
width = 647;
},
{
associatedMasterId = UUID0;
layerId = "16CFE380-9C7A-400A-9B65-B6BB4CFBEEE7";
name = "Jan 26 22, 20:38";
paths = (
{
closed = 1;
nodes = (
"464 -278 OFFCURVE",
"524 -167 OFFCURVE",
"524 -85 CURVE SMOOTH",
"524 3 OFFCURVE",
"450 77 OFFCURVE",
"335 77 CURVE SMOOTH",
"278 77 OFFCURVE",
"251 63 OFFCURVE",
"209 63 CURVE SMOOTH",
"165 63 OFFCURVE",
"139 152 OFFCURVE",
"139 266 CURVE SMOOTH",
"139 404 OFFCURVE",
"183 479 OFFCURVE",
"297 479 CURVE SMOOTH",
"352 479 OFFCURVE",
"393 454 OFFCURVE",
"420 410 CURVE",
"485 460 LINE",
"436 516 OFFCURVE",
"377 546 OFFCURVE",
"297 546 CURVE SMOOTH",
"153 546 OFFCURVE",
"49 412 OFFCURVE",
"49 260 CURVE SMOOTH",
"49 87 OFFCURVE",
"124 -5 OFFCURVE",
"195 -5 CURVE SMOOTH",
"253 -5 OFFCURVE",
"288 10 OFFCURVE",
"327 10 CURVE SMOOTH",
"407 10 OFFCURVE",
"435 -43 OFFCURVE",
"435 -86 CURVE SMOOTH",
"435 -148 OFFCURVE",
"404 -211 OFFCURVE",
"276 -211 CURVE SMOOTH",
"201 -211 OFFCURVE",
"130 -168 OFFCURVE",
"92 -122 CURVE",
"33 -166 LINE",
"97 -246 OFFCURVE",
"206 -278 OFFCURVE",
"276 -278 CURVE SMOOTH"
);
}
);
userData = {
com.schriftgestaltung.Glyphs.category = Letter;
com.schriftgestaltung.Glyphs.lastChange = "2020/09/03 22:42:33";
com.schriftgestaltung.Glyphs.subCategory = Other;
};
width = 576;
},
{
associatedMasterId = UUID0;
layerId = "20EC99D4-A90A-41D8-86AA-43466E33BE00";
name = "Feb 1 22, 16:11";
paths = (
{
closed = 1;
nodes = (
"462 -446 OFFCURVE",
"558 -333 OFFCURVE",
"558 -140 CURVE SMOOTH",
"558 39 OFFCURVE",
"472 156 OFFCURVE",
"306 156 CURVE SMOOTH",
"235 156 OFFCURVE",
"179 128 OFFCURVE",
"147 89 CURVE",
"159 88 LINE",
"159 283 LINE SMOOTH",
"159 394 OFFCURVE",
"222 458 OFFCURVE",
"317 458 CURVE SMOOTH",
"389 458 OFFCURVE",
"442 424 OFFCURVE",
"474 375 CURVE",
"538 419 LINE",
"487 491 OFFCURVE",
"411 525 OFFCURVE",
"318 525 CURVE SMOOTH",
"185 525 OFFCURVE",
"75 450 OFFCURVE",
"75 280 CURVE SMOOTH",
"75 -2 LINE",
"161 -1 LINE",
"194 51 OFFCURVE",
"242 88 OFFCURVE",
"309 88 CURVE SMOOTH",
"418 88 OFFCURVE",
"476 -4 OFFCURVE",
"476 -132 CURVE SMOOTH",
"476 -277 OFFCURVE",
"414 -376 OFFCURVE",
"291 -376 CURVE SMOOTH",
"204 -376 OFFCURVE",
"147 -328 OFFCURVE",
"116 -270 CURVE",
"50 -312 LINE",
"113 -413 OFFCURVE",
"203 -446 OFFCURVE",
"296 -446 CURVE SMOOTH"
);
}
);
userData = {
com.schriftgestaltung.Glyphs.category = Letter;
com.schriftgestaltung.Glyphs.lastChange = "2020/09/03 22:42:33";
com.schriftgestaltung.Glyphs.subCategory = Other;
};
width = 578;
},
{
associatedMasterId = UUID0;
layerId = "D23B90A3-3FF8-4750-A0B8-F7866EF62E28";
name = "Feb 3 22, 15:44";
paths = (
{
closed = 1;
nodes = (
"458 -446 OFFCURVE",
"562 -368 OFFCURVE",
"562 -189 CURVE SMOOTH",
"562 -103 LINE SMOOTH",
"562 60 OFFCURVE",
"481 160 OFFCURVE",
"319 160 CURVE SMOOTH",
"237 160 OFFCURVE",
"172 128 OFFCURVE",
"140 89 CURVE",
"163 88 LINE",
"163 283 LINE SMOOTH",
"163 394 OFFCURVE",
"231 458 OFFCURVE",
"323 458 CURVE SMOOTH",
"395 458 OFFCURVE",
"448 424 OFFCURVE",
"480 375 CURVE",
"544 419 LINE",
"493 491 OFFCURVE",
"417 525 OFFCURVE",
"322 525 CURVE SMOOTH",
"189 525 OFFCURVE",
"81 450 OFFCURVE",
"81 280 CURVE SMOOTH",
"81 33 LINE",
"153 0 LINE",
"189 51 OFFCURVE",
"250 89 OFFCURVE",
"322 89 CURVE SMOOTH",
"427 89 OFFCURVE",
"482 18 OFFCURVE",
"482 -100 CURVE SMOOTH",
"482 -183 LINE SMOOTH",
"482 -314 OFFCURVE",
"417 -374 OFFCURVE",
"307 -374 CURVE SMOOTH",
"218 -374 OFFCURVE",
"159 -330 OFFCURVE",
"132 -241 CURVE",
"60 -267 LINE",
"93 -387 OFFCURVE",
"187 -446 OFFCURVE",
"313 -446 CURVE SMOOTH"
);
}
);
userData = {
com.schriftgestaltung.Glyphs.category = Letter;
com.schriftgestaltung.Glyphs.lastChange = "2020/09/03 22:42:33";
com.schriftgestaltung.Glyphs.subCategory = Other;
};
width = 572;
}
);
leftKerningGroup = nga;
rightKerningGroup = q;
unicode = 1993;
},
{
color = 0;
glyphname = "paHigh-lue";
lastChange = "2022-02-23 14:28:46 +0000";
layers = (
{
background = {
components = (
{
name = "baHigh-lue";
}
);
};
layerId = UUID0;
paths = (
{
closed = 1;
nodes = (
"476 -14 OFFCURVE",
"559 97 OFFCURVE",
"559 300 CURVE SMOOTH",
"559 783 LINE SMOOTH",
"559 839 OFFCURVE",
"563 893 OFFCURVE",
"589 928 CURVE",
"520 966 LINE",
"491 933 OFFCURVE",
"477 890 OFFCURVE",
"477 815 CURVE SMOOTH",
"477 307 LINE SMOOTH",
"477 163 OFFCURVE",
"429 52 OFFCURVE",
"308 52 CURVE SMOOTH",
"201 52 OFFCURVE",
"140 134 OFFCURVE",
"140 259 CURVE SMOOTH",
"140 371 OFFCURVE",
"192 431 OFFCURVE",
"253 453 CURVE",
"222 520 LINE",
"120 473 OFFCURVE",
"50 384 OFFCURVE",
"50 260 CURVE SMOOTH",
"50 111 OFFCURVE",
"142 -16 OFFCURVE",
"309 -15 CURVE SMOOTH"
);
}
);
userData = {
com.schriftgestaltung.Glyphs.category = Letter;
com.schriftgestaltung.Glyphs.lastChange = "2020/09/03 22:42:33";
com.schriftgestaltung.Glyphs.subCategory = Other;
};
width = 619;
},
{
background = {
components = (
{
name = "baHigh-lue";
}
);
};
layerId = "1FCF787B-CF33-4B83-BE16-73AC6600FEB7";
paths = (
{
closed = 1;
nodes = (
"525 -15 OFFCURVE",
"592 118 OFFCURVE",
"592 340 CURVE SMOOTH",
"592 785 LINE SMOOTH",
"592 849 OFFCURVE",
"602 887 OFFCURVE",
"632 924 CURVE",
"511 985 LINE",
"469 944 OFFCURVE",
"452 897 OFFCURVE",
"452 811 CURVE SMOOTH",
"452 308 LINE SMOOTH",
"452 172 OFFCURVE",
"405 97 OFFCURVE",
"321 97 CURVE SMOOTH",
"247 97 OFFCURVE",
"191 156 OFFCURVE",
"191 257 CURVE SMOOTH",
"191 348 OFFCURVE",
"229 397 OFFCURVE",
"293 426 CURVE",
"237 540 LINE",
"110 487 OFFCURVE",
"40 396 OFFCURVE",
"40 262 CURVE SMOOTH",
"40 91 OFFCURVE",
"145 -15 OFFCURVE",
"317 -15 CURVE SMOOTH"
);
}
);
width = 642;
},
{
associatedMasterId = UUID0;
layerId = "4672F5BC-65EB-44B9-A4EB-CF1EB0C18F67";
name = "Jan 25 22, 21:26";
paths = (
{
closed = 1;
nodes = (
"506 -10 OFFCURVE",
"564 162 OFFCURVE",
"564 401 CURVE SMOOTH",
"564 682 OFFCURVE",
"581 782 OFFCURVE",
"655 782 CURVE SMOOTH",
"670 782 OFFCURVE",
"681 781 OFFCURVE",
"700 775 CURVE",
"732 837 LINE",
"705 847 OFFCURVE",
"690 850 OFFCURVE",
"670 850 CURVE SMOOTH",
"542 850 OFFCURVE",
"478 663 OFFCURVE",
"478 464 CURVE SMOOTH",
"478 364 LINE SMOOTH",
"478 162 OFFCURVE",
"446 58 OFFCURVE",
"302 58 CURVE SMOOTH",
"189 58 OFFCURVE",
"139 145 OFFCURVE",
"139 265 CURVE SMOOTH",
"139 368 OFFCURVE",
"165 440 OFFCURVE",
"238 477 CURVE",
"210 541 LINE",
"115 493 OFFCURVE",
"49 387 OFFCURVE",
"49 266 CURVE SMOOTH",
"49 105 OFFCURVE",
"162 -10 OFFCURVE",
"299 -10 CURVE SMOOTH"
);
}
);
userData = {
com.schriftgestaltung.Glyphs.category = Letter;
com.schriftgestaltung.Glyphs.lastChange = "2020/09/03 22:42:33";
com.schriftgestaltung.Glyphs.subCategory = Other;
};
width = 635;
},
{
associatedMasterId = UUID0;
layerId = "25B419F6-3062-43DF-95BA-E940FFE04A75";
name = "Feb 1 22, 12:50";
paths = (
{
closed = 1;
nodes = (
"523 -13 OFFCURVE",
"617 133 OFFCURVE",
"617 359 CURVE SMOOTH",
"617 743 LINE SMOOTH",
"617 818 OFFCURVE",
"621 890 OFFCURVE",
"692 890 CURVE SMOOTH",
"712 890 OFFCURVE",
"728 885 OFFCURVE",
"739 879 CURVE",
"767 939 LINE",
"740 955 OFFCURVE",
"710 960 OFFCURVE",
"682 960 CURVE SMOOTH",
"575 960 OFFCURVE",
"535 878 OFFCURVE",
"535 775 CURVE SMOOTH",
"535 364 LINE SMOOTH",
"535 190 OFFCURVE",
"478 55 OFFCURVE",
"322 55 CURVE SMOOTH",
"208 55 OFFCURVE",
"142 136 OFFCURVE",
"142 264 CURVE SMOOTH",
"142 389 OFFCURVE",
"219 457 OFFCURVE",
"309 457 CURVE SMOOTH",
"334 457 OFFCURVE",
"360 452 OFFCURVE",
"382 437 CURVE",
"422 495 LINE",
"387 517 OFFCURVE",
"344 525 OFFCURVE",
"305 525 CURVE SMOOTH",
"159 525 OFFCURVE",
"50 420 OFFCURVE",
"50 261 CURVE SMOOTH",
"50 91 OFFCURVE",
"165 -13 OFFCURVE",
"319 -13 CURVE SMOOTH"
);
}
);
userData = {
com.schriftgestaltung.Glyphs.category = Letter;
com.schriftgestaltung.Glyphs.lastChange = "2020/09/03 22:42:33";
com.schriftgestaltung.Glyphs.subCategory = Other;
};
width = 667;
},
{
associatedMasterId = UUID0;
layerId = "443D1E8E-F3CC-4F19-813C-2D8962907C9F";
name = "Feb 1 22, 12:53";
paths = (
{
closed = 1;
nodes = (
"523 -13 OFFCURVE",
"617 133 OFFCURVE",
"617 359 CURVE SMOOTH",
"617 783 LINE SMOOTH",
"617 839 OFFCURVE",
"621 893 OFFCURVE",
"647 928 CURVE",
"578 966 LINE",
"549 933 OFFCURVE",
"535 890 OFFCURVE",
"535 815 CURVE SMOOTH",
"535 364 LINE SMOOTH",
"535 190 OFFCURVE",
"478 55 OFFCURVE",
"322 55 CURVE SMOOTH",
"208 55 OFFCURVE",
"142 136 OFFCURVE",
"142 264 CURVE SMOOTH",
"142 389 OFFCURVE",
"219 457 OFFCURVE",
"309 457 CURVE SMOOTH",
"334 457 OFFCURVE",
"360 452 OFFCURVE",
"382 437 CURVE",
"422 495 LINE",
"387 517 OFFCURVE",
"344 525 OFFCURVE",
"305 525 CURVE SMOOTH",
"159 525 OFFCURVE",
"50 420 OFFCURVE",
"50 261 CURVE SMOOTH",
"50 91 OFFCURVE",
"165 -13 OFFCURVE",
"319 -13 CURVE SMOOTH"
);
}
);
userData = {
com.schriftgestaltung.Glyphs.category = Letter;
com.schriftgestaltung.Glyphs.lastChange = "2020/09/03 22:42:33";
com.schriftgestaltung.Glyphs.subCategory = Other;
};
width = 667;
}
);
leftKerningGroup = va;
leftMetricsKey = "kaHigh-lue";
rightKerningGroup = ya;
rightMetricsKey = "yaHigh-lue";
unicode = 1994;
},
{
color = 0;
glyphname = "phaHigh-lue";
lastChange = "2022-04-03 22:42:59 +0000";
layers = (
{
background = {
components = (
{
name = "tsaHigh-lue";
}
);
};
layerId = "1FCF787B-CF33-4B83-BE16-73AC6600FEB7";
paths = (
{
closed = 1;
nodes = (
"512 -14 OFFCURVE",
"667 123 OFFCURVE",
"667 331 CURVE SMOOTH",
"667 458 OFFCURVE",
"603 540 OFFCURVE",
"496 540 CURVE SMOOTH",
"389 540 OFFCURVE",
"326 456 OFFCURVE",
"326 323 CURVE SMOOTH",
"326 151 OFFCURVE",
"449 -7 OFFCURVE",
"601 -7 CURVE SMOOTH",
"650 -7 OFFCURVE",
"697 7 OFFCURVE",
"725 33 CURVE",
"670 134 LINE",
"649 116 OFFCURVE",
"623 106 OFFCURVE",
"589 106 CURVE SMOOTH",
"505 106 OFFCURVE",
"455 180 OFFCURVE",
"455 318 CURVE SMOOTH",
"455 399 OFFCURVE",
"472 430 OFFCURVE",
"498 430 CURVE SMOOTH",
"520 430 OFFCURVE",
"538 405 OFFCURVE",
"538 334 CURVE SMOOTH",
"538 156 OFFCURVE",
"439 90 OFFCURVE",
"288 90 CURVE SMOOTH",
"221 90 OFFCURVE",
"194 112 OFFCURVE",
"194 149 CURVE SMOOTH",
"194 182 OFFCURVE",
"219 203 OFFCURVE",
"269 203 CURVE SMOOTH",
"288 203 LINE",
"288 311 LINE",
"220 311 OFFCURVE",
"186 325 OFFCURVE",
"186 371 CURVE SMOOTH",
"186 411 OFFCURVE",
"216 426 OFFCURVE",
"249 426 CURVE SMOOTH",
"267 426 OFFCURVE",
"283 423 OFFCURVE",
"298 417 CURVE",
"329 521 LINE",
"303 533 OFFCURVE",
"268 540 OFFCURVE",
"225 540 CURVE SMOOTH",
"117 540 OFFCURVE",
"50 483 OFFCURVE",
"50 393 CURVE SMOOTH",
"50 317 OFFCURVE",
"94 264 OFFCURVE",
"179 241 CURVE",
"179 267 LINE",
"95 247 OFFCURVE",
"50 209 OFFCURVE",
"50 135 CURVE SMOOTH",
"50 38 OFFCURVE",
"136 -14 OFFCURVE",
"274 -14 CURVE SMOOTH"
);
}
);
width = 725;
},
{
associatedMasterId = UUID0;
layerId = "4FAC79E4-59F1-40DD-970D-770F6087AB1A";
name = "Jan 27 22, 17:40";
paths = (
{
closed = 1;
nodes = (
"388 -10 OFFCURVE",
"486 17 OFFCURVE",
"566 65 CURVE",
"623 18 OFFCURVE",
"691 -10 OFFCURVE",
"759 -10 CURVE SMOOTH",
"795 -10 OFFCURVE",
"820 -6 OFFCURVE",
"853 9 CURVE",
"824 68 LINE",
"805 61 OFFCURVE",
"780 58 OFFCURVE",
"762 58 CURVE SMOOTH",
"717 58 OFFCURVE",
"671 78 OFFCURVE",
"631 113 CURVE",
"702 176 OFFCURVE",
"748 262 OFFCURVE",
"748 366 CURVE SMOOTH",
"748 506 OFFCURVE",
"649 546 OFFCURVE",
"585 546 CURVE SMOOTH",
"479 546 OFFCURVE",
"425 457 OFFCURVE",
"425 365 CURVE SMOOTH",
"425 271 OFFCURVE",
"459 184 OFFCURVE",
"514 117 CURVE",
"448 78 OFFCURVE",
"367 58 OFFCURVE",
"288 58 CURVE SMOOTH",
"200 58 OFFCURVE",
"139 90 OFFCURVE",
"139 164 CURVE SMOOTH",
"139 208 OFFCURVE",
"166 257 OFFCURVE",
"266 257 CURVE SMOOTH",
"272 257 OFFCURVE",
"289 257 OFFCURVE",
"295 256 CURVE",
"295 315 LINE",
"290 315 LINE SMOOTH",
"235 315 OFFCURVE",
"139 318 OFFCURVE",
"139 408 CURVE SMOOTH",
"139 450 OFFCURVE",
"176 479 OFFCURVE",
"248 479 CURVE SMOOTH",
"280 479 OFFCURVE",
"328 468 OFFCURVE",
"355 449 CURVE",
"389 504 LINE",
"351 531 OFFCURVE",
"288 546 OFFCURVE",
"238 546 CURVE SMOOTH",
"113 546 OFFCURVE",
"49 477 OFFCURVE",
"49 412 CURVE SMOOTH",
"49 345 OFFCURVE",
"88 313 OFFCURVE",
"139 292 CURVE",
"81 267 OFFCURVE",
"49 219 OFFCURVE",
"49 163 CURVE SMOOTH",
"49 94 OFFCURVE",
"93 -10 OFFCURVE",
"289 -10 CURVE SMOOTH"
);
},
{
closed = 1;
nodes = (
"542 225 OFFCURVE",
"515 296 OFFCURVE",
"515 373 CURVE SMOOTH",
"515 446 OFFCURVE",
"538 479 OFFCURVE",
"585 479 CURVE SMOOTH",
"634 479 OFFCURVE",
"658 450 OFFCURVE",
"658 364 CURVE SMOOTH",
"658 283 OFFCURVE",
"628 218 OFFCURVE",
"581 169 CURVE"
);
}
);
userData = {
com.schriftgestaltung.Glyphs.category = Letter;
com.schriftgestaltung.Glyphs.lastChange = "2020/09/03 22:42:33";
com.schriftgestaltung.Glyphs.subCategory = Other;
};
width = 833;
},
{
associatedMasterId = UUID0;
layerId = "FF890BDD-B4CD-452C-8883-9A64FEFC9E37";
name = "Feb 1 22, 14:04";
paths = (
{
closed = 1;
nodes = (
"211 51 OFFCURVE",
"313 51 CURVE SMOOTH",
"495 51 OFFCURVE",
"709 139 OFFCURVE",
"709 332 CURVE SMOOTH",
"709 414 OFFCURVE",
"670 458 OFFCURVE",
"612 458 CURVE SMOOTH",
"554 458 OFFCURVE",
"515 414 OFFCURVE",
"515 332 CURVE SMOOTH",
"515 188 OFFCURVE",
"639 57 OFFCURVE",
"782 57 CURVE SMOOTH",
"820 57 OFFCURVE",
"860 67 OFFCURVE",
"884 89 CURVE",
"924 32 LINE",
"889 1 OFFCURVE",
"834 -10 OFFCURVE",
"784 -10 CURVE SMOOTH",
"584 -10 OFFCURVE",
"433 167 OFFCURVE",
"433 334 CURVE SMOOTH",
"433 462 OFFCURVE",
"529 525 OFFCURVE",
"612 525 CURVE SMOOTH",
"695 525 OFFCURVE",
"791 462 OFFCURVE",
"791 334 CURVE SMOOTH",
"791 105 OFFCURVE",
"547 -15 OFFCURVE",
"313 -15 CURVE SMOOTH",
"169 -15 OFFCURVE",
"50 25 OFFCURVE",
"50 141 CURVE SMOOTH",
"50 216 OFFCURVE",
"101 255 OFFCURVE",
"168 274 CURVE",
"167 255 LINE",
"105 273 OFFCURVE",
"50 309 OFFCURVE",
"50 383 CURVE SMOOTH",
"50 464 OFFCURVE",
"119 525 OFFCURVE",
"243 525 CURVE SMOOTH",
"309 525 OFFCURVE",
"375 506 OFFCURVE",
"413 477 CURVE",
"379 422 LINE",
"347 445 OFFCURVE",
"300 458 OFFCURVE",
"252 458 CURVE SMOOTH",
"180 458 OFFCURVE",
"136 428 OFFCURVE",
"136 374 CURVE SMOOTH",
"136 300 OFFCURVE",
"227 287 OFFCURVE",
"307 287 CURVE",
"307 228 LINE",
"267 228 LINE SMOOTH",
"174 228 OFFCURVE",
"138 193 OFFCURVE",
"138 143 CURVE SMOOTH",
"138 77 OFFCURVE"
);
}
);
userData = {
com.schriftgestaltung.Glyphs.category = Letter;
com.schriftgestaltung.Glyphs.lastChange = "2020/09/03 22:42:33";
com.schriftgestaltung.Glyphs.subCategory = Other;
};
width = 904;
},
{
associatedMasterId = UUID0;
layerId = "7722981F-2C2C-4AD3-91DD-648F0F4A096A";
name = "Feb 3 22, 16:27";
paths = (
{
closed = 1;
nodes = (
"447 -15 OFFCURVE",
"625 96 OFFCURVE",
"625 331 CURVE SMOOTH",
"625 463 OFFCURVE",
"555 525 OFFCURVE",
"481 525 CURVE SMOOTH",
"399 525 OFFCURVE",
"333 457 OFFCURVE",
"333 320 CURVE SMOOTH",
"333 143 OFFCURVE",
"434 -7 OFFCURVE",
"579 -7 CURVE SMOOTH",
"616 -7 OFFCURVE",
"645 0 OFFCURVE",
"670 15 CURVE",
"639 74 LINE",
"621 64 OFFCURVE",
"599 59 OFFCURVE",
"574 59 CURVE SMOOTH",
"461 59 OFFCURVE",
"405 189 OFFCURVE",
"405 318 CURVE SMOOTH",
"405 409 OFFCURVE",
"431 461 OFFCURVE",
"484 461 CURVE SMOOTH",
"529 461 OFFCURVE",
"554 415 OFFCURVE",
"554 329 CURVE SMOOTH",
"554 130 OFFCURVE",
"404 52 OFFCURVE",
"261 52 CURVE SMOOTH",
"189 52 OFFCURVE",
"137 76 OFFCURVE",
"137 143 CURVE SMOOTH",
"137 189 OFFCURVE",
"165 228 OFFCURVE",
"236 228 CURVE SMOOTH",
"270 228 LINE",
"270 287 LINE",
"191 287 OFFCURVE",
"138 310 OFFCURVE",
"138 379 CURVE SMOOTH",
"138 435 OFFCURVE",
"173 462 OFFCURVE",
"230 462 CURVE SMOOTH",
"254 462 OFFCURVE",
"278 457 OFFCURVE",
"296 447 CURVE",
"319 504 LINE",
"291 519 OFFCURVE",
"258 525 OFFCURVE",
"218 525 CURVE SMOOTH",
"117 525 OFFCURVE",
"60 468 OFFCURVE",
"60 388 CURVE SMOOTH",
"60 309 OFFCURVE",
"107 273 OFFCURVE",
"158 255 CURVE",
"160 273 LINE",
"103 254 OFFCURVE",
"61 212 OFFCURVE",
"61 143 CURVE SMOOTH",
"61 30 OFFCURVE",
"153 -15 OFFCURVE",
"261 -15 CURVE SMOOTH"
);
}
);
userData = {
com.schriftgestaltung.Glyphs.category = Letter;
com.schriftgestaltung.Glyphs.lastChange = "2020/09/03 22:42:33";
com.schriftgestaltung.Glyphs.subCategory = Other;
};
width = 680;
},
{
associatedMasterId = UUID0;
background = {
components = (
{
name = "tsaHigh-lue";
}
);
};
layerId = "E9FCE3BE-3C00-4813-B858-C22C7245A26C";
name = "Feb 3 22, 16:50";
paths = (
{
closed = 1;
nodes = (
"447 -15 OFFCURVE",
"625 99 OFFCURVE",
"625 326 CURVE SMOOTH",
"625 465 OFFCURVE",
"559 525 OFFCURVE",
"480 525 CURVE SMOOTH",
"395 525 OFFCURVE",
"333 457 OFFCURVE",
"333 320 CURVE SMOOTH",
"333 153 OFFCURVE",
"426 -7 OFFCURVE",
"582 -7 CURVE SMOOTH",
"615 -7 OFFCURVE",
"645 0 OFFCURVE",
"670 15 CURVE",
"639 74 LINE",
"621 64 OFFCURVE",
"599 59 OFFCURVE",
"574 59 CURVE SMOOTH",
"461 59 OFFCURVE",
"405 189 OFFCURVE",
"405 318 CURVE SMOOTH",
"405 409 OFFCURVE",
"432 461 OFFCURVE",
"482 461 CURVE SMOOTH",
"529 461 OFFCURVE",
"554 415 OFFCURVE",
"554 333 CURVE SMOOTH",
"554 130 OFFCURVE",
"403 52 OFFCURVE",
"269 52 CURVE SMOOTH",
"197 52 OFFCURVE",
"148 75 OFFCURVE",
"148 140 CURVE SMOOTH",
"148 196 OFFCURVE",
"184 228 OFFCURVE",
"246 228 CURVE SMOOTH",
"260 228 LINE",
"260 289 LINE",
"199 291 OFFCURVE",
"141 313 OFFCURVE",
"141 380 CURVE SMOOTH",
"141 438 OFFCURVE",
"181 459 OFFCURVE",
"235 459 CURVE",
"235 525 LINE",
"116 525 OFFCURVE",
"60 473 OFFCURVE",
"60 390 CURVE SMOOTH",
"60 309 OFFCURVE",
"115 271 OFFCURVE",
"177 253 CURVE",
"178 272 LINE",
"111 253 OFFCURVE",
"60 213 OFFCURVE",
"60 136 CURVE SMOOTH",
"60 43 OFFCURVE",
"134 -15 OFFCURVE",
"264 -15 CURVE SMOOTH"
);
}
);
userData = {
com.schriftgestaltung.Glyphs.category = Letter;
com.schriftgestaltung.Glyphs.lastChange = "2020/09/03 22:42:33";
com.schriftgestaltung.Glyphs.subCategory = Other;
};
width = 680;
},
{
background = {
components = (
{
name = "tsaHigh-lue";
}
);
};
layerId = UUID0;
paths = (
{
closed = 1;
nodes = (
"456 -15 OFFCURVE",
"615 101 OFFCURVE",
"615 327 CURVE SMOOTH",
"615 463 OFFCURVE",
"550 525 OFFCURVE",
"467 525 CURVE SMOOTH",
"382 525 OFFCURVE",
"320 458 OFFCURVE",
"320 320 CURVE SMOOTH",
"320 162 OFFCURVE",
"416 -7 OFFCURVE",
"572 -7 CURVE SMOOTH",
"605 -7 OFFCURVE",
"635 0 OFFCURVE",
"660 15 CURVE",
"629 74 LINE",
"611 64 OFFCURVE",
"589 59 OFFCURVE",
"564 59 CURVE SMOOTH",
"451 59 OFFCURVE",
"398 196 OFFCURVE",
"398 316 CURVE SMOOTH",
"398 404 OFFCURVE",
"422 458 OFFCURVE",
"471 458 CURVE SMOOTH",
"517 458 OFFCURVE",
"538 401 OFFCURVE",
"538 333 CURVE SMOOTH",
"538 150 OFFCURVE",
"437 52 OFFCURVE",
"269 52 CURVE SMOOTH",
"197 52 OFFCURVE",
"148 75 OFFCURVE",
"148 140 CURVE SMOOTH",
"148 195 OFFCURVE",
"184 228 OFFCURVE",
"242 228 CURVE SMOOTH",
"256 228 LINE",
"256 290 LINE",
"199 292 OFFCURVE",
"141 311 OFFCURVE",
"141 380 CURVE SMOOTH",
"141 437 OFFCURVE",
"181 459 OFFCURVE",
"226 459 CURVE SMOOTH",
"241 459 OFFCURVE",
"258 457 OFFCURVE",
"272 452 CURVE",
"285 516 LINE",
"261 523 OFFCURVE",
"241 525 OFFCURVE",
"217 525 CURVE SMOOTH",
"118 525 OFFCURVE",
"60 473 OFFCURVE",
"60 391 CURVE SMOOTH",
"60 308 OFFCURVE",
"115 270 OFFCURVE",
"177 252 CURVE",
"178 271 LINE",
"111 252 OFFCURVE",
"60 212 OFFCURVE",
"60 136 CURVE SMOOTH",
"60 43 OFFCURVE",
"135 -15 OFFCURVE",
"266 -15 CURVE SMOOTH"
);
}
);
userData = {
com.schriftgestaltung.Glyphs.category = Letter;
com.schriftgestaltung.Glyphs.lastChange = "2020/09/03 22:42:33";
com.schriftgestaltung.Glyphs.subCategory = Other;
};
width = 670;
},
{
associatedMasterId = "1FCF787B-CF33-4B83-BE16-73AC6600FEB7";
background = {
components = (
{
name = "tsaHigh-lue";
}
);
};
layerId = "0D2759AC-1999-4710-83B6-54B4CD60B6CC";
name = "Feb 28 22, 18:19";
paths = (
{
closed = 1;
nodes = (
"531 -14 OFFCURVE",
"692 123 OFFCURVE",
"692 331 CURVE SMOOTH",
"692 458 OFFCURVE",
"626 540 OFFCURVE",
"514 540 CURVE SMOOTH",
"403 540 OFFCURVE",
"337 456 OFFCURVE",
"337 323 CURVE SMOOTH",
"337 151 OFFCURVE",
"465 -7 OFFCURVE",
"624 -7 CURVE SMOOTH",
"675 -7 OFFCURVE",
"723 7 OFFCURVE",
"753 33 CURVE",
"695 134 LINE",
"674 116 OFFCURVE",
"646 106 OFFCURVE",
"611 106 CURVE SMOOTH",
"524 106 OFFCURVE",
"472 180 OFFCURVE",
"472 318 CURVE SMOOTH",
"472 399 OFFCURVE",
"489 430 OFFCURVE",
"516 430 CURVE SMOOTH",
"539 430 OFFCURVE",
"558 405 OFFCURVE",
"558 334 CURVE SMOOTH",
"558 166 OFFCURVE",
"467 95 OFFCURVE",
"299 95 CURVE SMOOTH",
"229 95 OFFCURVE",
"200 114 OFFCURVE",
"200 152 CURVE SMOOTH",
"200 187 OFFCURVE",
"226 209 OFFCURVE",
"278 209 CURVE SMOOTH",
"298 209 LINE",
"298 317 LINE",
"227 317 OFFCURVE",
"192 331 OFFCURVE",
"192 373 CURVE SMOOTH",
"192 412 OFFCURVE",
"223 426 OFFCURVE",
"257 426 CURVE SMOOTH",
"276 426 OFFCURVE",
"293 423 OFFCURVE",
"308 417 CURVE",
"341 521 LINE",
"314 533 OFFCURVE",
"277 540 OFFCURVE",
"232 540 CURVE SMOOTH",
"120 540 OFFCURVE",
"50 484 OFFCURVE",
"50 395 CURVE SMOOTH",
"50 323 OFFCURVE",
"96 270 OFFCURVE",
"185 247 CURVE",
"185 273 LINE",
"97 253 OFFCURVE",
"50 214 OFFCURVE",
"50 138 CURVE SMOOTH",
"50 40 OFFCURVE",
"140 -14 OFFCURVE",
"283 -14 CURVE SMOOTH"
);
}
);
width = 753;
},
{
associatedMasterId = "1FCF787B-CF33-4B83-BE16-73AC6600FEB7";
background = {
components = (
{
name = "tsaHigh-lue";
}
);
};
layerId = "BDA20E12-91E5-4E08-A22A-3B0CB47719D1";
name = "Apr 3 22, 18:41";
paths = (
{
closed = 1;
nodes = (
"512 -14 OFFCURVE",
"667 123 OFFCURVE",
"667 331 CURVE SMOOTH",
"667 458 OFFCURVE",
"603 540 OFFCURVE",
"496 540 CURVE SMOOTH",
"389 540 OFFCURVE",
"326 456 OFFCURVE",
"326 323 CURVE SMOOTH",
"326 151 OFFCURVE",
"449 -7 OFFCURVE",
"601 -7 CURVE SMOOTH",
"650 -7 OFFCURVE",
"697 7 OFFCURVE",
"725 33 CURVE",
"670 134 LINE",
"649 116 OFFCURVE",
"623 106 OFFCURVE",
"589 106 CURVE SMOOTH",
"505 106 OFFCURVE",
"455 180 OFFCURVE",
"455 318 CURVE SMOOTH",
"455 399 OFFCURVE",
"472 430 OFFCURVE",
"498 430 CURVE SMOOTH",
"520 430 OFFCURVE",
"538 405 OFFCURVE",
"538 334 CURVE SMOOTH",
"538 166 OFFCURVE",
"450 95 OFFCURVE",
"289 95 CURVE SMOOTH",
"222 95 OFFCURVE",
"194 114 OFFCURVE",
"194 152 CURVE SMOOTH",
"194 187 OFFCURVE",
"219 209 OFFCURVE",
"269 209 CURVE SMOOTH",
"288 209 LINE",
"288 317 LINE",
"220 317 OFFCURVE",
"186 331 OFFCURVE",
"186 373 CURVE SMOOTH",
"186 412 OFFCURVE",
"216 426 OFFCURVE",
"249 426 CURVE SMOOTH",
"267 426 OFFCURVE",
"283 423 OFFCURVE",
"298 417 CURVE",
"329 521 LINE",
"303 533 OFFCURVE",
"268 540 OFFCURVE",
"225 540 CURVE SMOOTH",
"117 540 OFFCURVE",
"50 484 OFFCURVE",
"50 395 CURVE SMOOTH",
"50 323 OFFCURVE",
"94 270 OFFCURVE",
"179 247 CURVE",
"179 273 LINE",
"95 253 OFFCURVE",
"50 214 OFFCURVE",
"50 138 CURVE SMOOTH",
"50 40 OFFCURVE",
"136 -14 OFFCURVE",
"274 -14 CURVE SMOOTH"
);
}
);
width = 725;
}
);
leftKerningGroup = ya;
leftMetricsKey = "yaHigh-lue";
rightKerningGroup = oa;
rightMetricsKey = "oaSign-lue";
unicode = 1995;
},
{
color = 0;
glyphname = "maHigh-lue";
lastChange = "2022-02-23 14:39:50 +0000";
layers = (
{
background = {
components = (
{
name = "haHigh-lue";
}
);
};
layerId = UUID0;
paths = (
{
closed = 1;
nodes = (
"691 -446 OFFCURVE",
"822 -406 OFFCURVE",
"910 -308 CURVE",
"850 -252 LINE",
"771 -342 OFFCURVE",
"661 -376 OFFCURVE",
"506 -376 CURVE SMOOTH",
"348 -376 OFFCURVE",
"258 -347 OFFCURVE",
"258 -255 CURVE SMOOTH",
"258 -174 OFFCURVE",
"330 -149 OFFCURVE",
"450 -149 CURVE SMOOTH",
"703 -149 LINE",
"703 14 LINE",
"673 1 LINE",
"696 -7 OFFCURVE",
"721 -10 OFFCURVE",
"746 -10 CURVE SMOOTH",
"896 -10 OFFCURVE",
"998 93 OFFCURVE",
"998 253 CURVE SMOOTH",
"998 429 OFFCURVE",
"883 525 OFFCURVE",
"753 525 CURVE SMOOTH",
"596 525 OFFCURVE",
"538 428 OFFCURVE",
"483 269 CURVE SMOOTH",
"442 149 OFFCURVE",
"410 56 OFFCURVE",
"296 56 CURVE SMOOTH",
"204 56 OFFCURVE",
"138 127 OFFCURVE",
"138 256 CURVE SMOOTH",
"138 390 OFFCURVE",
"215 457 OFFCURVE",
"303 457 CURVE SMOOTH",
"331 457 OFFCURVE",
"365 450 OFFCURVE",
"388 431 CURVE",
"428 488 LINE",
"391 515 OFFCURVE",
"342 525 OFFCURVE",
"298 525 CURVE SMOOTH",
"154 525 OFFCURVE",
"50 417 OFFCURVE",
"50 257 CURVE SMOOTH",
"50 93 OFFCURVE",
"150 -15 OFFCURVE",
"295 -15 CURVE SMOOTH",
"452 -15 OFFCURVE",
"513 85 OFFCURVE",
"563 239 CURVE SMOOTH",
"603 362 OFFCURVE",
"640 455 OFFCURVE",
"752 455 CURVE SMOOTH",
"841 455 OFFCURVE",
"910 384 OFFCURVE",
"910 254 CURVE SMOOTH",
"910 117 OFFCURVE",
"835 58 OFFCURVE",
"734 58 CURVE SMOOTH",
"695 58 OFFCURVE",
"661 66 OFFCURVE",
"632 78 CURVE",
"632 -113 LINE",
"668 -81 LINE",
"425 -81 LINE SMOOTH",
"261 -81 OFFCURVE",
"170 -132 OFFCURVE",
"170 -255 CURVE SMOOTH",
"170 -394 OFFCURVE",
"298 -446 OFFCURVE",
"505 -446 CURVE SMOOTH"
);
}
);
userData = {
com.schriftgestaltung.Glyphs.category = Letter;
com.schriftgestaltung.Glyphs.lastChange = "2020/09/03 22:42:33";
com.schriftgestaltung.Glyphs.subCategory = Other;
};
width = 1048;
},
{
background = {
components = (
{
name = "haHigh-lue";
}
);
};
layerId = "1FCF787B-CF33-4B83-BE16-73AC6600FEB7";
paths = (
{
closed = 1;
nodes = (
"739 -474 OFFCURVE",
"880 -419 OFFCURVE",
"971 -301 CURVE",
"864 -201 LINE",
"793 -298 OFFCURVE",
"694 -345 OFFCURVE",
"516 -345 CURVE SMOOTH",
"368 -345 OFFCURVE",
"314 -323 OFFCURVE",
"314 -268 CURVE SMOOTH",
"314 -222 OFFCURVE",
"347 -193 OFFCURVE",
"455 -193 CURVE SMOOTH",
"753 -193 LINE",
"753 40 LINE",
"703 -1 LINE",
"723 -6 OFFCURVE",
"746 -9 OFFCURVE",
"771 -9 CURVE SMOOTH",
"919 -9 OFFCURVE",
"1032 98 OFFCURVE",
"1032 265 CURVE SMOOTH",
"1032 427 OFFCURVE",
"925 540 OFFCURVE",
"763 540 CURVE SMOOTH",
"595 540 OFFCURVE",
"526 447 OFFCURVE",
"461 287 CURVE SMOOTH",
"419 184 OFFCURVE",
"389 105 OFFCURVE",
"308 105 CURVE SMOOTH",
"241 105 OFFCURVE",
"190 151 OFFCURVE",
"190 263 CURVE SMOOTH",
"190 359 OFFCURVE",
"243 414 OFFCURVE",
"324 414 CURVE SMOOTH",
"358 414 OFFCURVE",
"383 407 OFFCURVE",
"403 394 CURVE",
"467 507 LINE",
"431 529 OFFCURVE",
"380 540 OFFCURVE",
"321 540 CURVE SMOOTH",
"153 540 OFFCURVE",
"40 427 OFFCURVE",
"40 260 CURVE SMOOTH",
"40 89 OFFCURVE",
"147 -15 OFFCURVE",
"305 -15 CURVE SMOOTH",
"469 -15 OFFCURVE",
"537 78 OFFCURVE",
"602 239 CURVE SMOOTH",
"645 345 OFFCURVE",
"678 420 OFFCURVE",
"759 420 CURVE SMOOTH",
"831 420 OFFCURVE",
"882 367 OFFCURVE",
"882 265 CURVE SMOOTH",
"882 168 OFFCURVE",
"829 109 OFFCURVE",
"728 109 CURVE SMOOTH",
"694 109 OFFCURVE",
"647 120 OFFCURVE",
"624 131 CURVE",
"624 -110 LINE",
"658 -65 LINE",
"441 -65 LINE SMOOTH",
"251 -65 OFFCURVE",
"154 -131 OFFCURVE",
"154 -264 CURVE SMOOTH",
"154 -407 OFFCURVE",
"277 -474 OFFCURVE",
"520 -474 CURVE SMOOTH"
);
}
);
width = 1072;
},
{
associatedMasterId = UUID0;
layerId = "7C5E51C3-5D7C-4397-9CCD-38F0C60ED6D7";
name = "Jan 28 22, 12:15";
paths = (
{
closed = 1;
nodes = (
"748 -293 OFFCURVE",
"853 -275 OFFCURVE",
"936 -238 CURVE",
"907 -181 LINE",
"862 -204 OFFCURVE",
"743 -227 OFFCURVE",
"649 -227 CURVE SMOOTH",
"523 -227 OFFCURVE",
"505 -187 OFFCURVE",
"505 -162 CURVE SMOOTH",
"505 -111 OFFCURVE",
"588 -104 OFFCURVE",
"683 -101 CURVE",
"694 -84 LINE",
"682 -60 OFFCURVE",
"671 -34 OFFCURVE",
"665 -9 CURVE",
"770 -2 OFFCURVE",
"865 116 OFFCURVE",
"865 279 CURVE SMOOTH",
"865 444 OFFCURVE",
"777 546 OFFCURVE",
"666 546 CURVE SMOOTH",
"565 546 OFFCURVE",
"505 441 OFFCURVE",
"459 356 CURVE SMOOTH",
"361 175 LINE SMOOTH",
"323 105 OFFCURVE",
"293 58 OFFCURVE",
"249 58 CURVE SMOOTH",
"192 58 OFFCURVE",
"139 115 OFFCURVE",
"139 258 CURVE SMOOTH",
"139 392 OFFCURVE",
"183 479 OFFCURVE",
"261 479 CURVE SMOOTH",
"297 479 OFFCURVE",
"329 466 OFFCURVE",
"354 431 CURVE",
"403 476 LINE",
"372 518 OFFCURVE",
"323 546 OFFCURVE",
"259 546 CURVE SMOOTH",
"150 546 OFFCURVE",
"49 425 OFFCURVE",
"49 257 CURVE SMOOTH",
"49 92 OFFCURVE",
"137 -10 OFFCURVE",
"248 -10 CURVE SMOOTH",
"349 -10 OFFCURVE",
"409 95 OFFCURVE",
"455 180 CURVE SMOOTH",
"552 361 LINE SMOOTH",
"590 431 OFFCURVE",
"620 479 OFFCURVE",
"665 479 CURVE SMOOTH",
"722 479 OFFCURVE",
"775 421 OFFCURVE",
"775 278 CURVE SMOOTH",
"775 144 OFFCURVE",
"731 58 OFFCURVE",
"653 58 CURVE SMOOTH",
"616 58 OFFCURVE",
"584 70 OFFCURVE",
"560 105 CURVE",
"510 61 LINE",
"534 29 OFFCURVE",
"567 5 OFFCURVE",
"609 -4 CURVE",
"612 -19 OFFCURVE",
"617 -33 OFFCURVE",
"622 -43 CURVE",
"471 -50 OFFCURVE",
"420 -108 OFFCURVE",
"420 -167 CURVE SMOOTH",
"420 -226 OFFCURVE",
"477 -293 OFFCURVE",
"647 -293 CURVE SMOOTH"
);
}
);
userData = {
com.schriftgestaltung.Glyphs.category = Letter;
com.schriftgestaltung.Glyphs.lastChange = "2020/09/03 22:42:33";
com.schriftgestaltung.Glyphs.subCategory = Other;
};
width = 914;
},
{
associatedMasterId = UUID0;
background = {
components = (
{
name = "haHigh-lue";
}
);
};
layerId = "E92F922E-44AF-484A-B568-C808BA1AE505";
name = "Feb 16 22, 19:43";
paths = (
{
closed = 1;
nodes = (
"691 -446 OFFCURVE",
"822 -406 OFFCURVE",
"910 -308 CURVE",
"850 -252 LINE",
"771 -342 OFFCURVE",
"661 -376 OFFCURVE",
"506 -376 CURVE SMOOTH",
"348 -376 OFFCURVE",
"258 -347 OFFCURVE",
"258 -255 CURVE SMOOTH",
"258 -174 OFFCURVE",
"330 -149 OFFCURVE",
"450 -149 CURVE SMOOTH",
"703 -149 LINE",
"703 14 LINE",
"673 1 LINE",
"697 -7 OFFCURVE",
"722 -10 OFFCURVE",
"747 -10 CURVE SMOOTH",
"888 -10 OFFCURVE",
"984 102 OFFCURVE",
"984 259 CURVE SMOOTH",
"984 419 OFFCURVE",
"879 525 OFFCURVE",
"739 525 CURVE SMOOTH",
"584 525 OFFCURVE",
"520 426 OFFCURVE",
"475 271 CURVE SMOOTH",
"439 148 OFFCURVE",
"409 65 OFFCURVE",
"300 65 CURVE SMOOTH",
"210 65 OFFCURVE",
"142 136 OFFCURVE",
"142 264 CURVE SMOOTH",
"142 389 OFFCURVE",
"219 457 OFFCURVE",
"309 457 CURVE SMOOTH",
"334 457 OFFCURVE",
"360 452 OFFCURVE",
"382 437 CURVE",
"422 495 LINE",
"387 517 OFFCURVE",
"344 525 OFFCURVE",
"305 525 CURVE SMOOTH",
"159 525 OFFCURVE",
"50 420 OFFCURVE",
"50 261 CURVE SMOOTH",
"50 91 OFFCURVE",
"168 -5 OFFCURVE",
"299 -5 CURVE SMOOTH",
"453 -5 OFFCURVE",
"505 82 OFFCURVE",
"555 241 CURVE SMOOTH",
"593 361 OFFCURVE",
"628 455 OFFCURVE",
"742 455 CURVE SMOOTH",
"831 455 OFFCURVE",
"895 387 OFFCURVE",
"895 267 CURVE SMOOTH",
"895 150 OFFCURVE",
"848 59 OFFCURVE",
"729 59 CURVE SMOOTH",
"694 59 OFFCURVE",
"664 67 OFFCURVE",
"632 78 CURVE",
"632 -113 LINE",
"668 -81 LINE",
"425 -81 LINE SMOOTH",
"261 -81 OFFCURVE",
"170 -132 OFFCURVE",
"170 -255 CURVE SMOOTH",
"170 -394 OFFCURVE",
"298 -446 OFFCURVE",
"505 -446 CURVE SMOOTH"
);
}
);
userData = {
com.schriftgestaltung.Glyphs.category = Letter;
com.schriftgestaltung.Glyphs.lastChange = "2020/09/03 22:42:33";
com.schriftgestaltung.Glyphs.subCategory = Other;
};
width = 1034;
}
);
leftKerningGroup = va;
leftMetricsKey = "haHigh-lue";
rightKerningGroup = va;
rightMetricsKey = "haHigh-lue";
unicode = 1996;
},
